<svg xmlns="http://www.w3.org/2000/svg" fill="none" viewBox="16.579710144927535 3.3640000000000003 38.492753623188406 43.848" style="max-height: 500px" width="38.492753623188406" height="43.848">
<path stroke-miterlimit="10" stroke-width="0.1" stroke="url(#paint0_linear_0_1015)" d="M17.3443 36.0924L35.7288 46.7126L54.1357 36.0924C53.6179 35.793 36.2485 25.7715 35.7288 25.4722C24.6875 31.8579 28.9304 29.4073 17.3443 36.0924Z" clip-rule="evenodd" fill-rule="evenodd"/>
<path fill="url(#paint1_radial_0_1015)" d="M46.2136 31.5925C51.8779 34.863 56.6181 37.2558 56.8022 36.9379C56.9853 36.62 52.5426 33.7111 46.8783 30.4407C41.214 27.1702 36.4738 24.7773 36.2897 25.0952C36.1066 25.4132 40.5493 28.322 46.2136 31.5925Z" style="mix-blend-mode:color-dodge"/>
<path fill="url(#paint2_radial_0_1015)" d="M46.2136 31.5925C51.8779 34.863 56.6181 37.2558 56.8022 36.9379C56.9853 36.62 52.5426 33.7111 46.8783 30.4407C41.214 27.1702 36.4738 24.7773 36.2897 25.0952C36.1066 25.4132 40.5493 28.322 46.2136 31.5925Z" style="mix-blend-mode:color-dodge"/>
<path fill="url(#paint3_radial_0_1015)" d="M46.2136 31.5925C51.8779 34.863 56.6181 37.2558 56.8022 36.9379C56.9853 36.62 52.5426 33.7111 46.8783 30.4407C41.214 27.1702 36.4738 24.7773 36.2897 25.0952C36.1066 25.4132 40.5493 28.322 46.2136 31.5925Z" style="mix-blend-mode:color-dodge"/>
<path fill="url(#paint4_radial_0_1015)" d="M46.2136 31.5925C51.8779 34.863 56.6181 37.2558 56.8022 36.9379C56.9853 36.62 52.5426 33.7111 46.8783 30.4407C41.214 27.1702 36.4738 24.7773 36.2897 25.0952C36.1066 25.4132 40.5493 28.322 46.2136 31.5925Z" style="mix-blend-mode:color-dodge"/>
<path fill="url(#paint5_radial_0_1015)" d="M46.2136 31.5925C51.8779 34.863 56.6181 37.2558 56.8022 36.9379C56.9853 36.62 52.5426 33.7111 46.8783 30.4407C41.214 27.1702 36.4738 24.7773 36.2897 25.0952C36.1066 25.4132 40.5493 28.322 46.2136 31.5925Z" style="mix-blend-mode:color-dodge"/>
<path fill="url(#paint6_radial_0_1015)" d="M46.2136 31.5925C51.8779 34.863 56.6181 37.2558 56.8022 36.9379C56.9853 36.62 52.5426 33.7111 46.8783 30.4407C41.214 27.1702 36.4738 24.7773 36.2897 25.0952C36.1066 25.4132 40.5493 28.322 46.2136 31.5925Z" style="mix-blend-mode:color-dodge"/>
<path fill="url(#paint7_radial_0_1015)" d="M25.0659 31.5925C19.4016 34.863 14.6614 37.2558 14.4773 36.9379C14.2942 36.62 18.7369 33.7111 24.4012 30.4407C30.0655 27.1702 34.8057 24.7773 34.9898 25.0952C35.1729 25.4132 30.7302 28.322 25.0659 31.5925Z" style="mix-blend-mode:color-dodge"/>
<path fill="url(#paint8_radial_0_1015)" d="M25.0659 31.5925C19.4016 34.863 14.6614 37.2558 14.4773 36.9379C14.2942 36.62 18.7369 33.7111 24.4012 30.4407C30.0655 27.1702 34.8057 24.7773 34.9898 25.0952C35.1729 25.4132 30.7302 28.322 25.0659 31.5925Z" style="mix-blend-mode:color-dodge"/>
<path fill="url(#paint9_radial_0_1015)" d="M25.0659 31.5925C19.4016 34.863 14.6614 37.2558 14.4773 36.9379C14.2942 36.62 18.7369 33.7111 24.4012 30.4407C30.0655 27.1702 34.8057 24.7773 34.9898 25.0952C35.1729 25.4132 30.7302 28.322 25.0659 31.5925Z" style="mix-blend-mode:color-dodge"/>
<path fill="url(#paint10_radial_0_1015)" d="M25.0659 31.5925C19.4016 34.863 14.6614 37.2558 14.4773 36.9379C14.2942 36.62 18.7369 33.7111 24.4012 30.4407C30.0655 27.1702 34.8057 24.7773 34.9898 25.0952C35.1729 25.4132 30.7302 28.322 25.0659 31.5925Z" style="mix-blend-mode:color-dodge"/>
<path fill="url(#paint11_radial_0_1015)" d="M25.0659 31.5925C19.4016 34.863 14.6614 37.2558 14.4773 36.9379C14.2942 36.62 18.7369 33.7111 24.4012 30.4407C30.0655 27.1702 34.8057 24.7773 34.9898 25.0952C35.1729 25.4132 30.7302 28.322 25.0659 31.5925Z" style="mix-blend-mode:color-dodge"/>
<path fill="url(#paint12_radial_0_1015)" d="M25.0659 31.5925C19.4016 34.863 14.6614 37.2558 14.4773 36.9379C14.2942 36.62 18.7369 33.7111 24.4012 30.4407C30.0655 27.1702 34.8057 24.7773 34.9898 25.0952C35.1729 25.4132 30.7302 28.322 25.0659 31.5925Z" style="mix-blend-mode:color-dodge"/>
<path fill="url(#paint13_linear_0_1015)" d="M18.7898 15.2069L35.4824 24.8501C35.6814 24.9644 35.9259 24.9654 36.1248 24.8501L52.8379 15.2069C53.2664 14.9597 53.2673 14.3424 52.8388 14.0951C49.4391 12.1336 38.2016 5.64932 36.1239 4.45102C35.9249 4.33667 35.6814 4.3376 35.4824 4.45195C25.3996 10.2836 28.8188 8.30902 18.7908 14.0951C18.3622 14.3424 18.3613 14.9606 18.7898 15.2079V15.2069Z" clip-rule="evenodd" fill-rule="evenodd"/>
<path fill="url(#paint14_linear_0_1015)" d="M35 25.4929L18.3074 15.8498C17.8788 15.6025 17.3443 15.9112 17.3443 16.4057C17.3443 20.8243 17.3443 36.6514 17.3443 36.0629C27.8297 42.113 24.2506 40.0446 34.3567 45.8901C34.7853 46.1374 35.3207 45.8288 35.3207 45.3342V26.0489C35.3207 25.8192 35.198 25.6073 35 25.4929Z" clip-rule="evenodd" fill-rule="evenodd"/>
<path fill="url(#paint15_linear_0_1015)" d="M36.1246 26.0483V45.3346C36.1246 45.8292 36.6591 46.1388 37.0868 45.8915C40.9187 43.6808 54.6179 35.7761 54.1224 36.0624V16.4043C54.1224 15.9097 53.5869 15.601 53.1593 15.8483L36.4453 25.4924C36.2464 25.6067 36.1237 25.8196 36.1237 26.0483H36.1246Z" clip-rule="evenodd" fill-rule="evenodd"/>
<path fill="url(#paint16_linear_0_1015)" d="M18.7903 15.2069L35.4829 24.8501C35.6819 24.9644 35.9264 24.9654 36.1253 24.8501L52.8383 15.2069C53.2669 14.9597 53.2678 14.3424 52.8393 14.0951C49.4396 12.1336 38.2021 5.64932 36.1244 4.45102C35.9254 4.33667 35.6819 4.3376 35.4829 4.45195C25.4 10.2836 28.8193 8.30902 18.7912 14.0951C18.3627 14.3424 18.3618 14.9606 18.7903 15.2079V15.2069Z" clip-rule="evenodd" fill-rule="evenodd"/>
<path stroke-miterlimit="10" stroke-width="0.2" stroke="#E05FFF" d="M18.7898 15.2069L35.4824 24.8501C35.6814 24.9644 35.9259 24.9654 36.1248 24.8501L52.8379 15.2069C53.2664 14.9597 53.2673 14.3424 52.8388 14.0951C49.4391 12.1336 38.2016 5.64932 36.1239 4.45102C35.9249 4.33667 35.6814 4.3376 35.4824 4.45195C25.3996 10.2836 28.8188 8.30902 18.7908 14.0951C18.3622 14.3424 18.3613 14.9606 18.7898 15.2079V15.2069Z" clip-rule="evenodd" fill-rule="evenodd"/>
<path stroke-miterlimit="10" stroke-width="0.2" stroke="#E05FFF" d="M35 25.4929L18.3074 15.8498C17.8788 15.6025 17.3443 15.9112 17.3443 16.4057C17.3443 20.8243 17.3443 36.6514 17.3443 36.0629C27.8297 42.113 24.2506 40.0446 34.3567 45.8901C34.7853 46.1374 35.3207 45.8288 35.3207 45.3342V26.0489C35.3207 25.8192 35.198 25.6073 35 25.4929Z" clip-rule="evenodd" fill-rule="evenodd"/>
<path stroke-miterlimit="10" stroke-width="0.2" stroke="#E05FFF" d="M36.1246 26.0483V45.3346C36.1246 45.8292 36.6591 46.1388 37.0868 45.8915C40.9187 43.6808 54.6179 35.7761 54.1224 36.0624V16.4043C54.1224 15.9097 53.5869 15.601 53.1593 15.8483L36.4453 25.4924C36.2464 25.6067 36.1237 25.8196 36.1237 26.0483H36.1246Z" clip-rule="evenodd" fill-rule="evenodd"/>
<path fill="url(#paint17_radial_0_1015)" d="M46.0186 41.5159C52.7002 37.6583 57.9821 34.2979 57.816 34.0102C57.6499 33.7225 52.0987 36.6165 45.4171 40.4741C38.7355 44.3318 33.4537 47.6922 33.6198 47.9799C33.7859 48.2676 39.337 45.3735 46.0186 41.5159Z" opacity="0.64" style="mix-blend-mode:color-dodge"/>
<path fill="url(#paint18_radial_0_1015)" d="M45.4309 21.0115C52.1125 17.1539 57.3944 13.7935 57.2283 13.5058C57.0622 13.2181 51.511 16.1121 44.8294 19.9697C38.1478 23.8274 32.866 27.1878 33.0321 27.4755C33.1982 27.7632 38.7493 24.8692 45.4309 21.0115Z" opacity="0.64" style="mix-blend-mode:color-dodge"/>
<path fill="url(#paint19_radial_0_1015)" d="M38.9623 27.8188C39.0537 27.6605 33.7112 24.405 27.0296 20.5474C20.348 16.6897 14.8575 13.6908 14.7661 13.8491C14.6747 14.0074 20.0171 17.263 26.6987 21.1206C33.3803 24.9782 38.8709 27.9771 38.9623 27.8188Z" opacity="0.64" style="mix-blend-mode:color-dodge"/>
<path fill="url(#paint20_radial_0_1015)" d="M45.1035 20.1078C51.7851 16.2502 57.1088 12.9622 56.9943 12.7639C56.8798 12.5656 51.3705 15.532 44.6889 19.3897C38.0073 23.2473 32.6836 26.5353 32.7981 26.7336C32.9126 26.9319 38.4219 23.9654 45.1035 20.1078Z" opacity="0.64" style="mix-blend-mode:color-dodge"/>
<path fill="url(#paint21_radial_0_1015)" d="M26.2628 21.1402C33.302 25.2046 39.3382 27.9266 39.7454 27.221C40.1525 26.5154 34.7764 22.6491 27.7372 18.5847C20.698 14.5203 14.6618 11.7983 14.2547 12.5039C13.8475 13.2095 19.2236 17.0759 26.2628 21.1402Z" style="mix-blend-mode:color-dodge"/>
<path fill="url(#paint22_radial_0_1015)" d="M33.7227 45.7937C43.6478 51.5175 52.2084 56.328 52.844 56.5387C53.4796 56.7494 45.9493 52.2803 36.0242 46.5565C26.0991 40.8327 17.5385 36.0222 16.9029 35.8115C16.2673 35.6008 23.7976 40.0699 33.7227 45.7937Z" style="mix-blend-mode:color-dodge"/>
<path fill="url(#paint23_radial_0_1015)" d="M35.3082 47.2248C25.3831 52.9486 16.8225 57.7591 16.1869 57.9698C15.5513 58.1805 23.0816 53.7115 33.0067 47.9877C42.9318 42.2639 51.4924 37.4534 52.128 37.2427C52.7636 37.032 45.2333 41.501 35.3082 47.2248Z" style="mix-blend-mode:color-dodge"/>
<path fill="url(#paint24_radial_0_1015)" d="M20.9962 34.3435C11.0711 40.0673 2.51046 44.8778 1.87487 45.0885C1.23928 45.2992 8.7696 40.8301 18.6947 35.1063C28.6197 29.3825 37.1804 24.572 37.816 24.3613C38.4516 24.1506 30.9212 28.6197 20.9962 34.3435Z" style="mix-blend-mode:color-dodge"/>
<path fill="url(#paint25_radial_0_1015)" d="M50.8977 34.3435C60.8228 40.0673 69.3834 44.8778 70.019 45.0885C70.6546 45.2992 63.1243 40.8301 53.1992 35.1063C43.2741 29.3825 34.7135 24.572 34.0779 24.3613C33.4423 24.1506 40.9726 28.6197 50.8977 34.3435Z" style="mix-blend-mode:color-dodge"/>
<path fill="url(#paint26_radial_0_1015)" d="M44.3916 10.8946C51.4309 14.959 57.467 17.681 57.8742 16.9754C58.2814 16.2698 52.9053 12.4034 45.8661 8.33907C38.8268 4.27469 32.7907 1.5527 32.3835 2.2583C31.9763 2.9639 37.3524 6.83026 44.3916 10.8946Z" style="mix-blend-mode:color-dodge"/>
<path fill="url(#paint27_radial_0_1015)" d="M25.0734 42.2731C32.1126 46.3374 38.1488 49.0594 38.556 48.3538C38.9631 47.6482 33.587 43.7819 26.5478 39.7175C19.5086 35.6531 13.4724 32.9311 13.0653 33.6367C12.6581 34.3423 18.0342 38.2087 25.0734 42.2731Z" style="mix-blend-mode:color-dodge"/>
<path fill="url(#paint28_radial_0_1015)" d="M43.9139 9.78975C49.5782 13.0602 54.3184 15.4531 54.5025 15.1352C54.6856 14.8172 50.2429 11.9084 44.5786 8.63793C38.9143 5.36746 34.1741 2.97457 33.99 3.29251C33.8069 3.61044 38.2496 6.51928 43.9139 9.78975Z" style="mix-blend-mode:color-dodge"/>
<path fill="url(#paint29_radial_0_1015)" d="M16.6811 22.9924C16.5751 29.6727 16.788 35.9831 17.1561 37.0866C17.5243 38.191 17.9091 33.6702 18.0151 26.9898C18.1211 20.3094 17.9082 13.999 17.5401 12.8956C17.1719 11.7911 16.7871 16.312 16.6811 22.9924Z" style="mix-blend-mode:color-dodge"/>
<path fill="url(#paint30_radial_0_1015)" d="M53.4684 23.4948C53.3624 30.1752 53.5753 36.4856 53.9434 37.5891C54.3116 38.6935 54.6964 34.1726 54.8024 27.4922C54.9084 20.8119 54.6955 14.5015 54.3274 13.398C53.9592 12.2936 53.5744 16.8144 53.4684 23.4948Z" style="mix-blend-mode:color-dodge"/>
<path fill="url(#paint31_radial_0_1015)" d="M35.4566 29.7336C35.3506 36.414 35.5635 42.7243 35.9316 43.8278C36.2998 44.9322 36.6847 40.4114 36.7906 33.731C36.8966 27.0506 36.6837 20.7402 36.3156 19.6368C35.9475 18.5324 35.5626 23.0532 35.4566 29.7336Z" style="mix-blend-mode:color-dodge"/>
<path fill="url(#paint32_radial_0_1015)" d="M34.6551 35.757C34.5491 42.4374 34.762 48.7478 35.1301 49.8513C35.4983 50.9557 35.8831 46.4348 35.9891 39.7545C36.0951 33.0741 35.8822 26.7637 35.5141 25.6602C35.1459 24.5558 34.7611 29.0766 34.6551 35.757Z" style="mix-blend-mode:color-dodge"/>
<path fill="url(#paint33_radial_0_1015)" d="M18.4642 19.3582C21.0647 19.3582 23.1728 17.25 23.1728 14.6495C23.1728 12.049 21.0647 9.94092 18.4642 9.94092C15.8637 9.94092 13.7556 12.049 13.7556 14.6495C13.7556 17.25 15.8637 19.3582 18.4642 19.3582Z" style="mix-blend-mode:color-dodge"/>
<path fill="url(#paint34_radial_0_1015)" d="M35.6392 9.41724C38.2397 9.41724 40.3478 7.30912 40.3478 4.70862C40.3478 2.10812 38.2397 0 35.6392 0C33.0387 0 30.9305 2.10812 30.9305 4.70862C30.9305 7.30912 33.0387 9.41724 35.6392 9.41724Z" style="mix-blend-mode:color-dodge"/>
<path fill="url(#paint35_radial_0_1015)" d="M52.8142 19.3582C55.4147 19.3582 57.5228 17.25 57.5228 14.6495C57.5228 12.049 55.4147 9.94092 52.8142 9.94092C50.2137 9.94092 48.1055 12.049 48.1055 14.6495C48.1055 17.25 50.2137 19.3582 52.8142 19.3582Z" style="mix-blend-mode:color-dodge"/>
<path fill="url(#paint36_radial_0_1015)" d="M53.53 40.1887C56.1305 40.1887 58.2387 38.0806 58.2387 35.4801C58.2387 32.8796 56.1305 30.7715 53.53 30.7715C50.9295 30.7715 48.8214 32.8796 48.8214 35.4801C48.8214 38.0806 50.9295 40.1887 53.53 40.1887Z" style="mix-blend-mode:color-dodge"/>
<path fill="url(#paint37_radial_0_1015)" d="M17.7483 40.1887C20.3488 40.1887 22.4569 38.0806 22.4569 35.4801C22.4569 32.8796 20.3488 30.7715 17.7483 30.7715C15.1478 30.7715 13.0397 32.8796 13.0397 35.4801C13.0397 38.0806 15.1478 40.1887 17.7483 40.1887Z" style="mix-blend-mode:color-dodge"/>
<path fill="url(#paint38_radial_0_1015)" d="M16.9759 37.9277C17.9639 37.9277 18.7649 37.1267 18.7649 36.1387C18.7649 35.1506 17.9639 34.3496 16.9759 34.3496C15.9878 34.3496 15.1868 35.1506 15.1868 36.1387C15.1868 37.1267 15.9878 37.9277 16.9759 37.9277Z" style="mix-blend-mode:color-dodge"/>
<path fill="url(#paint39_radial_0_1015)" d="M54.1883 37.9277C55.1764 37.9277 55.9774 37.1267 55.9774 36.1387C55.9774 35.1506 55.1764 34.3496 54.1883 34.3496C53.2003 34.3496 52.3993 35.1506 52.3993 36.1387C52.3993 37.1267 53.2003 37.9277 54.1883 37.9277Z" style="mix-blend-mode:color-dodge"/>
<path fill="url(#paint40_radial_0_1015)" d="M35.8487 53.4899C39.7507 53.4899 42.914 50.3267 42.914 46.4246C42.914 42.5226 39.7507 39.3594 35.8487 39.3594C31.9467 39.3594 28.7834 42.5226 28.7834 46.4246C28.7834 50.3267 31.9467 53.4899 35.8487 53.4899Z" style="mix-blend-mode:color-dodge"/>
<path fill="url(#paint41_radial_0_1015)" d="M35.8134 31.7326C39.7154 31.7326 42.8786 28.5693 42.8786 24.6673C42.8786 20.7653 39.7154 17.6021 35.8134 17.6021C31.9113 17.6021 28.7481 20.7653 28.7481 24.6673C28.7481 28.5693 31.9113 31.7326 35.8134 31.7326Z" opacity="0.64" style="mix-blend-mode:color-dodge"/>
<path fill="url(#paint42_radial_0_1015)" d="M35.8199 40.1296C48.8502 40.1296 59.4132 33.372 59.4132 25.036C59.4132 16.7 48.8502 9.94238 35.8199 9.94238C22.7897 9.94238 12.2266 16.7 12.2266 25.036C12.2266 33.372 22.7897 40.1296 35.8199 40.1296Z" style="mix-blend-mode:color-dodge"/>
<path fill="url(#paint43_linear_0_1015)" d="M35.7202 3.7749L17.3441 14.1915L18.8538 14.1041L35.5724 4.46469L35.7202 3.7749Z" style="mix-blend-mode:screen"/>
<path fill="url(#paint44_linear_0_1015)" d="M52.8664 15L36.1478 24.6404L36 25.3301" style="mix-blend-mode:screen"/>
<defs>
<linearGradient gradientUnits="userSpaceOnUse" y2="25.4452" x2="35.74" y1="46.7395" x1="35.74" id="paint0_linear_0_1015">
<stop stop-opacity="0" stop-color="#FFFBFF"/>
<stop stop-color="#FFFBFF" offset="0.48"/>
<stop stop-opacity="0" stop-color="#FFFBFF" offset="0.89"/>
</linearGradient>
<radialGradient gradientTransform="translate(46.2992 31.754) rotate(119.97) scale(0.632777 11.8118)" gradientUnits="userSpaceOnUse" r="1" cy="0" cx="0" id="paint1_radial_0_1015">
<stop stop-color="#CFCFCF"/>
<stop stop-opacity="0.9025" stop-color="#C5C5C5" offset="0.02"/>
<stop stop-opacity="0.49" stop-color="#919191" offset="0.15"/>
<stop stop-opacity="0.2401" stop-color="#656565" offset="0.28"/>
<stop stop-opacity="0.0961" stop-color="#404040" offset="0.4"/>
<stop stop-opacity="0.0324" stop-color="#242424" offset="0.53"/>
<stop stop-opacity="0.01" stop-color="#101010" offset="0.66"/>
<stop stop-opacity="0.01" stop-color="#040404" offset="0.79"/>
<stop stop-opacity="0" offset="0.91"/>
</radialGradient>
<radialGradient gradientTransform="translate(46.2992 31.754) rotate(119.97) scale(0.632777 11.8118)" gradientUnits="userSpaceOnUse" r="1" cy="0" cx="0" id="paint2_radial_0_1015">
<stop stop-color="#CFCFCF"/>
<stop stop-opacity="0.9025" stop-color="#C5C5C5" offset="0.02"/>
<stop stop-opacity="0.49" stop-color="#919191" offset="0.15"/>
<stop stop-opacity="0.2401" stop-color="#656565" offset="0.28"/>
<stop stop-opacity="0.0961" stop-color="#404040" offset="0.4"/>
<stop stop-opacity="0.0324" stop-color="#242424" offset="0.53"/>
<stop stop-opacity="0.01" stop-color="#101010" offset="0.66"/>
<stop stop-opacity="0.01" stop-color="#040404" offset="0.79"/>
<stop stop-opacity="0" offset="0.91"/>
</radialGradient>
<radialGradient gradientTransform="translate(46.2992 31.754) rotate(119.97) scale(0.632777 11.8118)" gradientUnits="userSpaceOnUse" r="1" cy="0" cx="0" id="paint3_radial_0_1015">
<stop stop-color="#CFCFCF"/>
<stop stop-opacity="0.9025" stop-color="#C5C5C5" offset="0.02"/>
<stop stop-opacity="0.49" stop-color="#919191" offset="0.15"/>
<stop stop-opacity="0.2401" stop-color="#656565" offset="0.28"/>
<stop stop-opacity="0.0961" stop-color="#404040" offset="0.4"/>
<stop stop-opacity="0.0324" stop-color="#242424" offset="0.53"/>
<stop stop-opacity="0.01" stop-color="#101010" offset="0.66"/>
<stop stop-opacity="0.01" stop-color="#040404" offset="0.79"/>
<stop stop-opacity="0" offset="0.91"/>
</radialGradient>
<radialGradient gradientTransform="translate(46.2992 31.754) rotate(119.97) scale(0.632777 11.8118)" gradientUnits="userSpaceOnUse" r="1" cy="0" cx="0" id="paint4_radial_0_1015">
<stop stop-color="#CFCFCF"/>
<stop stop-opacity="0.9025" stop-color="#C5C5C5" offset="0.02"/>
<stop stop-opacity="0.49" stop-color="#919191" offset="0.15"/>
<stop stop-opacity="0.2401" stop-color="#656565" offset="0.28"/>
<stop stop-opacity="0.0961" stop-color="#404040" offset="0.4"/>
<stop stop-opacity="0.0324" stop-color="#242424" offset="0.53"/>
<stop stop-opacity="0.01" stop-color="#101010" offset="0.66"/>
<stop stop-opacity="0.01" stop-color="#040404" offset="0.79"/>
<stop stop-opacity="0" offset="0.91"/>
</radialGradient>
<radialGradient gradientTransform="translate(46.2992 31.754) rotate(119.97) scale(0.632777 11.8118)" gradientUnits="userSpaceOnUse" r="1" cy="0" cx="0" id="paint5_radial_0_1015">
<stop stop-color="#CFCFCF"/>
<stop stop-opacity="0.9025" stop-color="#C5C5C5" offset="0.02"/>
<stop stop-opacity="0.49" stop-color="#919191" offset="0.15"/>
<stop stop-opacity="0.2401" stop-color="#656565" offset="0.28"/>
<stop stop-opacity="0.0961" stop-color="#404040" offset="0.4"/>
<stop stop-opacity="0.0324" stop-color="#242424" offset="0.53"/>
<stop stop-opacity="0.01" stop-color="#101010" offset="0.66"/>
<stop stop-opacity="0.01" stop-color="#040404" offset="0.79"/>
<stop stop-opacity="0" offset="0.91"/>
</radialGradient>
<radialGradient gradientTransform="translate(46.2992 31.754) rotate(119.97) scale(0.632777 11.8118)" gradientUnits="userSpaceOnUse" r="1" cy="0" cx="0" id="paint6_radial_0_1015">
<stop stop-color="#CFCFCF"/>
<stop stop-opacity="0.9025" stop-color="#C5C5C5" offset="0.02"/>
<stop stop-opacity="0.49" stop-color="#919191" offset="0.15"/>
<stop stop-opacity="0.2401" stop-color="#656565" offset="0.28"/>
<stop stop-opacity="0.0961" stop-color="#404040" offset="0.4"/>
<stop stop-opacity="0.0324" stop-color="#242424" offset="0.53"/>
<stop stop-opacity="0.01" stop-color="#101010" offset="0.66"/>
<stop stop-opacity="0.01" stop-color="#040404" offset="0.79"/>
<stop stop-opacity="0" offset="0.91"/>
</radialGradient>
<radialGradient gradientTransform="translate(24.9803 31.754) rotate(60.03) scale(0.632777 11.8118)" gradientUnits="userSpaceOnUse" r="1" cy="0" cx="0" id="paint7_radial_0_1015">
<stop stop-color="#CFCFCF"/>
<stop stop-opacity="0.9025" stop-color="#C5C5C5" offset="0.02"/>
<stop stop-opacity="0.49" stop-color="#919191" offset="0.15"/>
<stop stop-opacity="0.2401" stop-color="#656565" offset="0.28"/>
<stop stop-opacity="0.0961" stop-color="#404040" offset="0.4"/>
<stop stop-opacity="0.0324" stop-color="#242424" offset="0.53"/>
<stop stop-opacity="0.01" stop-color="#101010" offset="0.66"/>
<stop stop-opacity="0.01" stop-color="#040404" offset="0.79"/>
<stop stop-opacity="0" offset="0.91"/>
</radialGradient>
<radialGradient gradientTransform="translate(24.9803 31.754) rotate(60.03) scale(0.632777 11.8118)" gradientUnits="userSpaceOnUse" r="1" cy="0" cx="0" id="paint8_radial_0_1015">
<stop stop-color="#CFCFCF"/>
<stop stop-opacity="0.9025" stop-color="#C5C5C5" offset="0.02"/>
<stop stop-opacity="0.49" stop-color="#919191" offset="0.15"/>
<stop stop-opacity="0.2401" stop-color="#656565" offset="0.28"/>
<stop stop-opacity="0.0961" stop-color="#404040" offset="0.4"/>
<stop stop-opacity="0.0324" stop-color="#242424" offset="0.53"/>
<stop stop-opacity="0.01" stop-color="#101010" offset="0.66"/>
<stop stop-opacity="0.01" stop-color="#040404" offset="0.79"/>
<stop stop-opacity="0" offset="0.91"/>
</radialGradient>
<radialGradient gradientTransform="translate(24.9803 31.754) rotate(60.03) scale(0.632777 11.8118)" gradientUnits="userSpaceOnUse" r="1" cy="0" cx="0" id="paint9_radial_0_1015">
<stop stop-color="#CFCFCF"/>
<stop stop-opacity="0.9025" stop-color="#C5C5C5" offset="0.02"/>
<stop stop-opacity="0.49" stop-color="#919191" offset="0.15"/>
<stop stop-opacity="0.2401" stop-color="#656565" offset="0.28"/>
<stop stop-opacity="0.0961" stop-color="#404040" offset="0.4"/>
<stop stop-opacity="0.0324" stop-color="#242424" offset="0.53"/>
<stop stop-opacity="0.01" stop-color="#101010" offset="0.66"/>
<stop stop-opacity="0.01" stop-color="#040404" offset="0.79"/>
<stop stop-opacity="0" offset="0.91"/>
</radialGradient>
<radialGradient gradientTransform="translate(24.9803 31.754) rotate(60.03) scale(0.632777 11.8118)" gradientUnits="userSpaceOnUse" r="1" cy="0" cx="0" id="paint10_radial_0_1015">
<stop stop-color="#CFCFCF"/>
<stop stop-opacity="0.9025" stop-color="#C5C5C5" offset="0.02"/>
<stop stop-opacity="0.49" stop-color="#919191" offset="0.15"/>
<stop stop-opacity="0.2401" stop-color="#656565" offset="0.28"/>
<stop stop-opacity="0.0961" stop-color="#404040" offset="0.4"/>
<stop stop-opacity="0.0324" stop-color="#242424" offset="0.53"/>
<stop stop-opacity="0.01" stop-color="#101010" offset="0.66"/>
<stop stop-opacity="0.01" stop-color="#040404" offset="0.79"/>
<stop stop-opacity="0" offset="0.91"/>
</radialGradient>
<radialGradient gradientTransform="translate(24.9803 31.754) rotate(60.03) scale(0.632777 11.8118)" gradientUnits="userSpaceOnUse" r="1" cy="0" cx="0" id="paint11_radial_0_1015">
<stop stop-color="#CFCFCF"/>
<stop stop-opacity="0.9025" stop-color="#C5C5C5" offset="0.02"/>
<stop stop-opacity="0.49" stop-color="#919191" offset="0.15"/>
<stop stop-opacity="0.2401" stop-color="#656565" offset="0.28"/>
<stop stop-opacity="0.0961" stop-color="#404040" offset="0.4"/>
<stop stop-opacity="0.0324" stop-color="#242424" offset="0.53"/>
<stop stop-opacity="0.01" stop-color="#101010" offset="0.66"/>
<stop stop-opacity="0.01" stop-color="#040404" offset="0.79"/>
<stop stop-opacity="0" offset="0.91"/>
</radialGradient>
<radialGradient gradientTransform="translate(24.9803 31.754) rotate(60.03) scale(0.632777 11.8118)" gradientUnits="userSpaceOnUse" r="1" cy="0" cx="0" id="paint12_radial_0_1015">
<stop stop-color="#CFCFCF"/>
<stop stop-opacity="0.9025" stop-color="#C5C5C5" offset="0.02"/>
<stop stop-opacity="0.49" stop-color="#919191" offset="0.15"/>
<stop stop-opacity="0.2401" stop-color="#656565" offset="0.28"/>
<stop stop-opacity="0.0961" stop-color="#404040" offset="0.4"/>
<stop stop-opacity="0.0324" stop-color="#242424" offset="0.53"/>
<stop stop-opacity="0.01" stop-color="#101010" offset="0.66"/>
<stop stop-opacity="0.01" stop-color="#040404" offset="0.79"/>
<stop stop-opacity="0" offset="0.91"/>
</radialGradient>
<linearGradient gradientUnits="userSpaceOnUse" y2="1.68999" x2="35.7502" y1="24.5517" x1="35.8636" id="paint13_linear_0_1015">
<stop stop-opacity="0" stop-color="#D45AFF"/>
<stop stop-opacity="0.8" stop-color="#FF00FF" offset="1"/>
</linearGradient>
<linearGradient gradientUnits="userSpaceOnUse" y2="35.7757" x2="18.1419" y1="25.3981" x1="35.4685" id="paint14_linear_0_1015">
<stop stop-opacity="0" stop-color="#D45AFF"/>
<stop stop-opacity="0.9" stop-color="#D000FF" offset="1"/>
</linearGradient>
<linearGradient gradientUnits="userSpaceOnUse" y2="36.0494" x2="52.3403" y1="25.0378" x1="36.9966" id="paint15_linear_0_1015">
<stop stop-opacity="0" stop-color="#BE4CE7"/>
<stop stop-opacity="0.9" stop-color="#D000FF" offset="1"/>
</linearGradient>
<linearGradient gradientUnits="userSpaceOnUse" y2="1.68999" x2="35.7506" y1="23.2577" x1="35.9409" id="paint16_linear_0_1015">
<stop stop-opacity="0" stop-color="#D181CF"/>
<stop stop-opacity="0.6" stop-color="#F1A3EF" offset="1"/>
</linearGradient>
<radialGradient gradientTransform="translate(44.1415 37.9154) rotate(-30) scale(13.9757 0.616572)" gradientUnits="userSpaceOnUse" r="1" cy="0" cx="0" id="paint17_radial_0_1015">
<stop stop-color="white"/>
<stop stop-opacity="0.5476" stop-color="#BCBCBC" offset="0.22"/>
<stop stop-opacity="0.0441" stop-color="#353535" offset="0.69"/>
<stop stop-opacity="0" offset="0.89"/>
</radialGradient>
<radialGradient gradientTransform="translate(43.3282 17.01) rotate(-30) scale(13.9757 0.616573)" gradientUnits="userSpaceOnUse" r="1" cy="0" cx="0" id="paint18_radial_0_1015">
<stop stop-color="white"/>
<stop stop-opacity="0.5476" stop-color="#BCBCBC" offset="0.22"/>
<stop stop-opacity="0.0441" stop-color="#353535" offset="0.69"/>
<stop stop-opacity="0" offset="0.89"/>
</radialGradient>
<radialGradient gradientTransform="translate(25.0454 23.4614) rotate(-150) scale(13.9757 0.308287)" gradientUnits="userSpaceOnUse" r="1" cy="0" cx="0" id="paint19_radial_0_1015">
<stop stop-color="white"/>
<stop stop-opacity="0.5476" stop-color="#BCBCBC" offset="0.22"/>
<stop stop-opacity="0.0441" stop-color="#353535" offset="0.69"/>
<stop stop-opacity="0" offset="0.89"/>
</radialGradient>
<radialGradient gradientTransform="translate(45.6534 20.7032) rotate(-30) scale(13.9757 0.411049)" gradientUnits="userSpaceOnUse" r="1" cy="0" cx="0" id="paint20_radial_0_1015">
<stop stop-color="#E6E6E6"/>
<stop stop-opacity="0.6724" stop-color="#BCBCBC" offset="0.16"/>
<stop stop-opacity="0.0529" stop-color="#353535" offset="0.67"/>
<stop stop-opacity="0" offset="0.89"/>
</radialGradient>
<radialGradient gradientTransform="translate(27.0677 19.9108) rotate(119.99) scale(1.47648 14.6945)" gradientUnits="userSpaceOnUse" r="1" cy="0" cx="0" id="paint21_radial_0_1015">
<stop stop-color="#E6E6E6"/>
<stop stop-opacity="0.7396" stop-color="#C5C5C5" offset="0.07"/>
<stop stop-opacity="0.3969" stop-color="#919191" offset="0.19"/>
<stop stop-opacity="0.1936" stop-color="#656565" offset="0.31"/>
<stop stop-opacity="0.0784" stop-color="#404040" offset="0.43"/>
<stop stop-opacity="0.0256" stop-color="#242424" offset="0.55"/>
<stop stop-opacity="0.01" stop-color="#101010" offset="0.67"/>
<stop stop-opacity="0.01" stop-color="#040404" offset="0.79"/>
<stop stop-opacity="0" offset="0.91"/>
</radialGradient>
<radialGradient gradientTransform="translate(34.9683 46.2313) rotate(-161.659) scale(1.21365 4.17582)" gradientUnits="userSpaceOnUse" r="1" cy="0" cx="0" id="paint22_radial_0_1015">
<stop stop-color="#F0B2EE"/>
<stop stop-opacity="0" offset="1"/>
</radialGradient>
<radialGradient gradientTransform="translate(34.0625 47.6625) rotate(-18.3411) scale(1.21365 4.17582)" gradientUnits="userSpaceOnUse" r="1" cy="0" cx="0" id="paint23_radial_0_1015">
<stop stop-color="#F0B2EE"/>
<stop stop-opacity="0" offset="1"/>
</radialGradient>
<radialGradient gradientTransform="translate(19.7505 34.7811) rotate(-18.3411) scale(1.21365 4.17582)" gradientUnits="userSpaceOnUse" r="1" cy="0" cx="0" id="paint24_radial_0_1015">
<stop stop-color="#F0B2EE"/>
<stop stop-opacity="0" offset="1"/>
</radialGradient>
<radialGradient gradientTransform="translate(52.1433 34.7811) rotate(-161.659) scale(1.21365 4.17582)" gradientUnits="userSpaceOnUse" r="1" cy="0" cx="0" id="paint25_radial_0_1015">
<stop stop-color="#F0B2EE"/>
<stop stop-opacity="0" offset="1"/>
</radialGradient>
<radialGradient gradientTransform="translate(45.1966 9.6652) rotate(119.99) scale(1.47648 14.6945)" gradientUnits="userSpaceOnUse" r="1" cy="0" cx="0" id="paint26_radial_0_1015">
<stop stop-color="#E6E6E6"/>
<stop stop-opacity="0.7396" stop-color="#C5C5C5" offset="0.07"/>
<stop stop-opacity="0.3969" stop-color="#919191" offset="0.19"/>
<stop stop-opacity="0.1936" stop-color="#656565" offset="0.31"/>
<stop stop-opacity="0.0784" stop-color="#404040" offset="0.43"/>
<stop stop-opacity="0.0256" stop-color="#242424" offset="0.55"/>
<stop stop-opacity="0.01" stop-color="#101010" offset="0.67"/>
<stop stop-opacity="0.01" stop-color="#040404" offset="0.79"/>
<stop stop-opacity="0" offset="0.91"/>
</radialGradient>
<radialGradient gradientTransform="translate(25.856 41.0528) rotate(119.99) scale(1.47648 14.6945)" gradientUnits="userSpaceOnUse" r="1" cy="0" cx="0" id="paint27_radial_0_1015">
<stop stop-color="#CFCFCF"/>
<stop stop-opacity="0.9025" stop-color="#C5C5C5" offset="0.02"/>
<stop stop-opacity="0.49" stop-color="#919191" offset="0.15"/>
<stop stop-opacity="0.2401" stop-color="#656565" offset="0.28"/>
<stop stop-opacity="0.0961" stop-color="#404040" offset="0.4"/>
<stop stop-opacity="0.0324" stop-color="#242424" offset="0.53"/>
<stop stop-opacity="0.01" stop-color="#101010" offset="0.66"/>
<stop stop-opacity="0.01" stop-color="#040404" offset="0.79"/>
<stop stop-opacity="0" offset="0.91"/>
</radialGradient>
<radialGradient gradientTransform="translate(43.4863 10.8726) rotate(119.97) scale(0.632777 11.8118)" gradientUnits="userSpaceOnUse" r="1" cy="0" cx="0" id="paint28_radial_0_1015">
<stop stop-color="#CFCFCF"/>
<stop stop-opacity="0" offset="0.91"/>
</radialGradient>
<radialGradient gradientTransform="translate(-172.56 -540.514) rotate(-108.45) scale(2.11229 4.03255)" gradientUnits="userSpaceOnUse" r="1" cy="0" cx="0" id="paint29_radial_0_1015">
<stop stop-color="#CFCFCF"/>
<stop stop-opacity="0" offset="0.91"/>
</radialGradient>
<radialGradient gradientTransform="translate(-104.219 -446.05) rotate(-108.45) scale(2.11229 4.03254)" gradientUnits="userSpaceOnUse" r="1" cy="0" cx="0" id="paint30_radial_0_1015">
<stop stop-color="#CFCFCF"/>
<stop stop-opacity="0.9025" stop-color="#C5C5C5" offset="0.02"/>
<stop stop-opacity="0.49" stop-color="#919191" offset="0.15"/>
<stop stop-opacity="0.2401" stop-color="#656565" offset="0.28"/>
<stop stop-opacity="0.0961" stop-color="#404040" offset="0.4"/>
<stop stop-opacity="0.0324" stop-color="#242424" offset="0.53"/>
<stop stop-opacity="0.01" stop-color="#101010" offset="0.66"/>
<stop stop-opacity="0.01" stop-color="#040404" offset="0.79"/>
<stop stop-opacity="0" offset="0.91"/>
</radialGradient>
<radialGradient gradientTransform="translate(-139.537 -491.35) rotate(-108.45) scale(2.11229 4.03254)" gradientUnits="userSpaceOnUse" r="1" cy="0" cx="0" id="paint31_radial_0_1015">
<stop stop-color="#CFCFCF"/>
<stop stop-opacity="0.9025" stop-color="#C5C5C5" offset="0.02"/>
<stop stop-opacity="0.49" stop-color="#919191" offset="0.15"/>
<stop stop-opacity="0.2401" stop-color="#656565" offset="0.28"/>
<stop stop-opacity="0.0961" stop-color="#404040" offset="0.4"/>
<stop stop-opacity="0.0324" stop-color="#242424" offset="0.53"/>
<stop stop-opacity="0.01" stop-color="#101010" offset="0.66"/>
<stop stop-opacity="0.01" stop-color="#040404" offset="0.79"/>
<stop stop-opacity="0" offset="0.91"/>
</radialGradient>
<radialGradient gradientTransform="translate(-142.758 -492.53) rotate(-108.45) scale(2.11229 4.03254)" gradientUnits="userSpaceOnUse" r="1" cy="0" cx="0" id="paint32_radial_0_1015">
<stop stop-color="#CFCFCF"/>
<stop stop-opacity="0.9025" stop-color="#C5C5C5" offset="0.02"/>
<stop stop-opacity="0.49" stop-color="#919191" offset="0.15"/>
<stop stop-opacity="0.2401" stop-color="#656565" offset="0.28"/>
<stop stop-opacity="0.0961" stop-color="#404040" offset="0.4"/>
<stop stop-opacity="0.0324" stop-color="#242424" offset="0.53"/>
<stop stop-opacity="0.01" stop-color="#101010" offset="0.66"/>
<stop stop-opacity="0.01" stop-color="#040404" offset="0.79"/>
<stop stop-opacity="0" offset="0.91"/>
</radialGradient>
<radialGradient gradientTransform="translate(18.7472 14.7796) rotate(-1.45639) scale(4.31278 4.32186)" gradientUnits="userSpaceOnUse" r="1" cy="0" cx="0" id="paint33_radial_0_1015">
<stop stop-color="#F0B2EE"/>
<stop stop-opacity="0" stop-color="#250023" offset="1"/>
</radialGradient>
<radialGradient gradientTransform="translate(35.9222 4.83872) rotate(-1.45639) scale(4.31278 4.32186)" gradientUnits="userSpaceOnUse" r="1" cy="0" cx="0" id="paint34_radial_0_1015">
<stop stop-color="#F0B2EE"/>
<stop stop-opacity="0" stop-color="#250023" offset="1"/>
</radialGradient>
<radialGradient gradientTransform="translate(53.0972 14.7796) rotate(-1.45639) scale(4.31278 4.32186)" gradientUnits="userSpaceOnUse" r="1" cy="0" cx="0" id="paint35_radial_0_1015">
<stop stop-color="#F0B2EE"/>
<stop stop-opacity="0" stop-color="#250023" offset="1"/>
</radialGradient>
<radialGradient gradientTransform="translate(53.8131 35.6102) rotate(-1.45639) scale(4.31278 4.32186)" gradientUnits="userSpaceOnUse" r="1" cy="0" cx="0" id="paint36_radial_0_1015">
<stop stop-color="#F0B2EE"/>
<stop stop-opacity="0" stop-color="#250023" offset="1"/>
</radialGradient>
<radialGradient gradientTransform="translate(18.0314 35.6102) rotate(-1.45639) scale(4.31278 4.32186)" gradientUnits="userSpaceOnUse" r="1" cy="0" cx="0" id="paint37_radial_0_1015">
<stop stop-color="#FFEBFE"/>
<stop stop-opacity="0" stop-color="#250023" offset="1"/>
</radialGradient>
<radialGradient gradientTransform="translate(17.0834 36.1881) rotate(-1.45639) scale(1.63865 1.6421)" gradientUnits="userSpaceOnUse" r="1" cy="0" cx="0" id="paint38_radial_0_1015">
<stop stop-color="#FFEBFE"/>
<stop stop-opacity="0" stop-color="#250023" offset="1"/>
</radialGradient>
<radialGradient gradientTransform="translate(54.2959 36.1881) rotate(-1.45639) scale(1.63865 1.6421)" gradientUnits="userSpaceOnUse" r="1" cy="0" cx="0" id="paint39_radial_0_1015">
<stop stop-color="#FFEBFE"/>
<stop stop-opacity="0" stop-color="#250023" offset="1"/>
</radialGradient>
<radialGradient gradientTransform="translate(35.8487 46.4246) rotate(-177.941) scale(7.42786 7.42786)" gradientUnits="userSpaceOnUse" r="1" cy="0" cx="0" id="paint40_radial_0_1015">
<stop stop-color="#FFE6FF"/>
<stop stop-opacity="0" stop-color="#370136" offset="1"/>
</radialGradient>
<radialGradient gradientTransform="translate(255.946 24.9433) rotate(180) scale(7.0906)" gradientUnits="userSpaceOnUse" r="1" cy="0" cx="0" id="paint41_radial_0_1015">
<stop stop-color="white"/>
<stop stop-opacity="0" offset="1"/>
</radialGradient>
<radialGradient gradientTransform="translate(35.9083 24.8696) rotate(1.17656) scale(8.62061 5.49784)" gradientUnits="userSpaceOnUse" r="1" cy="0" cx="0" id="paint42_radial_0_1015">
<stop stop-color="#FFE6FF"/>
<stop stop-opacity="0" stop-color="#250025" offset="1"/>
</radialGradient>
<linearGradient gradientUnits="userSpaceOnUse" y2="8.88699" x2="26.4759" y1="9.53123" x1="26.8505" id="paint43_linear_0_1015">
<stop stop-color="#FDF3F3" offset="0.09"/>
<stop stop-opacity="0.7744" stop-color="#F8E7F3" offset="0.1"/>
<stop stop-opacity="0.5476" stop-color="#F3D9F3" offset="0.11"/>
<stop stop-opacity="0.3025" stop-color="#EBC5F4" offset="0.12"/>
<stop stop-opacity="0.09" stop-color="#E1ACF5" offset="0.13"/>
<stop stop-opacity="0" stop-color="#D68EF6" offset="0.15"/>
<stop stop-opacity="0" stop-color="#541854" offset="0.23"/>
<stop stop-opacity="0" stop-color="#401240" offset="0.31"/>
<stop stop-opacity="0" offset="1"/>
</linearGradient>
<linearGradient gradientUnits="userSpaceOnUse" y2="20.364" x2="44.549" y1="19.9122" x1="44.2868" id="paint44_linear_0_1015">
<stop stop-color="#FDF3F3" offset="0.09"/>
<stop stop-opacity="0.7744" stop-color="#F8E7F3" offset="0.1"/>
<stop stop-opacity="0.5476" stop-color="#F3D9F3" offset="0.11"/>
<stop stop-opacity="0.3025" stop-color="#EBC5F4" offset="0.12"/>
<stop stop-opacity="0.09" stop-color="#E1ACF5" offset="0.13"/>
<stop stop-opacity="0" stop-color="#D68EF6" offset="0.15"/>
<stop stop-opacity="0" stop-color="#541854" offset="0.23"/>
<stop stop-opacity="0" stop-color="#401240" offset="0.31"/>
<stop stop-opacity="0" offset="1"/>
</linearGradient>
</defs>
</svg>