<svg width="439" height="344" viewBox="0 0 439 344" fill="none" xmlns="http://www.w3.org/2000/svg">
<path fill-rule="evenodd" clip-rule="evenodd" d="M53.9993 109.675L91.4765 131.324L128.999 109.675C127.944 109.064 92.5359 88.6354 91.4765 88.0252C68.9686 101.043 77.6177 96.0471 53.9993 109.675Z" stroke="url(#paint0_linear_0_531)" stroke-width="0.1" stroke-miterlimit="10"/>
<g clip-path="url(#clip0_0_531)">
<path style="mix-blend-mode:color-dodge" d="M112.85 100.502C124.397 107.169 134.06 112.047 134.435 111.399C134.808 110.751 125.752 104.821 114.205 98.154C102.658 91.487 92.9952 86.6091 92.62 87.2572C92.2466 87.9053 101.303 93.8351 112.85 100.502Z" fill="url(#paint1_radial_0_531)"/>
<path style="mix-blend-mode:color-dodge" d="M112.85 100.502C124.397 107.169 134.06 112.047 134.435 111.399C134.808 110.751 125.752 104.821 114.205 98.154C102.658 91.487 92.9952 86.6091 92.62 87.2572C92.2466 87.9053 101.303 93.8351 112.85 100.502Z" fill="url(#paint2_radial_0_531)"/>
<path style="mix-blend-mode:color-dodge" d="M112.85 100.502C124.397 107.169 134.06 112.047 134.435 111.399C134.808 110.751 125.752 104.821 114.205 98.154C102.658 91.487 92.9952 86.6091 92.62 87.2572C92.2466 87.9053 101.303 93.8351 112.85 100.502Z" fill="url(#paint3_radial_0_531)"/>
<path style="mix-blend-mode:color-dodge" d="M112.85 100.502C124.397 107.169 134.06 112.047 134.435 111.399C134.808 110.751 125.752 104.821 114.205 98.154C102.658 91.487 92.9952 86.6091 92.62 87.2572C92.2466 87.9053 101.303 93.8351 112.85 100.502Z" fill="url(#paint4_radial_0_531)"/>
<path style="mix-blend-mode:color-dodge" d="M112.85 100.502C124.397 107.169 134.06 112.047 134.435 111.399C134.808 110.751 125.752 104.821 114.205 98.154C102.658 91.487 92.9952 86.6091 92.62 87.2572C92.2466 87.9053 101.303 93.8351 112.85 100.502Z" fill="url(#paint5_radial_0_531)"/>
<path style="mix-blend-mode:color-dodge" d="M112.85 100.502C124.397 107.169 134.06 112.047 134.435 111.399C134.808 110.751 125.752 104.821 114.205 98.154C102.658 91.487 92.9952 86.6091 92.62 87.2572C92.2466 87.9053 101.303 93.8351 112.85 100.502Z" fill="url(#paint6_radial_0_531)"/>
</g>
<g clip-path="url(#clip1_0_531)">
<path style="mix-blend-mode:color-dodge" d="M69.739 100.502C58.1923 107.169 48.5292 112.047 48.154 111.399C47.7806 110.751 56.8373 104.821 68.384 98.154C79.9308 91.487 89.5939 86.6091 89.9691 87.2572C90.3424 87.9053 81.2858 93.8351 69.739 100.502Z" fill="url(#paint7_radial_0_531)"/>
<path style="mix-blend-mode:color-dodge" d="M69.739 100.502C58.1923 107.169 48.5292 112.047 48.154 111.399C47.7806 110.751 56.8373 104.821 68.384 98.154C79.9308 91.487 89.5939 86.6091 89.9691 87.2572C90.3424 87.9053 81.2858 93.8351 69.739 100.502Z" fill="url(#paint8_radial_0_531)"/>
<path style="mix-blend-mode:color-dodge" d="M69.739 100.502C58.1923 107.169 48.5292 112.047 48.154 111.399C47.7806 110.751 56.8373 104.821 68.384 98.154C79.9308 91.487 89.5939 86.6091 89.9691 87.2572C90.3424 87.9053 81.2858 93.8351 69.739 100.502Z" fill="url(#paint9_radial_0_531)"/>
<path style="mix-blend-mode:color-dodge" d="M69.739 100.502C58.1923 107.169 48.5292 112.047 48.154 111.399C47.7806 110.751 56.8373 104.821 68.384 98.154C79.9308 91.487 89.5939 86.6091 89.9691 87.2572C90.3424 87.9053 81.2858 93.8351 69.739 100.502Z" fill="url(#paint10_radial_0_531)"/>
<path style="mix-blend-mode:color-dodge" d="M69.739 100.502C58.1923 107.169 48.5292 112.047 48.154 111.399C47.7806 110.751 56.8373 104.821 68.384 98.154C79.9308 91.487 89.5939 86.6091 89.9691 87.2572C90.3424 87.9053 81.2858 93.8351 69.739 100.502Z" fill="url(#paint11_radial_0_531)"/>
<path style="mix-blend-mode:color-dodge" d="M69.739 100.502C58.1923 107.169 48.5292 112.047 48.154 111.399C47.7806 110.751 56.8373 104.821 68.384 98.154C79.9308 91.487 89.5939 86.6091 89.9691 87.2572C90.3424 87.9053 81.2858 93.8351 69.739 100.502Z" fill="url(#paint12_radial_0_531)"/>
</g>
<path fill-rule="evenodd" clip-rule="evenodd" d="M56.9455 67.1L90.9737 86.7577C91.3793 86.9908 91.8777 86.9927 92.2832 86.7577L126.353 67.1C127.227 66.5959 127.229 65.3376 126.355 64.8335C119.425 60.8348 96.5169 47.6166 92.2813 45.1738C91.8758 44.9407 91.3793 44.9426 90.9737 45.1757C70.4196 57.0636 77.3897 53.0384 56.9474 64.8335C56.0738 65.3376 56.0719 66.5978 56.9455 67.1019V67.1Z" fill="url(#paint13_linear_0_531)"/>
<path fill-rule="evenodd" clip-rule="evenodd" d="M89.9908 88.0672L55.9626 68.4095C55.0889 67.9054 53.9993 68.5346 53.9993 69.5428C53.9993 78.5501 53.9993 110.814 53.9993 109.614C75.374 121.948 68.0779 117.731 88.6794 129.647C89.553 130.151 90.6446 129.522 90.6446 128.514V89.2005C90.6446 88.7324 90.3944 88.3003 89.9908 88.0672Z" fill="url(#paint14_linear_0_531)"/>
<path fill-rule="evenodd" clip-rule="evenodd" d="M92.2827 89.2003V128.516C92.2827 129.524 93.3724 130.155 94.2441 129.651C102.056 125.144 129.982 109.03 128.972 109.614V69.5406C128.972 68.5324 127.88 67.9033 127.008 68.4074L92.9365 88.067C92.531 88.3001 92.2808 88.7341 92.2808 89.2003H92.2827Z" fill="url(#paint15_linear_0_531)"/>
<path fill-rule="evenodd" clip-rule="evenodd" d="M56.9465 67.1L90.9747 86.7577C91.3803 86.9908 91.8787 86.9927 92.2842 86.7577L126.354 67.1C127.228 66.5959 127.23 65.3376 126.356 64.8335C119.426 60.8348 96.5178 47.6166 92.2823 45.1738C91.8768 44.9407 91.3803 44.9426 90.9747 45.1757C70.4206 57.0636 77.3907 53.0384 56.9484 64.8335C56.0748 65.3376 56.0729 66.5978 56.9465 67.1019V67.1Z" fill="url(#paint16_linear_0_531)"/>
<path fill-rule="evenodd" clip-rule="evenodd" d="M56.9456 67.1L90.9738 86.7577C91.3793 86.9908 91.8778 86.9927 92.2833 86.7577L126.353 67.1C127.227 66.5959 127.229 65.3376 126.355 64.8335C119.425 60.8348 96.5169 47.6166 92.2814 45.1738C91.8759 44.9407 91.3793 44.9426 90.9738 45.1757C70.4197 57.0636 77.3898 53.0384 56.9475 64.8335C56.0739 65.3376 56.072 66.5978 56.9456 67.1019V67.1Z" stroke="#80D3FF" stroke-width="0.2" stroke-miterlimit="10"/>
<path fill-rule="evenodd" clip-rule="evenodd" d="M89.9908 88.0672L55.9626 68.4095C55.0889 67.9054 53.9993 68.5346 53.9993 69.5428C53.9993 78.5501 53.9993 110.814 53.9993 109.614C75.374 121.948 68.0779 117.731 88.6794 129.647C89.553 130.151 90.6446 129.522 90.6446 128.514V89.2005C90.6446 88.7324 90.3944 88.3003 89.9908 88.0672Z" stroke="#80D3FF" stroke-width="0.2" stroke-miterlimit="10"/>
<path fill-rule="evenodd" clip-rule="evenodd" d="M92.2827 89.2003V128.516C92.2827 129.524 93.3724 130.155 94.2441 129.651C102.056 125.144 129.982 109.03 128.972 109.614V69.5406C128.972 68.5324 127.88 67.9033 127.008 68.4074L92.9365 88.067C92.531 88.3001 92.2808 88.7341 92.2808 89.2003H92.2827Z" stroke="#80D3FF" stroke-width="0.2" stroke-miterlimit="10"/>
<path fill-rule="evenodd" clip-rule="evenodd" d="M188.999 109.675L226.477 131.324L263.999 109.675C262.944 109.064 227.536 88.6353 226.477 88.0251C203.969 101.042 212.618 96.047 188.999 109.675Z" stroke="url(#paint17_linear_0_531)" stroke-width="0.1" stroke-miterlimit="10"/>
<g clip-path="url(#clip2_0_531)">
<path style="mix-blend-mode:color-dodge" d="M247.85 100.502C259.397 107.169 269.06 112.047 269.435 111.399C269.808 110.75 260.752 104.821 249.205 98.1538C237.658 91.4869 227.995 86.609 227.62 87.2571C227.247 87.9052 236.303 93.8349 247.85 100.502Z" fill="url(#paint18_radial_0_531)"/>
<path style="mix-blend-mode:color-dodge" d="M247.85 100.502C259.397 107.169 269.06 112.047 269.435 111.399C269.808 110.75 260.752 104.821 249.205 98.1538C237.658 91.4869 227.995 86.609 227.62 87.2571C227.247 87.9052 236.303 93.8349 247.85 100.502Z" fill="url(#paint19_radial_0_531)"/>
<path style="mix-blend-mode:color-dodge" d="M247.85 100.502C259.397 107.169 269.06 112.047 269.435 111.399C269.808 110.75 260.752 104.821 249.205 98.1538C237.658 91.4869 227.995 86.609 227.62 87.2571C227.247 87.9052 236.303 93.8349 247.85 100.502Z" fill="url(#paint20_radial_0_531)"/>
<path style="mix-blend-mode:color-dodge" d="M247.85 100.502C259.397 107.169 269.06 112.047 269.435 111.399C269.808 110.75 260.752 104.821 249.205 98.1538C237.658 91.4869 227.995 86.609 227.62 87.2571C227.247 87.9052 236.303 93.8349 247.85 100.502Z" fill="url(#paint21_radial_0_531)"/>
<path style="mix-blend-mode:color-dodge" d="M247.85 100.502C259.397 107.169 269.06 112.047 269.435 111.399C269.808 110.75 260.752 104.821 249.205 98.1538C237.658 91.4869 227.995 86.609 227.62 87.2571C227.247 87.9052 236.303 93.8349 247.85 100.502Z" fill="url(#paint22_radial_0_531)"/>
<path style="mix-blend-mode:color-dodge" d="M247.85 100.502C259.397 107.169 269.06 112.047 269.435 111.399C269.808 110.75 260.752 104.821 249.205 98.1538C237.658 91.4869 227.995 86.609 227.62 87.2571C227.247 87.9052 236.303 93.8349 247.85 100.502Z" fill="url(#paint23_radial_0_531)"/>
</g>
<g clip-path="url(#clip3_0_531)">
<path style="mix-blend-mode:color-dodge" d="M204.739 100.502C193.192 107.169 183.529 112.047 183.154 111.399C182.781 110.75 191.837 104.821 203.384 98.1538C214.931 91.4869 224.594 86.609 224.969 87.2571C225.342 87.9052 216.286 93.8349 204.739 100.502Z" fill="url(#paint24_radial_0_531)"/>
<path style="mix-blend-mode:color-dodge" d="M204.739 100.502C193.192 107.169 183.529 112.047 183.154 111.399C182.781 110.75 191.837 104.821 203.384 98.1538C214.931 91.4869 224.594 86.609 224.969 87.2571C225.342 87.9052 216.286 93.8349 204.739 100.502Z" fill="url(#paint25_radial_0_531)"/>
<path style="mix-blend-mode:color-dodge" d="M204.739 100.502C193.192 107.169 183.529 112.047 183.154 111.399C182.781 110.75 191.837 104.821 203.384 98.1538C214.931 91.4869 224.594 86.609 224.969 87.2571C225.342 87.9052 216.286 93.8349 204.739 100.502Z" fill="url(#paint26_radial_0_531)"/>
<path style="mix-blend-mode:color-dodge" d="M204.739 100.502C193.192 107.169 183.529 112.047 183.154 111.399C182.781 110.75 191.837 104.821 203.384 98.1538C214.931 91.4869 224.594 86.609 224.969 87.2571C225.342 87.9052 216.286 93.8349 204.739 100.502Z" fill="url(#paint27_radial_0_531)"/>
<path style="mix-blend-mode:color-dodge" d="M204.739 100.502C193.192 107.169 183.529 112.047 183.154 111.399C182.781 110.75 191.837 104.821 203.384 98.1538C214.931 91.4869 224.594 86.609 224.969 87.2571C225.342 87.9052 216.286 93.8349 204.739 100.502Z" fill="url(#paint28_radial_0_531)"/>
<path style="mix-blend-mode:color-dodge" d="M204.739 100.502C193.192 107.169 183.529 112.047 183.154 111.399C182.781 110.75 191.837 104.821 203.384 98.1538C214.931 91.4869 224.594 86.609 224.969 87.2571C225.342 87.9052 216.286 93.8349 204.739 100.502Z" fill="url(#paint29_radial_0_531)"/>
</g>
<path fill-rule="evenodd" clip-rule="evenodd" d="M191.946 67.0999L225.974 86.7576C226.379 86.9907 226.878 86.9926 227.283 86.7576L261.353 67.0999C262.227 66.5958 262.229 65.3374 261.355 64.8333C254.425 60.8347 231.517 47.6165 227.281 45.1737C226.876 44.9406 226.379 44.9425 225.974 45.1756C205.42 57.0635 212.39 53.0383 191.947 64.8333C191.074 65.3374 191.072 66.5977 191.946 67.1018V67.0999Z" fill="url(#paint30_linear_0_531)"/>
<path fill-rule="evenodd" clip-rule="evenodd" d="M224.991 88.0671L190.963 68.4094C190.089 67.9053 188.999 68.5345 188.999 69.5426C188.999 78.55 188.999 110.814 188.999 109.614C210.374 121.948 203.078 117.731 223.679 129.647C224.553 130.151 225.645 129.522 225.645 128.514V89.2004C225.645 88.7323 225.394 88.3002 224.991 88.0671Z" fill="url(#paint31_linear_0_531)"/>
<path fill-rule="evenodd" clip-rule="evenodd" d="M227.283 89.2001V128.516C227.283 129.524 228.372 130.155 229.244 129.651C237.056 125.144 264.982 109.03 263.972 109.614V69.5405C263.972 68.5323 262.88 67.9031 262.008 68.4072L227.936 88.0669C227.531 88.3 227.281 88.7339 227.281 89.2001H227.283Z" fill="url(#paint32_linear_0_531)"/>
<path fill-rule="evenodd" clip-rule="evenodd" d="M191.946 67.0999L225.975 86.7576C226.38 86.9907 226.879 86.9926 227.284 86.7576L261.354 67.0999C262.228 66.5958 262.23 65.3374 261.356 64.8333C254.426 60.8347 231.518 47.6165 227.282 45.1737C226.877 44.9406 226.38 44.9425 225.975 45.1756C205.421 57.0635 212.391 53.0383 191.948 64.8333C191.075 65.3374 191.073 66.5977 191.946 67.1018V67.0999Z" fill="url(#paint33_linear_0_531)"/>
<path fill-rule="evenodd" clip-rule="evenodd" d="M191.946 67.0999L225.974 86.7576C226.379 86.9907 226.878 86.9926 227.283 86.7576L261.353 67.0999C262.227 66.5958 262.229 65.3374 261.355 64.8333C254.425 60.8347 231.517 47.6165 227.281 45.1737C226.876 44.9406 226.379 44.9425 225.974 45.1756C205.42 57.0635 212.39 53.0383 191.947 64.8333C191.074 65.3374 191.072 66.5977 191.946 67.1018V67.0999Z" stroke="#585858" stroke-width="0.2" stroke-miterlimit="10"/>
<path fill-rule="evenodd" clip-rule="evenodd" d="M224.991 88.0671L190.963 68.4094C190.089 67.9053 188.999 68.5345 188.999 69.5426C188.999 78.55 188.999 110.814 188.999 109.614C210.374 121.948 203.078 117.731 223.679 129.647C224.553 130.151 225.645 129.522 225.645 128.514V89.2004C225.645 88.7323 225.394 88.3002 224.991 88.0671Z" stroke="#585858" stroke-width="0.2" stroke-miterlimit="10"/>
<path fill-rule="evenodd" clip-rule="evenodd" d="M227.283 89.2001V128.516C227.283 129.524 228.372 130.155 229.244 129.651C237.056 125.144 264.982 109.03 263.972 109.614V69.5405C263.972 68.5323 262.88 67.9031 262.008 68.4072L227.936 88.0669C227.531 88.3 227.281 88.7339 227.281 89.2001H227.283Z" stroke="#585858" stroke-width="0.2" stroke-miterlimit="10"/>
<path fill-rule="evenodd" clip-rule="evenodd" d="M324.999 109.675L362.476 131.324L399.999 109.675C398.944 109.064 363.536 88.6353 362.476 88.0251C339.969 101.042 348.618 96.047 324.999 109.675Z" stroke="url(#paint34_linear_0_531)" stroke-width="0.1" stroke-miterlimit="10"/>
<g clip-path="url(#clip4_0_531)">
<path style="mix-blend-mode:color-dodge" d="M383.85 100.502C395.397 107.169 405.06 112.047 405.436 111.398C405.809 110.75 396.752 104.821 385.205 98.1536C373.659 91.4867 363.996 86.6087 363.62 87.2569C363.247 87.905 372.304 93.8347 383.85 100.502Z" fill="url(#paint35_radial_0_531)"/>
<path style="mix-blend-mode:color-dodge" d="M383.85 100.502C395.397 107.169 405.06 112.047 405.436 111.398C405.809 110.75 396.752 104.821 385.205 98.1536C373.659 91.4867 363.996 86.6087 363.62 87.2569C363.247 87.905 372.304 93.8347 383.85 100.502Z" fill="url(#paint36_radial_0_531)"/>
<path style="mix-blend-mode:color-dodge" d="M383.85 100.502C395.397 107.169 405.06 112.047 405.436 111.398C405.809 110.75 396.752 104.821 385.205 98.1536C373.659 91.4867 363.996 86.6087 363.62 87.2569C363.247 87.905 372.304 93.8347 383.85 100.502Z" fill="url(#paint37_radial_0_531)"/>
<path style="mix-blend-mode:color-dodge" d="M383.85 100.502C395.397 107.169 405.06 112.047 405.436 111.398C405.809 110.75 396.752 104.821 385.205 98.1536C373.659 91.4867 363.996 86.6087 363.62 87.2569C363.247 87.905 372.304 93.8347 383.85 100.502Z" fill="url(#paint38_radial_0_531)"/>
<path style="mix-blend-mode:color-dodge" d="M383.85 100.502C395.397 107.169 405.06 112.047 405.436 111.398C405.809 110.75 396.752 104.821 385.205 98.1536C373.659 91.4867 363.996 86.6087 363.62 87.2569C363.247 87.905 372.304 93.8347 383.85 100.502Z" fill="url(#paint39_radial_0_531)"/>
<path style="mix-blend-mode:color-dodge" d="M383.85 100.502C395.397 107.169 405.06 112.047 405.436 111.398C405.809 110.75 396.752 104.821 385.205 98.1536C373.659 91.4867 363.996 86.6087 363.62 87.2569C363.247 87.905 372.304 93.8347 383.85 100.502Z" fill="url(#paint40_radial_0_531)"/>
</g>
<g clip-path="url(#clip5_0_531)">
<path style="mix-blend-mode:color-dodge" d="M340.739 100.502C329.193 107.169 319.53 112.047 319.154 111.398C318.781 110.75 327.838 104.821 339.384 98.1536C350.931 91.4867 360.594 86.6087 360.969 87.2569C361.343 87.905 352.286 93.8347 340.739 100.502Z" fill="url(#paint41_radial_0_531)"/>
<path style="mix-blend-mode:color-dodge" d="M340.739 100.502C329.193 107.169 319.53 112.047 319.154 111.398C318.781 110.75 327.838 104.821 339.384 98.1536C350.931 91.4867 360.594 86.6087 360.969 87.2569C361.343 87.905 352.286 93.8347 340.739 100.502Z" fill="url(#paint42_radial_0_531)"/>
<path style="mix-blend-mode:color-dodge" d="M340.739 100.502C329.193 107.169 319.53 112.047 319.154 111.398C318.781 110.75 327.838 104.821 339.384 98.1536C350.931 91.4867 360.594 86.6087 360.969 87.2569C361.343 87.905 352.286 93.8347 340.739 100.502Z" fill="url(#paint43_radial_0_531)"/>
<path style="mix-blend-mode:color-dodge" d="M340.739 100.502C329.193 107.169 319.53 112.047 319.154 111.398C318.781 110.75 327.838 104.821 339.384 98.1536C350.931 91.4867 360.594 86.6087 360.969 87.2569C361.343 87.905 352.286 93.8347 340.739 100.502Z" fill="url(#paint44_radial_0_531)"/>
<path style="mix-blend-mode:color-dodge" d="M340.739 100.502C329.193 107.169 319.53 112.047 319.154 111.398C318.781 110.75 327.838 104.821 339.384 98.1536C350.931 91.4867 360.594 86.6087 360.969 87.2569C361.343 87.905 352.286 93.8347 340.739 100.502Z" fill="url(#paint45_radial_0_531)"/>
<path style="mix-blend-mode:color-dodge" d="M340.739 100.502C329.193 107.169 319.53 112.047 319.154 111.398C318.781 110.75 327.838 104.821 339.384 98.1536C350.931 91.4867 360.594 86.6087 360.969 87.2569C361.343 87.905 352.286 93.8347 340.739 100.502Z" fill="url(#paint46_radial_0_531)"/>
</g>
<path fill-rule="evenodd" clip-rule="evenodd" d="M327.945 67.0999L361.973 86.7576C362.379 86.9907 362.877 86.9926 363.283 86.7576L397.353 67.0999C398.226 66.5958 398.228 65.3375 397.355 64.8334C390.424 60.8347 367.516 47.6165 363.281 45.1737C362.875 44.9406 362.379 44.9425 361.973 45.1756C341.419 57.0635 348.389 53.0383 327.947 64.8334C327.073 65.3375 327.072 66.5977 327.945 67.1018V67.0999Z" fill="url(#paint47_linear_0_531)"/>
<path fill-rule="evenodd" clip-rule="evenodd" d="M360.991 88.0669L326.963 68.4092C326.089 67.9051 324.999 68.5343 324.999 69.5424C324.999 78.5498 324.999 110.814 324.999 109.614C346.374 121.947 339.078 117.731 359.679 129.647C360.553 130.151 361.645 129.522 361.645 128.514V89.2002C361.645 88.7321 361.394 88.3 360.991 88.0669Z" fill="url(#paint48_linear_0_531)"/>
<path fill-rule="evenodd" clip-rule="evenodd" d="M363.283 89.1999V128.515C363.283 129.524 364.373 130.155 365.244 129.651C373.056 125.144 400.982 109.03 399.972 109.614V69.5403C399.972 68.5321 398.88 67.9029 398.009 68.407L363.937 88.0667C363.531 88.2997 363.281 88.7337 363.281 89.1999H363.283Z" fill="url(#paint49_linear_0_531)"/>
<path fill-rule="evenodd" clip-rule="evenodd" d="M327.946 67.0999L361.974 86.7576C362.38 86.9907 362.878 86.9926 363.284 86.7576L397.354 67.0999C398.227 66.5958 398.229 65.3375 397.355 64.8334C390.425 60.8347 367.517 47.6165 363.282 45.1737C362.876 44.9406 362.38 44.9425 361.974 45.1756C341.42 57.0635 348.39 53.0383 327.948 64.8334C327.074 65.3375 327.072 66.5977 327.946 67.1018V67.0999Z" fill="url(#paint50_linear_0_531)"/>
<path fill-rule="evenodd" clip-rule="evenodd" d="M327.945 67.0999L361.973 86.7576C362.379 86.9907 362.877 86.9926 363.283 86.7576L397.353 67.0999C398.226 66.5958 398.228 65.3375 397.355 64.8334C390.424 60.8347 367.516 47.6165 363.281 45.1737C362.875 44.9406 362.379 44.9425 361.973 45.1756C341.419 57.0635 348.389 53.0383 327.947 64.8334C327.073 65.3375 327.072 66.5977 327.945 67.1018V67.0999Z" stroke="#585858" stroke-width="0.2" stroke-miterlimit="10"/>
<path fill-rule="evenodd" clip-rule="evenodd" d="M360.991 88.0669L326.963 68.4092C326.089 67.9051 324.999 68.5343 324.999 69.5424C324.999 78.5498 324.999 110.814 324.999 109.614C346.374 121.947 339.078 117.731 359.679 129.647C360.553 130.151 361.645 129.522 361.645 128.514V89.2002C361.645 88.7321 361.394 88.3 360.991 88.0669Z" stroke="#585858" stroke-width="0.2" stroke-miterlimit="10"/>
<path fill-rule="evenodd" clip-rule="evenodd" d="M363.283 89.1999V128.515C363.283 129.524 364.373 130.155 365.244 129.651C373.056 125.144 400.982 109.03 399.972 109.614V69.5403C399.972 68.5321 398.88 67.9029 398.009 68.407L363.937 88.0667C363.531 88.2997 363.281 88.7337 363.281 89.1999H363.283Z" stroke="#585858" stroke-width="0.2" stroke-miterlimit="10"/>
<g filter="url(#filter0_ddd_0_531)">
<path d="M91.3679 168C49.2656 168 15 133.69 15 91.4999C15 86.7635 18.8235 82.9333 23.5518 82.9333C28.2801 82.9333 32.1036 86.7635 32.1036 91.4999C32.1036 124.231 58.693 150.867 91.3679 150.867C124.043 150.867 150.632 124.231 150.632 91.4999C150.632 86.7635 154.456 82.9333 159.184 82.9333C163.912 82.9333 167.736 86.7635 167.736 91.4999C167.736 133.69 133.47 168 91.3679 168Z" fill="url(#paint51_linear_0_531)"/>
</g>
<g filter="url(#filter1_ddd_0_531)">
<path d="M294.816 100.067C290.088 100.067 286.264 96.2365 286.264 91.5C286.264 58.7686 259.675 32.1332 227 32.1332C194.325 32.1332 167.736 58.7686 167.736 91.5C167.736 96.2365 163.912 100.067 159.184 100.067C154.456 100.067 150.632 96.2365 150.632 91.5C150.632 49.3249 184.883 15 227 15C269.117 15 303.368 49.3249 303.368 91.5C303.368 96.2365 299.545 100.067 294.816 100.067Z" fill="#626262"/>
</g>
<path d="M362.632 168C320.515 168 286.264 133.675 286.264 91.4999C286.264 86.7635 290.088 82.9333 294.816 82.9333C299.544 82.9333 303.368 86.7635 303.368 91.4999C303.368 124.231 329.957 150.867 362.632 150.867C395.307 150.867 421.896 124.231 421.896 91.4999C421.896 86.7635 425.72 82.9333 430.448 82.9333C435.176 82.9333 439 86.7635 439 91.4999C439 133.69 404.734 168 362.632 168Z" fill="#626262"/>
<path d="M362 221L362 201" stroke="#303030" stroke-miterlimit="10"/>
<path d="M407.008 281.734C407.008 307.653 385.088 328.463 358.771 326.628C336.16 325.049 318.039 306.425 317.045 283.78C316.274 266.419 325.358 251.103 339.165 242.955C349.243 237.016 357.368 228.271 361.916 217.491C361.951 217.412 362.065 217.413 362.099 217.493L362.103 217.503C366.604 228.165 374.542 236.98 384.55 242.791C397.971 250.566 407.008 265.086 407.008 281.734Z" fill="url(#paint52_linear_0_531)"/>
<g filter="url(#filter2_d_0_531)">
<path d="M329.216 281.734C329.216 299.839 343.893 314.516 361.998 314.516C380.102 314.516 394.779 299.839 394.779 281.734C394.779 263.629 380.102 248.952 361.998 248.952C343.893 248.952 329.216 263.629 329.216 281.734Z" fill="#18191B"/>
</g>
<path d="M351.669 192.365C352.597 198.069 357.973 201.941 363.677 201.013C369.38 200.085 373.252 194.709 372.324 189.005C371.396 183.301 366.02 179.429 360.316 180.357C354.612 181.285 350.741 186.661 351.669 192.365Z" stroke="#303030" stroke-miterlimit="10"/>
<g filter="url(#filter3_ddd_0_531)">
<path d="M362.056 195.957C364.967 195.957 367.329 193.595 367.329 190.684C367.329 187.773 364.967 185.412 362.056 185.412C359.145 185.412 356.783 187.773 356.783 190.684C356.783 193.595 359.145 195.957 362.056 195.957Z" fill="url(#paint53_linear_0_531)"/>
<path d="M366.829 190.684C366.829 193.319 364.691 195.457 362.056 195.457C359.421 195.457 357.283 193.319 357.283 190.684C357.283 188.049 359.421 185.912 362.056 185.912C364.691 185.912 366.829 188.049 366.829 190.684Z" stroke="url(#paint54_linear_0_531)"/>
</g>
<path d="M226 220L226 201" stroke="#303030" stroke-miterlimit="10"/>
<path d="M271.009 281.734C271.009 307.653 249.088 328.463 222.771 326.628C200.161 325.049 182.04 306.425 181.046 283.78C180.274 266.419 189.358 251.103 203.165 242.955C213.243 237.016 221.368 228.271 225.916 217.491C225.952 217.412 226.065 217.413 226.099 217.493L226.103 217.503C230.604 228.165 238.542 236.98 248.55 242.791C261.983 250.577 271.009 265.098 271.009 281.746L271.009 281.734Z" fill="url(#paint55_linear_0_531)"/>
<g filter="url(#filter4_d_0_531)">
<path d="M193.228 281.734C193.228 299.839 207.905 314.516 226.01 314.516C244.114 314.516 258.791 299.839 258.791 281.734C258.791 263.629 244.114 248.952 226.01 248.952C207.905 248.952 193.228 263.629 193.228 281.734Z" fill="#18191B"/>
</g>
<path fill-rule="evenodd" clip-rule="evenodd" d="M239.937 279.909C240.108 279.803 240.212 279.605 240.208 279.394C240.205 279.183 240.094 278.99 239.919 278.891L226.202 271.069C226.04 270.977 225.847 270.977 225.686 271.069L212.056 278.842C211.881 278.941 211.771 279.133 211.766 279.344C211.763 279.555 211.865 279.752 212.036 279.859C215.876 282.27 220.738 283.716 226.027 283.716C231.277 283.716 236.109 282.29 239.937 279.909ZM238.517 279.414L225.944 272.245L213.453 279.368C216.994 281.371 221.337 282.549 226.027 282.549C230.679 282.549 234.991 281.39 238.517 279.414Z" fill="#7A7A7A"/>
<path fill-rule="evenodd" clip-rule="evenodd" d="M212.59 278.854C212.464 278.774 212.313 278.753 212.172 278.793C212.03 278.833 211.91 278.932 211.837 279.068C210.889 280.842 210.545 282.616 211.887 284.391C211.928 284.445 211.978 284.491 212.035 284.527C215.875 286.938 220.737 288.384 226.026 288.384C231.276 288.384 236.108 286.958 239.936 284.577L240.003 284.528C240.812 283.835 241.047 282.861 240.992 281.901C240.917 280.59 240.283 279.327 240.103 279.062C239.938 278.82 239.628 278.751 239.385 278.902C235.709 281.189 231.068 282.55 226.026 282.55C220.948 282.55 216.277 281.169 212.59 278.854ZM212.532 280.162C212.019 281.3 211.864 282.438 212.678 283.576C216.352 285.858 220.989 287.217 226.026 287.217C231.05 287.217 235.677 285.865 239.347 283.592C239.826 283.164 239.934 282.557 239.901 281.972C239.862 281.296 239.639 280.634 239.45 280.203C235.703 282.407 231.057 283.717 226.026 283.717C220.963 283.717 216.29 282.392 212.532 280.162Z" fill="#7A7A7A"/>
<path fill-rule="evenodd" clip-rule="evenodd" d="M230.541 289.694C229.563 290.995 227.859 291.151 226.556 290.533C225.496 290.031 224.726 289.03 224.76 287.783C224.769 287.461 225.021 287.208 225.323 287.217C225.625 287.227 225.863 287.496 225.853 287.818C225.833 288.581 226.351 289.159 227 289.467C228.027 289.954 229.446 289.786 229.984 288.428C230.066 288.221 230.253 288.083 230.464 288.073C230.674 288.063 230.872 288.183 230.971 288.382C231.39 289.225 232.238 289.47 233.013 289.309C233.805 289.145 234.546 288.566 234.713 287.685C234.753 287.468 234.906 287.295 235.106 287.237C235.306 287.18 235.52 287.247 235.658 287.413C236.09 287.933 236.785 287.939 237.379 287.69C237.941 287.456 238.437 286.984 238.571 286.377C238.657 285.993 238.58 285.561 238.296 285.113C238.127 284.847 238.192 284.484 238.443 284.303C238.693 284.123 239.033 284.193 239.202 284.46C239.691 285.23 239.783 285.983 239.636 286.646C239.422 287.611 238.673 288.403 237.779 288.776C237.027 289.092 236.191 289.107 235.506 288.737C235.047 289.642 234.17 290.258 233.222 290.454C232.268 290.652 231.257 290.429 230.541 289.694Z" fill="#7A7A7A"/>
<path fill-rule="evenodd" clip-rule="evenodd" d="M212.678 288.242C213.399 288.689 214.156 289.101 214.946 289.474C215.222 289.605 215.347 289.949 215.225 290.244C215.102 290.539 214.779 290.672 214.503 290.541C213.641 290.134 212.817 289.683 212.035 289.192C211.978 289.156 211.928 289.11 211.887 289.056C210.545 287.281 210.889 285.507 211.837 283.733C211.91 283.597 212.03 283.498 212.172 283.458C212.313 283.418 212.464 283.439 212.59 283.519C216.277 285.834 220.948 287.215 226.026 287.215C231.068 287.215 235.709 285.854 239.385 283.567C239.628 283.416 239.938 283.485 240.103 283.728C240.283 283.992 240.917 285.255 240.992 286.566C241.047 287.526 240.812 288.5 240.003 289.193L239.936 289.242C236.108 291.624 231.276 293.049 226.026 293.049C223.572 293.049 221.209 292.738 218.998 292.163C218.705 292.087 218.525 291.771 218.596 291.459C218.668 291.145 218.964 290.953 219.258 291.03C221.387 291.583 223.662 291.882 226.026 291.882C231.05 291.882 235.677 290.53 239.347 288.257C239.826 287.829 239.934 287.222 239.901 286.637C239.862 285.961 239.639 285.299 239.45 284.868C235.703 287.073 231.057 288.382 226.026 288.382C220.963 288.382 216.29 287.057 212.532 284.827C212.019 285.966 211.864 287.103 212.678 288.242Z" fill="#7A7A7A"/>
<path fill-rule="evenodd" clip-rule="evenodd" d="M213.192 285.199C213.253 285.264 213.297 285.382 213.35 285.526C213.431 285.746 213.506 286.018 213.582 286.325C213.827 287.326 214.063 288.671 214.392 289.868C214.627 290.728 214.913 291.514 215.269 292.076C215.56 292.535 215.905 292.857 216.292 293.012C216.656 293.158 217.138 293.133 217.698 292.926C218.351 292.685 219.144 292.193 219.97 291.608C221.142 290.777 222.39 289.755 223.391 289.067C223.761 288.813 224.094 288.606 224.371 288.482C224.495 288.427 224.598 288.385 224.685 288.384C224.987 288.378 225.228 288.112 225.223 287.79C225.217 287.468 224.968 287.211 224.666 287.217C224.34 287.223 223.862 287.411 223.301 287.758C222.229 288.419 220.744 289.658 219.365 290.636C218.626 291.16 217.923 291.608 217.339 291.824C217.074 291.922 216.85 291.989 216.677 291.92C216.416 291.815 216.223 291.536 216.041 291.188C215.803 290.734 215.61 290.158 215.442 289.541C215.06 288.147 214.803 286.554 214.51 285.539C214.351 284.985 214.158 284.579 213.966 284.374C213.752 284.146 213.405 284.146 213.192 284.374C212.979 284.601 212.979 284.971 213.192 285.199Z" fill="#7A7A7A"/>
<path fill-rule="evenodd" clip-rule="evenodd" d="M218.329 280.334H218.876C219.178 280.334 219.423 280.073 219.423 279.751C219.423 279.429 219.178 279.168 218.876 279.168H218.329C218.027 279.168 217.782 279.429 217.782 279.751C217.782 280.073 218.027 280.334 218.329 280.334Z" fill="#7A7A7A"/>
<path fill-rule="evenodd" clip-rule="evenodd" d="M221.611 278.001H222.158C222.459 278.001 222.705 277.74 222.705 277.418C222.705 277.096 222.459 276.835 222.158 276.835H221.611C221.309 276.835 221.064 277.096 221.064 277.418C221.064 277.74 221.309 278.001 221.611 278.001Z" fill="#7A7A7A"/>
<path fill-rule="evenodd" clip-rule="evenodd" d="M223.799 281.503H224.346C224.648 281.503 224.893 281.242 224.893 280.92C224.893 280.598 224.648 280.336 224.346 280.336H223.799C223.498 280.336 223.253 280.598 223.253 280.92C223.253 281.242 223.498 281.503 223.799 281.503Z" fill="#7A7A7A"/>
<path fill-rule="evenodd" clip-rule="evenodd" d="M225.986 276.251H226.533C226.835 276.251 227.08 275.99 227.08 275.668C227.08 275.346 226.835 275.084 226.533 275.084H225.986C225.684 275.084 225.439 275.346 225.439 275.668C225.439 275.99 225.684 276.251 225.986 276.251Z" fill="#7A7A7A"/>
<path fill-rule="evenodd" clip-rule="evenodd" d="M228.175 279.168H228.721C229.023 279.168 229.268 278.907 229.268 278.585C229.268 278.263 229.023 278.002 228.721 278.002H228.175C227.873 278.002 227.628 278.263 227.628 278.585C227.628 278.907 227.873 279.168 228.175 279.168Z" fill="#7A7A7A"/>
<path fill-rule="evenodd" clip-rule="evenodd" d="M233.098 279.752H233.645C233.947 279.752 234.192 279.491 234.192 279.168C234.192 278.846 233.947 278.585 233.645 278.585H233.098C232.796 278.585 232.551 278.846 232.551 279.168C232.551 279.491 232.796 279.752 233.098 279.752Z" fill="#7A7A7A"/>
<g clip-path="url(#clip6_0_531)">
<path d="M363.884 275.339L365.197 278.957C365.667 280.253 366.307 281.271 367.27 282.258L372.263 287.375C373.011 288.142 373.009 289.376 372.259 290.126C371.499 290.885 370.264 290.885 369.504 290.126L363.441 284.063C363.226 283.847 362.945 283.772 362.652 283.851L359.684 284.646C359.461 284.706 359.317 284.894 359.317 285.125V289.313C359.317 290.387 358.443 291.26 357.369 291.26C356.295 291.26 355.421 290.387 355.421 289.313V284.378C355.421 282.906 355.489 282.217 357.091 281.323L358.301 280.647C358.854 280.339 358.834 280.198 358.746 279.956L357.726 277.145C357.511 276.551 356.984 276.182 356.353 276.182H351.973C350.867 276.182 350.27 275.337 350.27 274.542C350.27 273.732 350.871 272.912 352.02 272.912H360.421C361.989 272.912 363.348 273.865 363.884 275.339H363.884ZM351.207 274.542C351.207 274.892 351.444 275.245 351.973 275.245H359.177C359.436 275.245 359.645 275.455 359.645 275.714C359.645 275.973 359.436 276.182 359.177 276.182H358.259C358.403 276.373 358.522 276.589 358.607 276.825L359.628 279.636C360.034 280.754 359.107 281.271 358.758 281.466L357.548 282.141C356.359 282.805 356.359 283.076 356.359 284.378V289.313C356.359 289.87 356.812 290.323 357.369 290.323C357.926 290.323 358.379 289.87 358.379 289.313V285.125C358.379 284.467 358.806 283.911 359.442 283.74L362.409 282.945C362.568 282.903 362.726 282.882 362.881 282.882C363.336 282.882 363.765 283.06 364.104 283.4L370.167 289.463C370.561 289.857 371.202 289.857 371.596 289.463C371.985 289.074 371.983 288.431 371.592 288.03L366.599 282.913C365.538 281.826 364.834 280.705 364.316 279.277L363.003 275.659C362.597 274.543 361.608 273.85 360.421 273.85H352.02C351.421 273.85 351.207 274.207 351.207 274.542L351.207 274.542ZM358.729 272.642C357.222 272.642 355.996 271.416 355.996 269.909C355.996 268.402 357.222 267.176 358.729 267.176C360.236 267.176 361.462 268.402 361.462 269.909C361.462 271.416 360.236 272.642 358.729 272.642ZM358.729 268.113C357.739 268.113 356.933 268.919 356.933 269.909C356.933 270.899 357.739 271.704 358.729 271.704C359.719 271.704 360.524 270.899 360.524 269.909C360.524 268.919 359.719 268.113 358.729 268.113ZM347.532 292.972L351.031 290.591C351.278 290.422 351.596 290.404 351.86 290.544C352.125 290.684 352.289 290.957 352.289 291.256V291.86H366.26C366.675 291.86 367.012 292.197 367.012 292.611V294.663C367.012 295.078 366.675 295.415 366.26 295.415H352.289V296.019C352.289 296.318 352.125 296.591 351.86 296.731C351.742 296.793 351.613 296.824 351.484 296.824C351.325 296.824 351.167 296.777 351.031 296.684L347.532 294.303C347.311 294.153 347.18 293.904 347.18 293.637C347.18 293.371 347.311 293.122 347.532 292.972V292.972ZM351.351 295.768V294.946C351.351 294.687 351.561 294.477 351.82 294.477H366.075V292.797H351.82C351.561 292.797 351.351 292.587 351.351 292.328V291.506L348.22 293.637L351.351 295.768ZM366.955 278.242C366.696 278.242 366.487 278.452 366.487 278.711C366.487 278.97 366.696 279.18 366.955 279.18H369.377C369.635 279.18 369.845 278.97 369.845 278.711C369.845 278.452 369.635 278.242 369.377 278.242H366.955ZM364.801 273.774H367.223C367.482 273.774 367.691 273.564 367.691 273.305C367.691 273.047 367.482 272.837 367.223 272.837H364.801C364.543 272.837 364.333 273.047 364.333 273.305C364.333 273.564 364.543 273.774 364.801 273.774ZM370.141 270.152C370.141 269.893 369.931 269.683 369.672 269.683H363.169C362.91 269.683 362.7 269.893 362.7 270.152C362.7 270.411 362.91 270.621 363.169 270.621H369.672C369.931 270.621 370.141 270.411 370.141 270.152ZM375.249 285.264C375.249 285.005 375.039 284.795 374.78 284.795H372.1C371.841 284.795 371.631 285.005 371.631 285.264C371.631 285.522 371.841 285.732 372.1 285.732H374.78C375.039 285.732 375.249 285.522 375.249 285.264ZM373.926 289.872H376.351C376.61 289.872 376.82 289.662 376.82 289.403C376.82 289.144 376.61 288.934 376.351 288.934H373.926C373.667 288.934 373.457 289.144 373.457 289.403C373.457 289.662 373.667 289.872 373.926 289.872ZM368.061 293.637C368.061 293.896 368.271 294.106 368.53 294.106H375.034C375.293 294.106 375.502 293.896 375.502 293.637C375.502 293.378 375.293 293.169 375.034 293.169H368.53C368.271 293.169 368.061 293.378 368.061 293.637ZM372.594 275.456C372.594 275.198 372.384 274.988 372.125 274.988H367.367C367.108 274.988 366.898 275.198 366.898 275.456C366.898 275.715 367.108 275.925 367.367 275.925H372.125C372.384 275.925 372.594 275.715 372.594 275.456ZM373.343 282.033C373.343 281.774 373.133 281.564 372.874 281.564H369.468C369.209 281.564 368.999 281.774 368.999 282.033C368.999 282.292 369.209 282.502 369.468 282.502H372.874C373.133 282.502 373.343 282.292 373.343 282.033Z" fill="#7A7A7A"/>
</g>
<path d="M221.927 200.342C227.261 202.566 233.387 200.044 235.611 194.71C237.834 189.376 235.313 183.25 229.979 181.026C224.645 178.803 218.518 181.324 216.295 186.658C214.071 191.992 216.593 198.118 221.927 200.342Z" stroke="#303030" stroke-miterlimit="10"/>
<g filter="url(#filter5_ddd_0_531)">
<path d="M226.01 195.957C228.921 195.957 231.282 193.595 231.282 190.684C231.282 187.773 228.921 185.412 226.01 185.412C223.099 185.412 220.737 187.773 220.737 190.684C220.737 193.595 223.099 195.957 226.01 195.957Z" fill="url(#paint56_linear_0_531)"/>
<path d="M230.782 190.684C230.782 193.319 228.645 195.457 226.01 195.457C223.375 195.457 221.237 193.319 221.237 190.684C221.237 188.049 223.375 185.912 226.01 185.912C228.645 185.912 230.782 188.049 230.782 190.684Z" stroke="url(#paint57_linear_0_531)"/>
</g>
<path d="M89.9999 220L89.9999 201" stroke="#58B9ED" stroke-miterlimit="10"/>
<g filter="url(#filter6_ddd_0_531)">
<path d="M135.008 281.734C135.008 307.653 113.087 328.463 86.7709 326.628C64.1603 325.049 46.0392 306.425 45.0454 283.78C44.2738 266.419 53.3578 251.103 67.1649 242.955C77.2426 237.016 85.3679 228.271 89.9158 217.491C89.9512 217.412 90.0648 217.413 90.0987 217.493L90.1028 217.503C94.6039 228.165 102.542 236.98 112.55 242.791C125.983 250.577 135.008 265.098 135.008 281.746L135.008 281.734Z" fill="#58B9ED"/>
</g>
<g filter="url(#filter7_d_0_531)">
<path d="M57.2272 281.734C57.2272 299.839 71.9041 314.516 90.0089 314.516C108.114 314.516 122.791 299.839 122.791 281.734C122.791 263.629 108.114 248.952 90.0089 248.952C71.9041 248.952 57.2272 263.629 57.2272 281.734Z" fill="#18191B"/>
</g>
<g clip-path="url(#clip7_0_531)">
<path d="M88.1161 275.339L86.8028 278.957C86.3324 280.253 85.6931 281.271 84.73 282.258L79.7367 287.375C78.9888 288.142 78.9906 289.376 79.7407 290.126C80.5002 290.885 81.736 290.885 82.4954 290.126L88.5586 284.063C88.7738 283.847 89.0543 283.772 89.3481 283.851L92.3156 284.646C92.5388 284.706 92.6831 284.894 92.6831 285.125V289.313C92.6831 290.387 93.5569 291.26 94.6309 291.26C95.7049 291.26 96.5787 290.387 96.5787 289.313V284.378C96.5787 282.906 96.5111 282.217 94.9084 281.323L93.6982 280.647C93.1453 280.339 93.1655 280.198 93.2534 279.956L94.2738 277.145C94.4892 276.551 95.0153 276.182 95.6467 276.182H100.027C101.133 276.182 101.73 275.337 101.73 274.542C101.73 273.732 101.129 272.912 99.9794 272.912H91.5791C90.0106 272.912 88.6513 273.865 88.1161 275.339H88.1161ZM100.792 274.542C100.792 274.892 100.556 275.245 100.026 275.245H92.823C92.5642 275.245 92.3543 275.455 92.3543 275.714C92.3543 275.973 92.5642 276.182 92.823 276.182H93.7411C93.5964 276.373 93.4782 276.589 93.3924 276.825L92.372 279.636C91.966 280.754 92.8925 281.271 93.2413 281.466L94.4515 282.141C95.641 282.805 95.641 283.076 95.641 284.378V289.313C95.641 289.87 95.1878 290.323 94.6308 290.323C94.0737 290.323 93.6204 289.87 93.6204 289.313V285.125C93.6204 284.467 93.1935 283.911 92.5581 283.74L89.5907 282.945C89.432 282.903 89.2738 282.882 89.1183 282.882C88.6642 282.882 88.2347 283.06 87.8956 283.4L81.8323 289.463C81.4384 289.857 80.7974 289.857 80.4035 289.463C80.0144 289.074 80.0163 288.431 80.4075 288.03L85.4008 282.913C86.4616 281.826 87.1657 280.705 87.684 279.277L88.9972 275.659C89.4023 274.543 90.3916 273.85 91.579 273.85H99.9793C100.579 273.85 100.792 274.207 100.792 274.542L100.792 274.542ZM93.2709 272.642C94.7778 272.642 96.0037 271.416 96.0037 269.909C96.0037 268.402 94.7778 267.176 93.2709 267.176C91.764 267.176 90.5379 268.402 90.5379 269.909C90.5379 271.416 91.7639 272.642 93.2709 272.642ZM93.2709 268.113C94.2609 268.113 95.0662 268.919 95.0662 269.909C95.0662 270.899 94.2608 271.704 93.2709 271.704C92.2809 271.704 91.4754 270.899 91.4754 269.909C91.4754 268.919 92.2809 268.113 93.2709 268.113ZM104.468 292.972L100.969 290.591C100.722 290.422 100.404 290.404 100.139 290.544C99.8752 290.684 99.711 290.957 99.711 291.256V291.86H85.7395C85.3249 291.86 84.9876 292.197 84.9876 292.611V294.663C84.9876 295.078 85.3249 295.415 85.7395 295.415H99.711V296.019C99.711 296.318 99.8751 296.591 100.139 296.731C100.258 296.793 100.387 296.824 100.516 296.824C100.674 296.824 100.832 296.777 100.969 296.684L104.468 294.303C104.689 294.153 104.82 293.904 104.82 293.637C104.82 293.371 104.689 293.122 104.468 292.972V292.972ZM100.649 295.768V294.946C100.649 294.687 100.439 294.477 100.18 294.477H85.9251V292.797H100.18C100.439 292.797 100.649 292.587 100.649 292.328V291.506L103.78 293.637L100.649 295.768ZM85.0444 278.242C85.3032 278.242 85.5131 278.452 85.5131 278.711C85.5131 278.97 85.3032 279.18 85.0444 279.18H82.6231C82.3643 279.18 82.1544 278.97 82.1544 278.711C82.1544 278.452 82.3643 278.242 82.6231 278.242H85.0444ZM87.1983 273.774H84.7771C84.5182 273.774 84.3083 273.564 84.3083 273.305C84.3083 273.047 84.5182 272.837 84.7771 272.837H87.1983C87.4572 272.837 87.6671 273.047 87.6671 273.305C87.6671 273.564 87.4572 273.774 87.1983 273.774ZM81.8586 270.152C81.8586 269.893 82.0684 269.683 82.3273 269.683H88.8309C89.0897 269.683 89.2996 269.893 89.2996 270.152C89.2996 270.411 89.0897 270.621 88.8309 270.621H82.3273C82.0684 270.621 81.8586 270.411 81.8586 270.152ZM76.7508 285.264C76.7508 285.005 76.9607 284.795 77.2196 284.795H79.8997C80.1586 284.795 80.3685 285.005 80.3685 285.264C80.3685 285.522 80.1586 285.732 79.8997 285.732H77.2196C76.9607 285.732 76.7508 285.522 76.7508 285.264ZM78.0741 289.872H75.6486C75.3897 289.872 75.1798 289.662 75.1798 289.403C75.1798 289.144 75.3897 288.934 75.6486 288.934H78.0741C78.333 288.934 78.5429 289.144 78.5429 289.403C78.5429 289.662 78.333 289.872 78.0741 289.872ZM83.9383 293.637C83.9383 293.896 83.7284 294.106 83.4695 294.106H76.966C76.7071 294.106 76.4972 293.896 76.4972 293.637C76.4972 293.378 76.7071 293.169 76.966 293.169H83.4695C83.7284 293.169 83.9383 293.378 83.9383 293.637ZM79.406 275.456C79.406 275.198 79.6159 274.988 79.8748 274.988H84.6328C84.8917 274.988 85.1015 275.198 85.1015 275.456C85.1015 275.715 84.8917 275.925 84.6328 275.925H79.8748C79.6159 275.925 79.406 275.715 79.406 275.456ZM78.6565 282.033C78.6565 281.774 78.8664 281.564 79.1253 281.564H82.5319C82.7908 281.564 83.0007 281.774 83.0007 282.033C83.0007 282.292 82.7908 282.502 82.5319 282.502H79.1253C78.8664 282.502 78.6565 282.292 78.6565 282.033Z" fill="#58B9ED"/>
</g>
<path d="M87.2223 197.375C90.9157 198.915 95.158 197.169 96.6977 193.476C98.2374 189.782 96.4914 185.54 92.798 184C89.1046 182.461 84.8623 184.207 83.3226 187.9C81.7829 191.593 83.5289 195.836 87.2223 197.375Z" stroke="#58B9ED" stroke-miterlimit="10"/>
<g filter="url(#filter8_ddd_0_531)">
<path d="M90.009 195.957C92.9201 195.957 95.2817 193.595 95.2817 190.684C95.2817 187.773 92.9201 185.412 90.009 185.412C87.0979 185.412 84.7363 187.773 84.7363 190.684C84.7363 193.595 87.0979 195.957 90.009 195.957Z" fill="url(#paint58_linear_0_531)"/>
<path d="M94.7817 190.684C94.7817 193.319 92.6439 195.457 90.009 195.457C87.3741 195.457 85.2363 193.319 85.2363 190.684C85.2363 188.049 87.3741 185.912 90.009 185.912C92.6439 185.912 94.7817 188.049 94.7817 190.684Z" stroke="url(#paint59_linear_0_531)"/>
</g>
<path d="M236 191H351" stroke="#303030" stroke-miterlimit="10"/>
<path d="M100 191H215" stroke="#303030" stroke-miterlimit="10"/>
<defs>
<filter id="filter0_ddd_0_531" x="0" y="67.9333" width="182.736" height="117.067" filterUnits="userSpaceOnUse" color-interpolation-filters="sRGB">
<feFlood flood-opacity="0" result="BackgroundImageFix"/>
<feColorMatrix in="SourceAlpha" type="matrix" values="0 0 0 0 0 0 0 0 0 0 0 0 0 0 0 0 0 0 127 0" result="hardAlpha"/>
<feMorphology radius="5" operator="dilate" in="SourceAlpha" result="effect1_dropShadow_0_531"/>
<feOffset dy="2"/>
<feGaussianBlur stdDeviation="5"/>
<feColorMatrix type="matrix" values="0 0 0 0 0 0 0 0 0 0.366667 0 0 0 0 1 0 0 0 0.15 0"/>
<feBlend mode="screen" in2="BackgroundImageFix" result="effect1_dropShadow_0_531"/>
<feColorMatrix in="SourceAlpha" type="matrix" values="0 0 0 0 0 0 0 0 0 0 0 0 0 0 0 0 0 0 127 0" result="hardAlpha"/>
<feOffset dx="5" dy="5"/>
<feGaussianBlur stdDeviation="5"/>
<feColorMatrix type="matrix" values="0 0 0 0 0.0941176 0 0 0 0 0.117647 0 0 0 0 0.141176 0 0 0 1 0"/>
<feBlend mode="normal" in2="effect1_dropShadow_0_531" result="effect2_dropShadow_0_531"/>
<feColorMatrix in="SourceAlpha" type="matrix" values="0 0 0 0 0 0 0 0 0 0 0 0 0 0 0 0 0 0 127 0" result="hardAlpha"/>
<feOffset dx="-5" dy="-5"/>
<feGaussianBlur stdDeviation="5"/>
<feColorMatrix type="matrix" values="0 0 0 0 0.229825 0 0 0 0 0.243999 0 0 0 0 0.259945 0 0 0 0.35 0"/>
<feBlend mode="normal" in2="effect2_dropShadow_0_531" result="effect3_dropShadow_0_531"/>
<feBlend mode="normal" in="SourceGraphic" in2="effect3_dropShadow_0_531" result="shape"/>
</filter>
<filter id="filter1_ddd_0_531" x="135.632" y="0" width="182.736" height="117.067" filterUnits="userSpaceOnUse" color-interpolation-filters="sRGB">
<feFlood flood-opacity="0" result="BackgroundImageFix"/>
<feColorMatrix in="SourceAlpha" type="matrix" values="0 0 0 0 0 0 0 0 0 0 0 0 0 0 0 0 0 0 127 0" result="hardAlpha"/>
<feMorphology radius="5" operator="dilate" in="SourceAlpha" result="effect1_dropShadow_0_531"/>
<feOffset dy="2"/>
<feGaussianBlur stdDeviation="5"/>
<feColorMatrix type="matrix" values="0 0 0 0 0 0 0 0 0 0.366667 0 0 0 0 1 0 0 0 0.15 0"/>
<feBlend mode="screen" in2="BackgroundImageFix" result="effect1_dropShadow_0_531"/>
<feColorMatrix in="SourceAlpha" type="matrix" values="0 0 0 0 0 0 0 0 0 0 0 0 0 0 0 0 0 0 127 0" result="hardAlpha"/>
<feOffset dx="5" dy="5"/>
<feGaussianBlur stdDeviation="5"/>
<feColorMatrix type="matrix" values="0 0 0 0 0.0941176 0 0 0 0 0.117647 0 0 0 0 0.141176 0 0 0 1 0"/>
<feBlend mode="normal" in2="effect1_dropShadow_0_531" result="effect2_dropShadow_0_531"/>
<feColorMatrix in="SourceAlpha" type="matrix" values="0 0 0 0 0 0 0 0 0 0 0 0 0 0 0 0 0 0 127 0" result="hardAlpha"/>
<feOffset dx="-5" dy="-5"/>
<feGaussianBlur stdDeviation="5"/>
<feColorMatrix type="matrix" values="0 0 0 0 0.229825 0 0 0 0 0.243999 0 0 0 0 0.259945 0 0 0 0.35 0"/>
<feBlend mode="normal" in2="effect2_dropShadow_0_531" result="effect3_dropShadow_0_531"/>
<feBlend mode="normal" in="SourceGraphic" in2="effect3_dropShadow_0_531" result="shape"/>
</filter>
<filter id="filter2_d_0_531" x="323.216" y="242.952" width="85.5635" height="85.5635" filterUnits="userSpaceOnUse" color-interpolation-filters="sRGB">
<feFlood flood-opacity="0" result="BackgroundImageFix"/>
<feColorMatrix in="SourceAlpha" type="matrix" values="0 0 0 0 0 0 0 0 0 0 0 0 0 0 0 0 0 0 127 0" result="hardAlpha"/>
<feOffset dx="4" dy="4"/>
<feGaussianBlur stdDeviation="5"/>
<feColorMatrix type="matrix" values="0 0 0 0 0.0354329 0 0 0 0 0.0354329 0 0 0 0 0.0354329 0 0 0 0.75 0"/>
<feBlend mode="normal" in2="BackgroundImageFix" result="effect1_dropShadow_0_531"/>
<feBlend mode="normal" in="SourceGraphic" in2="effect1_dropShadow_0_531" result="shape"/>
</filter>
<filter id="filter3_ddd_0_531" x="341.783" y="170.412" width="40.5453" height="42.5453" filterUnits="userSpaceOnUse" color-interpolation-filters="sRGB">
<feFlood flood-opacity="0" result="BackgroundImageFix"/>
<feColorMatrix in="SourceAlpha" type="matrix" values="0 0 0 0 0 0 0 0 0 0 0 0 0 0 0 0 0 0 127 0" result="hardAlpha"/>
<feMorphology radius="5" operator="dilate" in="SourceAlpha" result="effect1_dropShadow_0_531"/>
<feOffset dy="2"/>
<feGaussianBlur stdDeviation="5"/>
<feColorMatrix type="matrix" values="0 0 0 0 0.690196 0 0 0 0 0.337255 0 0 0 0 1 0 0 0 0.15 0"/>
<feBlend mode="screen" in2="BackgroundImageFix" result="effect1_dropShadow_0_531"/>
<feColorMatrix in="SourceAlpha" type="matrix" values="0 0 0 0 0 0 0 0 0 0 0 0 0 0 0 0 0 0 127 0" result="hardAlpha"/>
<feOffset dx="5" dy="5"/>
<feGaussianBlur stdDeviation="5"/>
<feColorMatrix type="matrix" values="0 0 0 0 0.0941176 0 0 0 0 0.117647 0 0 0 0 0.141176 0 0 0 1 0"/>
<feBlend mode="normal" in2="effect1_dropShadow_0_531" result="effect2_dropShadow_0_531"/>
<feColorMatrix in="SourceAlpha" type="matrix" values="0 0 0 0 0 0 0 0 0 0 0 0 0 0 0 0 0 0 127 0" result="hardAlpha"/>
<feOffset dx="-5" dy="-5"/>
<feGaussianBlur stdDeviation="5"/>
<feColorMatrix type="matrix" values="0 0 0 0 0.229825 0 0 0 0 0.243999 0 0 0 0 0.259945 0 0 0 0.35 0"/>
<feBlend mode="normal" in2="effect2_dropShadow_0_531" result="effect3_dropShadow_0_531"/>
<feBlend mode="normal" in="SourceGraphic" in2="effect3_dropShadow_0_531" result="shape"/>
</filter>
<filter id="filter4_d_0_531" x="187.228" y="242.952" width="85.5635" height="85.5635" filterUnits="userSpaceOnUse" color-interpolation-filters="sRGB">
<feFlood flood-opacity="0" result="BackgroundImageFix"/>
<feColorMatrix in="SourceAlpha" type="matrix" values="0 0 0 0 0 0 0 0 0 0 0 0 0 0 0 0 0 0 127 0" result="hardAlpha"/>
<feOffset dx="4" dy="4"/>
<feGaussianBlur stdDeviation="5"/>
<feColorMatrix type="matrix" values="0 0 0 0 0.0354329 0 0 0 0 0.0354329 0 0 0 0 0.0354329 0 0 0 0.75 0"/>
<feBlend mode="normal" in2="BackgroundImageFix" result="effect1_dropShadow_0_531"/>
<feBlend mode="normal" in="SourceGraphic" in2="effect1_dropShadow_0_531" result="shape"/>
</filter>
<filter id="filter5_ddd_0_531" x="205.737" y="170.412" width="40.5453" height="42.5453" filterUnits="userSpaceOnUse" color-interpolation-filters="sRGB">
<feFlood flood-opacity="0" result="BackgroundImageFix"/>
<feColorMatrix in="SourceAlpha" type="matrix" values="0 0 0 0 0 0 0 0 0 0 0 0 0 0 0 0 0 0 127 0" result="hardAlpha"/>
<feMorphology radius="5" operator="dilate" in="SourceAlpha" result="effect1_dropShadow_0_531"/>
<feOffset dy="2"/>
<feGaussianBlur stdDeviation="5"/>
<feColorMatrix type="matrix" values="0 0 0 0 0.690196 0 0 0 0 0.337255 0 0 0 0 1 0 0 0 0.15 0"/>
<feBlend mode="screen" in2="BackgroundImageFix" result="effect1_dropShadow_0_531"/>
<feColorMatrix in="SourceAlpha" type="matrix" values="0 0 0 0 0 0 0 0 0 0 0 0 0 0 0 0 0 0 127 0" result="hardAlpha"/>
<feOffset dx="5" dy="5"/>
<feGaussianBlur stdDeviation="5"/>
<feColorMatrix type="matrix" values="0 0 0 0 0.0941176 0 0 0 0 0.117647 0 0 0 0 0.141176 0 0 0 1 0"/>
<feBlend mode="normal" in2="effect1_dropShadow_0_531" result="effect2_dropShadow_0_531"/>
<feColorMatrix in="SourceAlpha" type="matrix" values="0 0 0 0 0 0 0 0 0 0 0 0 0 0 0 0 0 0 127 0" result="hardAlpha"/>
<feOffset dx="-5" dy="-5"/>
<feGaussianBlur stdDeviation="5"/>
<feColorMatrix type="matrix" values="0 0 0 0 0.229825 0 0 0 0 0.243999 0 0 0 0 0.259945 0 0 0 0.35 0"/>
<feBlend mode="normal" in2="effect2_dropShadow_0_531" result="effect3_dropShadow_0_531"/>
<feBlend mode="normal" in="SourceGraphic" in2="effect3_dropShadow_0_531" result="shape"/>
</filter>
<filter id="filter6_ddd_0_531" x="29.9998" y="202.432" width="120.008" height="141.308" filterUnits="userSpaceOnUse" color-interpolation-filters="sRGB">
<feFlood flood-opacity="0" result="BackgroundImageFix"/>
<feColorMatrix in="SourceAlpha" type="matrix" values="0 0 0 0 0 0 0 0 0 0 0 0 0 0 0 0 0 0 127 0" result="hardAlpha"/>
<feMorphology radius="5" operator="dilate" in="SourceAlpha" result="effect1_dropShadow_0_531"/>
<feOffset dy="2"/>
<feGaussianBlur stdDeviation="5"/>
<feColorMatrix type="matrix" values="0 0 0 0 0 0 0 0 0 0.366667 0 0 0 0 1 0 0 0 0.15 0"/>
<feBlend mode="screen" in2="BackgroundImageFix" result="effect1_dropShadow_0_531"/>
<feColorMatrix in="SourceAlpha" type="matrix" values="0 0 0 0 0 0 0 0 0 0 0 0 0 0 0 0 0 0 127 0" result="hardAlpha"/>
<feOffset dx="5" dy="5"/>
<feGaussianBlur stdDeviation="5"/>
<feColorMatrix type="matrix" values="0 0 0 0 0.0941176 0 0 0 0 0.117647 0 0 0 0 0.141176 0 0 0 1 0"/>
<feBlend mode="normal" in2="effect1_dropShadow_0_531" result="effect2_dropShadow_0_531"/>
<feColorMatrix in="SourceAlpha" type="matrix" values="0 0 0 0 0 0 0 0 0 0 0 0 0 0 0 0 0 0 127 0" result="hardAlpha"/>
<feOffset dx="-5" dy="-5"/>
<feGaussianBlur stdDeviation="5"/>
<feColorMatrix type="matrix" values="0 0 0 0 0.229825 0 0 0 0 0.243999 0 0 0 0 0.259945 0 0 0 0.35 0"/>
<feBlend mode="normal" in2="effect2_dropShadow_0_531" result="effect3_dropShadow_0_531"/>
<feBlend mode="normal" in="SourceGraphic" in2="effect3_dropShadow_0_531" result="shape"/>
</filter>
<filter id="filter7_d_0_531" x="51.2272" y="242.952" width="85.5635" height="85.5635" filterUnits="userSpaceOnUse" color-interpolation-filters="sRGB">
<feFlood flood-opacity="0" result="BackgroundImageFix"/>
<feColorMatrix in="SourceAlpha" type="matrix" values="0 0 0 0 0 0 0 0 0 0 0 0 0 0 0 0 0 0 127 0" result="hardAlpha"/>
<feOffset dx="4" dy="4"/>
<feGaussianBlur stdDeviation="5"/>
<feColorMatrix type="matrix" values="0 0 0 0 0 0 0 0 0 0.223529 0 0 0 0 0.368627 0 0 0 0.75 0"/>
<feBlend mode="normal" in2="BackgroundImageFix" result="effect1_dropShadow_0_531"/>
<feBlend mode="normal" in="SourceGraphic" in2="effect1_dropShadow_0_531" result="shape"/>
</filter>
<filter id="filter8_ddd_0_531" x="69.7363" y="170.412" width="40.5453" height="42.5453" filterUnits="userSpaceOnUse" color-interpolation-filters="sRGB">
<feFlood flood-opacity="0" result="BackgroundImageFix"/>
<feColorMatrix in="SourceAlpha" type="matrix" values="0 0 0 0 0 0 0 0 0 0 0 0 0 0 0 0 0 0 127 0" result="hardAlpha"/>
<feMorphology radius="5" operator="dilate" in="SourceAlpha" result="effect1_dropShadow_0_531"/>
<feOffset dy="2"/>
<feGaussianBlur stdDeviation="5"/>
<feColorMatrix type="matrix" values="0 0 0 0 0 0 0 0 0 0.366667 0 0 0 0 1 0 0 0 0.15 0"/>
<feBlend mode="screen" in2="BackgroundImageFix" result="effect1_dropShadow_0_531"/>
<feColorMatrix in="SourceAlpha" type="matrix" values="0 0 0 0 0 0 0 0 0 0 0 0 0 0 0 0 0 0 127 0" result="hardAlpha"/>
<feOffset dx="5" dy="5"/>
<feGaussianBlur stdDeviation="5"/>
<feColorMatrix type="matrix" values="0 0 0 0 0.0941176 0 0 0 0 0.117647 0 0 0 0 0.141176 0 0 0 1 0"/>
<feBlend mode="normal" in2="effect1_dropShadow_0_531" result="effect2_dropShadow_0_531"/>
<feColorMatrix in="SourceAlpha" type="matrix" values="0 0 0 0 0 0 0 0 0 0 0 0 0 0 0 0 0 0 127 0" result="hardAlpha"/>
<feOffset dx="-5" dy="-5"/>
<feGaussianBlur stdDeviation="5"/>
<feColorMatrix type="matrix" values="0 0 0 0 0.229825 0 0 0 0 0.243999 0 0 0 0 0.259945 0 0 0 0.35 0"/>
<feBlend mode="normal" in2="effect2_dropShadow_0_531" result="effect3_dropShadow_0_531"/>
<feBlend mode="normal" in="SourceGraphic" in2="effect3_dropShadow_0_531" result="shape"/>
</filter>
<linearGradient id="paint0_linear_0_531" x1="91.4993" y1="131.379" x2="91.4993" y2="87.9702" gradientUnits="userSpaceOnUse">
<stop stop-color="#FFFBFF" stop-opacity="0"/>
<stop offset="0.48" stop-color="#FFFBFF"/>
<stop offset="0.89" stop-color="#FFFBFF" stop-opacity="0"/>
</linearGradient>
<radialGradient id="paint1_radial_0_531" cx="0" cy="0" r="1" gradientUnits="userSpaceOnUse" gradientTransform="translate(113.025 100.831) rotate(119.97) scale(1.28993 24.0787)">
<stop stop-color="#CFCFCF"/>
<stop offset="0.02" stop-color="#C5C5C5" stop-opacity="0.9025"/>
<stop offset="0.15" stop-color="#919191" stop-opacity="0.49"/>
<stop offset="0.28" stop-color="#656565" stop-opacity="0.2401"/>
<stop offset="0.4" stop-color="#404040" stop-opacity="0.0961"/>
<stop offset="0.53" stop-color="#242424" stop-opacity="0.0324"/>
<stop offset="0.66" stop-color="#101010" stop-opacity="0.01"/>
<stop offset="0.79" stop-color="#040404" stop-opacity="0.01"/>
<stop offset="0.91" stop-opacity="0"/>
</radialGradient>
<radialGradient id="paint2_radial_0_531" cx="0" cy="0" r="1" gradientUnits="userSpaceOnUse" gradientTransform="translate(113.025 100.831) rotate(119.97) scale(1.28993 24.0787)">
<stop stop-color="#CFCFCF"/>
<stop offset="0.02" stop-color="#C5C5C5" stop-opacity="0.9025"/>
<stop offset="0.15" stop-color="#919191" stop-opacity="0.49"/>
<stop offset="0.28" stop-color="#656565" stop-opacity="0.2401"/>
<stop offset="0.4" stop-color="#404040" stop-opacity="0.0961"/>
<stop offset="0.53" stop-color="#242424" stop-opacity="0.0324"/>
<stop offset="0.66" stop-color="#101010" stop-opacity="0.01"/>
<stop offset="0.79" stop-color="#040404" stop-opacity="0.01"/>
<stop offset="0.91" stop-opacity="0"/>
</radialGradient>
<radialGradient id="paint3_radial_0_531" cx="0" cy="0" r="1" gradientUnits="userSpaceOnUse" gradientTransform="translate(113.025 100.831) rotate(119.97) scale(1.28993 24.0787)">
<stop stop-color="#CFCFCF"/>
<stop offset="0.02" stop-color="#C5C5C5" stop-opacity="0.9025"/>
<stop offset="0.15" stop-color="#919191" stop-opacity="0.49"/>
<stop offset="0.28" stop-color="#656565" stop-opacity="0.2401"/>
<stop offset="0.4" stop-color="#404040" stop-opacity="0.0961"/>
<stop offset="0.53" stop-color="#242424" stop-opacity="0.0324"/>
<stop offset="0.66" stop-color="#101010" stop-opacity="0.01"/>
<stop offset="0.79" stop-color="#040404" stop-opacity="0.01"/>
<stop offset="0.91" stop-opacity="0"/>
</radialGradient>
<radialGradient id="paint4_radial_0_531" cx="0" cy="0" r="1" gradientUnits="userSpaceOnUse" gradientTransform="translate(113.025 100.831) rotate(119.97) scale(1.28993 24.0787)">
<stop stop-color="#CFCFCF"/>
<stop offset="0.02" stop-color="#C5C5C5" stop-opacity="0.9025"/>
<stop offset="0.15" stop-color="#919191" stop-opacity="0.49"/>
<stop offset="0.28" stop-color="#656565" stop-opacity="0.2401"/>
<stop offset="0.4" stop-color="#404040" stop-opacity="0.0961"/>
<stop offset="0.53" stop-color="#242424" stop-opacity="0.0324"/>
<stop offset="0.66" stop-color="#101010" stop-opacity="0.01"/>
<stop offset="0.79" stop-color="#040404" stop-opacity="0.01"/>
<stop offset="0.91" stop-opacity="0"/>
</radialGradient>
<radialGradient id="paint5_radial_0_531" cx="0" cy="0" r="1" gradientUnits="userSpaceOnUse" gradientTransform="translate(113.025 100.831) rotate(119.97) scale(1.28993 24.0787)">
<stop stop-color="#CFCFCF"/>
<stop offset="0.02" stop-color="#C5C5C5" stop-opacity="0.9025"/>
<stop offset="0.15" stop-color="#919191" stop-opacity="0.49"/>
<stop offset="0.28" stop-color="#656565" stop-opacity="0.2401"/>
<stop offset="0.4" stop-color="#404040" stop-opacity="0.0961"/>
<stop offset="0.53" stop-color="#242424" stop-opacity="0.0324"/>
<stop offset="0.66" stop-color="#101010" stop-opacity="0.01"/>
<stop offset="0.79" stop-color="#040404" stop-opacity="0.01"/>
<stop offset="0.91" stop-opacity="0"/>
</radialGradient>
<radialGradient id="paint6_radial_0_531" cx="0" cy="0" r="1" gradientUnits="userSpaceOnUse" gradientTransform="translate(113.025 100.831) rotate(119.97) scale(1.28993 24.0787)">
<stop stop-color="#CFCFCF"/>
<stop offset="0.02" stop-color="#C5C5C5" stop-opacity="0.9025"/>
<stop offset="0.15" stop-color="#919191" stop-opacity="0.49"/>
<stop offset="0.28" stop-color="#656565" stop-opacity="0.2401"/>
<stop offset="0.4" stop-color="#404040" stop-opacity="0.0961"/>
<stop offset="0.53" stop-color="#242424" stop-opacity="0.0324"/>
<stop offset="0.66" stop-color="#101010" stop-opacity="0.01"/>
<stop offset="0.79" stop-color="#040404" stop-opacity="0.01"/>
<stop offset="0.91" stop-opacity="0"/>
</radialGradient>
<radialGradient id="paint7_radial_0_531" cx="0" cy="0" r="1" gradientUnits="userSpaceOnUse" gradientTransform="translate(69.5645 100.831) rotate(60.03) scale(1.28993 24.0787)">
<stop stop-color="#CFCFCF"/>
<stop offset="0.02" stop-color="#C5C5C5" stop-opacity="0.9025"/>
<stop offset="0.15" stop-color="#919191" stop-opacity="0.49"/>
<stop offset="0.28" stop-color="#656565" stop-opacity="0.2401"/>
<stop offset="0.4" stop-color="#404040" stop-opacity="0.0961"/>
<stop offset="0.53" stop-color="#242424" stop-opacity="0.0324"/>
<stop offset="0.66" stop-color="#101010" stop-opacity="0.01"/>
<stop offset="0.79" stop-color="#040404" stop-opacity="0.01"/>
<stop offset="0.91" stop-opacity="0"/>
</radialGradient>
<radialGradient id="paint8_radial_0_531" cx="0" cy="0" r="1" gradientUnits="userSpaceOnUse" gradientTransform="translate(69.5645 100.831) rotate(60.03) scale(1.28993 24.0787)">
<stop stop-color="#CFCFCF"/>
<stop offset="0.02" stop-color="#C5C5C5" stop-opacity="0.9025"/>
<stop offset="0.15" stop-color="#919191" stop-opacity="0.49"/>
<stop offset="0.28" stop-color="#656565" stop-opacity="0.2401"/>
<stop offset="0.4" stop-color="#404040" stop-opacity="0.0961"/>
<stop offset="0.53" stop-color="#242424" stop-opacity="0.0324"/>
<stop offset="0.66" stop-color="#101010" stop-opacity="0.01"/>
<stop offset="0.79" stop-color="#040404" stop-opacity="0.01"/>
<stop offset="0.91" stop-opacity="0"/>
</radialGradient>
<radialGradient id="paint9_radial_0_531" cx="0" cy="0" r="1" gradientUnits="userSpaceOnUse" gradientTransform="translate(69.5645 100.831) rotate(60.03) scale(1.28993 24.0787)">
<stop stop-color="#CFCFCF"/>
<stop offset="0.02" stop-color="#C5C5C5" stop-opacity="0.9025"/>
<stop offset="0.15" stop-color="#919191" stop-opacity="0.49"/>
<stop offset="0.28" stop-color="#656565" stop-opacity="0.2401"/>
<stop offset="0.4" stop-color="#404040" stop-opacity="0.0961"/>
<stop offset="0.53" stop-color="#242424" stop-opacity="0.0324"/>
<stop offset="0.66" stop-color="#101010" stop-opacity="0.01"/>
<stop offset="0.79" stop-color="#040404" stop-opacity="0.01"/>
<stop offset="0.91" stop-opacity="0"/>
</radialGradient>
<radialGradient id="paint10_radial_0_531" cx="0" cy="0" r="1" gradientUnits="userSpaceOnUse" gradientTransform="translate(69.5645 100.831) rotate(60.03) scale(1.28993 24.0787)">
<stop stop-color="#CFCFCF"/>
<stop offset="0.02" stop-color="#C5C5C5" stop-opacity="0.9025"/>
<stop offset="0.15" stop-color="#919191" stop-opacity="0.49"/>
<stop offset="0.28" stop-color="#656565" stop-opacity="0.2401"/>
<stop offset="0.4" stop-color="#404040" stop-opacity="0.0961"/>
<stop offset="0.53" stop-color="#242424" stop-opacity="0.0324"/>
<stop offset="0.66" stop-color="#101010" stop-opacity="0.01"/>
<stop offset="0.79" stop-color="#040404" stop-opacity="0.01"/>
<stop offset="0.91" stop-opacity="0"/>
</radialGradient>
<radialGradient id="paint11_radial_0_531" cx="0" cy="0" r="1" gradientUnits="userSpaceOnUse" gradientTransform="translate(69.5645 100.831) rotate(60.03) scale(1.28993 24.0787)">
<stop stop-color="#CFCFCF"/>
<stop offset="0.02" stop-color="#C5C5C5" stop-opacity="0.9025"/>
<stop offset="0.15" stop-color="#919191" stop-opacity="0.49"/>
<stop offset="0.28" stop-color="#656565" stop-opacity="0.2401"/>
<stop offset="0.4" stop-color="#404040" stop-opacity="0.0961"/>
<stop offset="0.53" stop-color="#242424" stop-opacity="0.0324"/>
<stop offset="0.66" stop-color="#101010" stop-opacity="0.01"/>
<stop offset="0.79" stop-color="#040404" stop-opacity="0.01"/>
<stop offset="0.91" stop-opacity="0"/>
</radialGradient>
<radialGradient id="paint12_radial_0_531" cx="0" cy="0" r="1" gradientUnits="userSpaceOnUse" gradientTransform="translate(69.5645 100.831) rotate(60.03) scale(1.28993 24.0787)">
<stop stop-color="#CFCFCF"/>
<stop offset="0.02" stop-color="#C5C5C5" stop-opacity="0.9025"/>
<stop offset="0.15" stop-color="#919191" stop-opacity="0.49"/>
<stop offset="0.28" stop-color="#656565" stop-opacity="0.2401"/>
<stop offset="0.4" stop-color="#404040" stop-opacity="0.0961"/>
<stop offset="0.53" stop-color="#242424" stop-opacity="0.0324"/>
<stop offset="0.66" stop-color="#101010" stop-opacity="0.01"/>
<stop offset="0.79" stop-color="#040404" stop-opacity="0.01"/>
<stop offset="0.91" stop-opacity="0"/>
</radialGradient>
<linearGradient id="paint13_linear_0_531" x1="91.7507" y1="86.1494" x2="91.5195" y2="39.5454" gradientUnits="userSpaceOnUse">
<stop stop-color="#58B9ED" stop-opacity="0"/>
<stop offset="1" stop-color="#58B9ED" stop-opacity="0.8"/>
</linearGradient>
<linearGradient id="paint14_linear_0_531" x1="90.9459" y1="87.874" x2="55.6253" y2="109.029" gradientUnits="userSpaceOnUse">
<stop stop-color="#58B9ED" stop-opacity="0"/>
<stop offset="1" stop-color="#58B9ED" stop-opacity="0.9"/>
</linearGradient>
<linearGradient id="paint15_linear_0_531" x1="94.0603" y1="87.1403" x2="125.339" y2="109.588" gradientUnits="userSpaceOnUse">
<stop stop-color="#58B9ED" stop-opacity="0"/>
<stop offset="1" stop-color="#58B9ED" stop-opacity="0.9"/>
</linearGradient>
<linearGradient id="paint16_linear_0_531" x1="91.9084" y1="83.5116" x2="91.5205" y2="39.5454" gradientUnits="userSpaceOnUse">
<stop stop-color="#58B9ED" stop-opacity="0"/>
<stop offset="1" stop-color="#58B9ED" stop-opacity="0.6"/>
</linearGradient>
<linearGradient id="paint17_linear_0_531" x1="226.499" y1="131.379" x2="226.499" y2="87.9701" gradientUnits="userSpaceOnUse">
<stop stop-color="#FFFBFF" stop-opacity="0"/>
<stop offset="0.48" stop-color="#FFFBFF"/>
<stop offset="0.89" stop-color="#FFFBFF" stop-opacity="0"/>
</linearGradient>
<radialGradient id="paint18_radial_0_531" cx="0" cy="0" r="1" gradientUnits="userSpaceOnUse" gradientTransform="translate(248.025 100.831) rotate(119.97) scale(1.28993 24.0787)">
<stop stop-color="#CFCFCF"/>
<stop offset="0.02" stop-color="#C5C5C5" stop-opacity="0.9025"/>
<stop offset="0.15" stop-color="#919191" stop-opacity="0.49"/>
<stop offset="0.28" stop-color="#656565" stop-opacity="0.2401"/>
<stop offset="0.4" stop-color="#404040" stop-opacity="0.0961"/>
<stop offset="0.53" stop-color="#242424" stop-opacity="0.0324"/>
<stop offset="0.66" stop-color="#101010" stop-opacity="0.01"/>
<stop offset="0.79" stop-color="#040404" stop-opacity="0.01"/>
<stop offset="0.91" stop-opacity="0"/>
</radialGradient>
<radialGradient id="paint19_radial_0_531" cx="0" cy="0" r="1" gradientUnits="userSpaceOnUse" gradientTransform="translate(248.025 100.831) rotate(119.97) scale(1.28993 24.0787)">
<stop stop-color="#CFCFCF"/>
<stop offset="0.02" stop-color="#C5C5C5" stop-opacity="0.9025"/>
<stop offset="0.15" stop-color="#919191" stop-opacity="0.49"/>
<stop offset="0.28" stop-color="#656565" stop-opacity="0.2401"/>
<stop offset="0.4" stop-color="#404040" stop-opacity="0.0961"/>
<stop offset="0.53" stop-color="#242424" stop-opacity="0.0324"/>
<stop offset="0.66" stop-color="#101010" stop-opacity="0.01"/>
<stop offset="0.79" stop-color="#040404" stop-opacity="0.01"/>
<stop offset="0.91" stop-opacity="0"/>
</radialGradient>
<radialGradient id="paint20_radial_0_531" cx="0" cy="0" r="1" gradientUnits="userSpaceOnUse" gradientTransform="translate(248.025 100.831) rotate(119.97) scale(1.28993 24.0787)">
<stop stop-color="#CFCFCF"/>
<stop offset="0.02" stop-color="#C5C5C5" stop-opacity="0.9025"/>
<stop offset="0.15" stop-color="#919191" stop-opacity="0.49"/>
<stop offset="0.28" stop-color="#656565" stop-opacity="0.2401"/>
<stop offset="0.4" stop-color="#404040" stop-opacity="0.0961"/>
<stop offset="0.53" stop-color="#242424" stop-opacity="0.0324"/>
<stop offset="0.66" stop-color="#101010" stop-opacity="0.01"/>
<stop offset="0.79" stop-color="#040404" stop-opacity="0.01"/>
<stop offset="0.91" stop-opacity="0"/>
</radialGradient>
<radialGradient id="paint21_radial_0_531" cx="0" cy="0" r="1" gradientUnits="userSpaceOnUse" gradientTransform="translate(248.025 100.831) rotate(119.97) scale(1.28993 24.0787)">
<stop stop-color="#CFCFCF"/>
<stop offset="0.02" stop-color="#C5C5C5" stop-opacity="0.9025"/>
<stop offset="0.15" stop-color="#919191" stop-opacity="0.49"/>
<stop offset="0.28" stop-color="#656565" stop-opacity="0.2401"/>
<stop offset="0.4" stop-color="#404040" stop-opacity="0.0961"/>
<stop offset="0.53" stop-color="#242424" stop-opacity="0.0324"/>
<stop offset="0.66" stop-color="#101010" stop-opacity="0.01"/>
<stop offset="0.79" stop-color="#040404" stop-opacity="0.01"/>
<stop offset="0.91" stop-opacity="0"/>
</radialGradient>
<radialGradient id="paint22_radial_0_531" cx="0" cy="0" r="1" gradientUnits="userSpaceOnUse" gradientTransform="translate(248.025 100.831) rotate(119.97) scale(1.28993 24.0787)">
<stop stop-color="#CFCFCF"/>
<stop offset="0.02" stop-color="#C5C5C5" stop-opacity="0.9025"/>
<stop offset="0.15" stop-color="#919191" stop-opacity="0.49"/>
<stop offset="0.28" stop-color="#656565" stop-opacity="0.2401"/>
<stop offset="0.4" stop-color="#404040" stop-opacity="0.0961"/>
<stop offset="0.53" stop-color="#242424" stop-opacity="0.0324"/>
<stop offset="0.66" stop-color="#101010" stop-opacity="0.01"/>
<stop offset="0.79" stop-color="#040404" stop-opacity="0.01"/>
<stop offset="0.91" stop-opacity="0"/>
</radialGradient>
<radialGradient id="paint23_radial_0_531" cx="0" cy="0" r="1" gradientUnits="userSpaceOnUse" gradientTransform="translate(248.025 100.831) rotate(119.97) scale(1.28993 24.0787)">
<stop stop-color="#CFCFCF"/>
<stop offset="0.02" stop-color="#C5C5C5" stop-opacity="0.9025"/>
<stop offset="0.15" stop-color="#919191" stop-opacity="0.49"/>
<stop offset="0.28" stop-color="#656565" stop-opacity="0.2401"/>
<stop offset="0.4" stop-color="#404040" stop-opacity="0.0961"/>
<stop offset="0.53" stop-color="#242424" stop-opacity="0.0324"/>
<stop offset="0.66" stop-color="#101010" stop-opacity="0.01"/>
<stop offset="0.79" stop-color="#040404" stop-opacity="0.01"/>
<stop offset="0.91" stop-opacity="0"/>
</radialGradient>
<radialGradient id="paint24_radial_0_531" cx="0" cy="0" r="1" gradientUnits="userSpaceOnUse" gradientTransform="translate(204.564 100.831) rotate(60.03) scale(1.28993 24.0787)">
<stop stop-color="#CFCFCF"/>
<stop offset="0.02" stop-color="#C5C5C5" stop-opacity="0.9025"/>
<stop offset="0.15" stop-color="#919191" stop-opacity="0.49"/>
<stop offset="0.28" stop-color="#656565" stop-opacity="0.2401"/>
<stop offset="0.4" stop-color="#404040" stop-opacity="0.0961"/>
<stop offset="0.53" stop-color="#242424" stop-opacity="0.0324"/>
<stop offset="0.66" stop-color="#101010" stop-opacity="0.01"/>
<stop offset="0.79" stop-color="#040404" stop-opacity="0.01"/>
<stop offset="0.91" stop-opacity="0"/>
</radialGradient>
<radialGradient id="paint25_radial_0_531" cx="0" cy="0" r="1" gradientUnits="userSpaceOnUse" gradientTransform="translate(204.564 100.831) rotate(60.03) scale(1.28993 24.0787)">
<stop stop-color="#CFCFCF"/>
<stop offset="0.02" stop-color="#C5C5C5" stop-opacity="0.9025"/>
<stop offset="0.15" stop-color="#919191" stop-opacity="0.49"/>
<stop offset="0.28" stop-color="#656565" stop-opacity="0.2401"/>
<stop offset="0.4" stop-color="#404040" stop-opacity="0.0961"/>
<stop offset="0.53" stop-color="#242424" stop-opacity="0.0324"/>
<stop offset="0.66" stop-color="#101010" stop-opacity="0.01"/>
<stop offset="0.79" stop-color="#040404" stop-opacity="0.01"/>
<stop offset="0.91" stop-opacity="0"/>
</radialGradient>
<radialGradient id="paint26_radial_0_531" cx="0" cy="0" r="1" gradientUnits="userSpaceOnUse" gradientTransform="translate(204.564 100.831) rotate(60.03) scale(1.28993 24.0787)">
<stop stop-color="#CFCFCF"/>
<stop offset="0.02" stop-color="#C5C5C5" stop-opacity="0.9025"/>
<stop offset="0.15" stop-color="#919191" stop-opacity="0.49"/>
<stop offset="0.28" stop-color="#656565" stop-opacity="0.2401"/>
<stop offset="0.4" stop-color="#404040" stop-opacity="0.0961"/>
<stop offset="0.53" stop-color="#242424" stop-opacity="0.0324"/>
<stop offset="0.66" stop-color="#101010" stop-opacity="0.01"/>
<stop offset="0.79" stop-color="#040404" stop-opacity="0.01"/>
<stop offset="0.91" stop-opacity="0"/>
</radialGradient>
<radialGradient id="paint27_radial_0_531" cx="0" cy="0" r="1" gradientUnits="userSpaceOnUse" gradientTransform="translate(204.564 100.831) rotate(60.03) scale(1.28993 24.0787)">
<stop stop-color="#CFCFCF"/>
<stop offset="0.02" stop-color="#C5C5C5" stop-opacity="0.9025"/>
<stop offset="0.15" stop-color="#919191" stop-opacity="0.49"/>
<stop offset="0.28" stop-color="#656565" stop-opacity="0.2401"/>
<stop offset="0.4" stop-color="#404040" stop-opacity="0.0961"/>
<stop offset="0.53" stop-color="#242424" stop-opacity="0.0324"/>
<stop offset="0.66" stop-color="#101010" stop-opacity="0.01"/>
<stop offset="0.79" stop-color="#040404" stop-opacity="0.01"/>
<stop offset="0.91" stop-opacity="0"/>
</radialGradient>
<radialGradient id="paint28_radial_0_531" cx="0" cy="0" r="1" gradientUnits="userSpaceOnUse" gradientTransform="translate(204.564 100.831) rotate(60.03) scale(1.28993 24.0787)">
<stop stop-color="#CFCFCF"/>
<stop offset="0.02" stop-color="#C5C5C5" stop-opacity="0.9025"/>
<stop offset="0.15" stop-color="#919191" stop-opacity="0.49"/>
<stop offset="0.28" stop-color="#656565" stop-opacity="0.2401"/>
<stop offset="0.4" stop-color="#404040" stop-opacity="0.0961"/>
<stop offset="0.53" stop-color="#242424" stop-opacity="0.0324"/>
<stop offset="0.66" stop-color="#101010" stop-opacity="0.01"/>
<stop offset="0.79" stop-color="#040404" stop-opacity="0.01"/>
<stop offset="0.91" stop-opacity="0"/>
</radialGradient>
<radialGradient id="paint29_radial_0_531" cx="0" cy="0" r="1" gradientUnits="userSpaceOnUse" gradientTransform="translate(204.564 100.831) rotate(60.03) scale(1.28993 24.0787)">
<stop stop-color="#CFCFCF"/>
<stop offset="0.02" stop-color="#C5C5C5" stop-opacity="0.9025"/>
<stop offset="0.15" stop-color="#919191" stop-opacity="0.49"/>
<stop offset="0.28" stop-color="#656565" stop-opacity="0.2401"/>
<stop offset="0.4" stop-color="#404040" stop-opacity="0.0961"/>
<stop offset="0.53" stop-color="#242424" stop-opacity="0.0324"/>
<stop offset="0.66" stop-color="#101010" stop-opacity="0.01"/>
<stop offset="0.79" stop-color="#040404" stop-opacity="0.01"/>
<stop offset="0.91" stop-opacity="0"/>
</radialGradient>
<linearGradient id="paint30_linear_0_531" x1="226.751" y1="86.1493" x2="226.52" y2="39.5453" gradientUnits="userSpaceOnUse">
<stop stop-color="#383838" stop-opacity="0"/>
<stop offset="1" stop-color="#626262" stop-opacity="0.8"/>
</linearGradient>
<linearGradient id="paint31_linear_0_531" x1="225.946" y1="87.8738" x2="190.625" y2="109.029" gradientUnits="userSpaceOnUse">
<stop stop-color="#383838" stop-opacity="0"/>
<stop offset="1" stop-color="#626262" stop-opacity="0.9"/>
</linearGradient>
<linearGradient id="paint32_linear_0_531" x1="229.06" y1="87.1402" x2="260.339" y2="109.587" gradientUnits="userSpaceOnUse">
<stop stop-color="#383838" stop-opacity="0"/>
<stop offset="1" stop-color="#626262" stop-opacity="0.9"/>
</linearGradient>
<linearGradient id="paint33_linear_0_531" x1="226.908" y1="83.5115" x2="226.52" y2="39.5453" gradientUnits="userSpaceOnUse">
<stop stop-color="#383838" stop-opacity="0"/>
<stop offset="1" stop-color="#626262" stop-opacity="0.6"/>
</linearGradient>
<linearGradient id="paint34_linear_0_531" x1="362.499" y1="131.379" x2="362.499" y2="87.9702" gradientUnits="userSpaceOnUse">
<stop stop-color="#FFFBFF" stop-opacity="0"/>
<stop offset="0.48" stop-color="#FFFBFF"/>
<stop offset="0.89" stop-color="#FFFBFF" stop-opacity="0"/>
</linearGradient>
<radialGradient id="paint35_radial_0_531" cx="0" cy="0" r="1" gradientUnits="userSpaceOnUse" gradientTransform="translate(384.025 100.831) rotate(119.97) scale(1.28993 24.0787)">
<stop stop-color="#CFCFCF"/>
<stop offset="0.02" stop-color="#C5C5C5" stop-opacity="0.9025"/>
<stop offset="0.15" stop-color="#919191" stop-opacity="0.49"/>
<stop offset="0.28" stop-color="#656565" stop-opacity="0.2401"/>
<stop offset="0.4" stop-color="#404040" stop-opacity="0.0961"/>
<stop offset="0.53" stop-color="#242424" stop-opacity="0.0324"/>
<stop offset="0.66" stop-color="#101010" stop-opacity="0.01"/>
<stop offset="0.79" stop-color="#040404" stop-opacity="0.01"/>
<stop offset="0.91" stop-opacity="0"/>
</radialGradient>
<radialGradient id="paint36_radial_0_531" cx="0" cy="0" r="1" gradientUnits="userSpaceOnUse" gradientTransform="translate(384.025 100.831) rotate(119.97) scale(1.28993 24.0787)">
<stop stop-color="#CFCFCF"/>
<stop offset="0.02" stop-color="#C5C5C5" stop-opacity="0.9025"/>
<stop offset="0.15" stop-color="#919191" stop-opacity="0.49"/>
<stop offset="0.28" stop-color="#656565" stop-opacity="0.2401"/>
<stop offset="0.4" stop-color="#404040" stop-opacity="0.0961"/>
<stop offset="0.53" stop-color="#242424" stop-opacity="0.0324"/>
<stop offset="0.66" stop-color="#101010" stop-opacity="0.01"/>
<stop offset="0.79" stop-color="#040404" stop-opacity="0.01"/>
<stop offset="0.91" stop-opacity="0"/>
</radialGradient>
<radialGradient id="paint37_radial_0_531" cx="0" cy="0" r="1" gradientUnits="userSpaceOnUse" gradientTransform="translate(384.025 100.831) rotate(119.97) scale(1.28993 24.0787)">
<stop stop-color="#CFCFCF"/>
<stop offset="0.02" stop-color="#C5C5C5" stop-opacity="0.9025"/>
<stop offset="0.15" stop-color="#919191" stop-opacity="0.49"/>
<stop offset="0.28" stop-color="#656565" stop-opacity="0.2401"/>
<stop offset="0.4" stop-color="#404040" stop-opacity="0.0961"/>
<stop offset="0.53" stop-color="#242424" stop-opacity="0.0324"/>
<stop offset="0.66" stop-color="#101010" stop-opacity="0.01"/>
<stop offset="0.79" stop-color="#040404" stop-opacity="0.01"/>
<stop offset="0.91" stop-opacity="0"/>
</radialGradient>
<radialGradient id="paint38_radial_0_531" cx="0" cy="0" r="1" gradientUnits="userSpaceOnUse" gradientTransform="translate(384.025 100.831) rotate(119.97) scale(1.28993 24.0787)">
<stop stop-color="#CFCFCF"/>
<stop offset="0.02" stop-color="#C5C5C5" stop-opacity="0.9025"/>
<stop offset="0.15" stop-color="#919191" stop-opacity="0.49"/>
<stop offset="0.28" stop-color="#656565" stop-opacity="0.2401"/>
<stop offset="0.4" stop-color="#404040" stop-opacity="0.0961"/>
<stop offset="0.53" stop-color="#242424" stop-opacity="0.0324"/>
<stop offset="0.66" stop-color="#101010" stop-opacity="0.01"/>
<stop offset="0.79" stop-color="#040404" stop-opacity="0.01"/>
<stop offset="0.91" stop-opacity="0"/>
</radialGradient>
<radialGradient id="paint39_radial_0_531" cx="0" cy="0" r="1" gradientUnits="userSpaceOnUse" gradientTransform="translate(384.025 100.831) rotate(119.97) scale(1.28993 24.0787)">
<stop stop-color="#CFCFCF"/>
<stop offset="0.02" stop-color="#C5C5C5" stop-opacity="0.9025"/>
<stop offset="0.15" stop-color="#919191" stop-opacity="0.49"/>
<stop offset="0.28" stop-color="#656565" stop-opacity="0.2401"/>
<stop offset="0.4" stop-color="#404040" stop-opacity="0.0961"/>
<stop offset="0.53" stop-color="#242424" stop-opacity="0.0324"/>
<stop offset="0.66" stop-color="#101010" stop-opacity="0.01"/>
<stop offset="0.79" stop-color="#040404" stop-opacity="0.01"/>
<stop offset="0.91" stop-opacity="0"/>
</radialGradient>
<radialGradient id="paint40_radial_0_531" cx="0" cy="0" r="1" gradientUnits="userSpaceOnUse" gradientTransform="translate(384.025 100.831) rotate(119.97) scale(1.28993 24.0787)">
<stop stop-color="#CFCFCF"/>
<stop offset="0.02" stop-color="#C5C5C5" stop-opacity="0.9025"/>
<stop offset="0.15" stop-color="#919191" stop-opacity="0.49"/>
<stop offset="0.28" stop-color="#656565" stop-opacity="0.2401"/>
<stop offset="0.4" stop-color="#404040" stop-opacity="0.0961"/>
<stop offset="0.53" stop-color="#242424" stop-opacity="0.0324"/>
<stop offset="0.66" stop-color="#101010" stop-opacity="0.01"/>
<stop offset="0.79" stop-color="#040404" stop-opacity="0.01"/>
<stop offset="0.91" stop-opacity="0"/>
</radialGradient>
<radialGradient id="paint41_radial_0_531" cx="0" cy="0" r="1" gradientUnits="userSpaceOnUse" gradientTransform="translate(340.565 100.831) rotate(60.03) scale(1.28993 24.0787)">
<stop stop-color="#CFCFCF"/>
<stop offset="0.02" stop-color="#C5C5C5" stop-opacity="0.9025"/>
<stop offset="0.15" stop-color="#919191" stop-opacity="0.49"/>
<stop offset="0.28" stop-color="#656565" stop-opacity="0.2401"/>
<stop offset="0.4" stop-color="#404040" stop-opacity="0.0961"/>
<stop offset="0.53" stop-color="#242424" stop-opacity="0.0324"/>
<stop offset="0.66" stop-color="#101010" stop-opacity="0.01"/>
<stop offset="0.79" stop-color="#040404" stop-opacity="0.01"/>
<stop offset="0.91" stop-opacity="0"/>
</radialGradient>
<radialGradient id="paint42_radial_0_531" cx="0" cy="0" r="1" gradientUnits="userSpaceOnUse" gradientTransform="translate(340.565 100.831) rotate(60.03) scale(1.28993 24.0787)">
<stop stop-color="#CFCFCF"/>
<stop offset="0.02" stop-color="#C5C5C5" stop-opacity="0.9025"/>
<stop offset="0.15" stop-color="#919191" stop-opacity="0.49"/>
<stop offset="0.28" stop-color="#656565" stop-opacity="0.2401"/>
<stop offset="0.4" stop-color="#404040" stop-opacity="0.0961"/>
<stop offset="0.53" stop-color="#242424" stop-opacity="0.0324"/>
<stop offset="0.66" stop-color="#101010" stop-opacity="0.01"/>
<stop offset="0.79" stop-color="#040404" stop-opacity="0.01"/>
<stop offset="0.91" stop-opacity="0"/>
</radialGradient>
<radialGradient id="paint43_radial_0_531" cx="0" cy="0" r="1" gradientUnits="userSpaceOnUse" gradientTransform="translate(340.565 100.831) rotate(60.03) scale(1.28993 24.0787)">
<stop stop-color="#CFCFCF"/>
<stop offset="0.02" stop-color="#C5C5C5" stop-opacity="0.9025"/>
<stop offset="0.15" stop-color="#919191" stop-opacity="0.49"/>
<stop offset="0.28" stop-color="#656565" stop-opacity="0.2401"/>
<stop offset="0.4" stop-color="#404040" stop-opacity="0.0961"/>
<stop offset="0.53" stop-color="#242424" stop-opacity="0.0324"/>
<stop offset="0.66" stop-color="#101010" stop-opacity="0.01"/>
<stop offset="0.79" stop-color="#040404" stop-opacity="0.01"/>
<stop offset="0.91" stop-opacity="0"/>
</radialGradient>
<radialGradient id="paint44_radial_0_531" cx="0" cy="0" r="1" gradientUnits="userSpaceOnUse" gradientTransform="translate(340.565 100.831) rotate(60.03) scale(1.28993 24.0787)">
<stop stop-color="#CFCFCF"/>
<stop offset="0.02" stop-color="#C5C5C5" stop-opacity="0.9025"/>
<stop offset="0.15" stop-color="#919191" stop-opacity="0.49"/>
<stop offset="0.28" stop-color="#656565" stop-opacity="0.2401"/>
<stop offset="0.4" stop-color="#404040" stop-opacity="0.0961"/>
<stop offset="0.53" stop-color="#242424" stop-opacity="0.0324"/>
<stop offset="0.66" stop-color="#101010" stop-opacity="0.01"/>
<stop offset="0.79" stop-color="#040404" stop-opacity="0.01"/>
<stop offset="0.91" stop-opacity="0"/>
</radialGradient>
<radialGradient id="paint45_radial_0_531" cx="0" cy="0" r="1" gradientUnits="userSpaceOnUse" gradientTransform="translate(340.565 100.831) rotate(60.03) scale(1.28993 24.0787)">
<stop stop-color="#CFCFCF"/>
<stop offset="0.02" stop-color="#C5C5C5" stop-opacity="0.9025"/>
<stop offset="0.15" stop-color="#919191" stop-opacity="0.49"/>
<stop offset="0.28" stop-color="#656565" stop-opacity="0.2401"/>
<stop offset="0.4" stop-color="#404040" stop-opacity="0.0961"/>
<stop offset="0.53" stop-color="#242424" stop-opacity="0.0324"/>
<stop offset="0.66" stop-color="#101010" stop-opacity="0.01"/>
<stop offset="0.79" stop-color="#040404" stop-opacity="0.01"/>
<stop offset="0.91" stop-opacity="0"/>
</radialGradient>
<radialGradient id="paint46_radial_0_531" cx="0" cy="0" r="1" gradientUnits="userSpaceOnUse" gradientTransform="translate(340.565 100.831) rotate(60.03) scale(1.28993 24.0787)">
<stop stop-color="#CFCFCF"/>
<stop offset="0.02" stop-color="#C5C5C5" stop-opacity="0.9025"/>
<stop offset="0.15" stop-color="#919191" stop-opacity="0.49"/>
<stop offset="0.28" stop-color="#656565" stop-opacity="0.2401"/>
<stop offset="0.4" stop-color="#404040" stop-opacity="0.0961"/>
<stop offset="0.53" stop-color="#242424" stop-opacity="0.0324"/>
<stop offset="0.66" stop-color="#101010" stop-opacity="0.01"/>
<stop offset="0.79" stop-color="#040404" stop-opacity="0.01"/>
<stop offset="0.91" stop-opacity="0"/>
</radialGradient>
<linearGradient id="paint47_linear_0_531" x1="362.75" y1="86.1493" x2="362.519" y2="39.5453" gradientUnits="userSpaceOnUse">
<stop stop-color="#383838" stop-opacity="0"/>
<stop offset="1" stop-color="#626262" stop-opacity="0.8"/>
</linearGradient>
<linearGradient id="paint48_linear_0_531" x1="361.946" y1="87.8736" x2="326.625" y2="109.028" gradientUnits="userSpaceOnUse">
<stop stop-color="#383838" stop-opacity="0"/>
<stop offset="1" stop-color="#626262" stop-opacity="0.9"/>
</linearGradient>
<linearGradient id="paint49_linear_0_531" x1="365.061" y1="87.14" x2="396.339" y2="109.587" gradientUnits="userSpaceOnUse">
<stop stop-color="#383838" stop-opacity="0"/>
<stop offset="1" stop-color="#626262" stop-opacity="0.9"/>
</linearGradient>
<linearGradient id="paint50_linear_0_531" x1="362.908" y1="83.5115" x2="362.52" y2="39.5453" gradientUnits="userSpaceOnUse">
<stop stop-color="#383838" stop-opacity="0"/>
<stop offset="1" stop-color="#626262" stop-opacity="0.6"/>
</linearGradient>
<linearGradient id="paint51_linear_0_531" x1="167.736" y1="168" x2="95.4136" y2="38.1468" gradientUnits="userSpaceOnUse">
<stop offset="0.151042" stop-color="#58B9ED"/>
<stop offset="0.84375" stop-color="#08557E"/>
</linearGradient>
<linearGradient id="paint52_linear_0_531" x1="317" y1="326.74" x2="424.397" y2="238.428" gradientUnits="userSpaceOnUse">
<stop offset="0.151042" stop-color="#8D8D8D"/>
<stop offset="0.84375" stop-color="#242424"/>
</linearGradient>
<linearGradient id="paint53_linear_0_531" x1="356.783" y1="195.957" x2="367.329" y2="185.412" gradientUnits="userSpaceOnUse">
<stop offset="0.151042" stop-color="#838383"/>
<stop offset="0.84375" stop-color="#373737"/>
</linearGradient>
<linearGradient id="paint54_linear_0_531" x1="356.783" y1="195.957" x2="367.329" y2="185.412" gradientUnits="userSpaceOnUse">
<stop offset="0.15625" stop-color="#373737"/>
<stop offset="0.848958" stop-color="#838383"/>
</linearGradient>
<linearGradient id="paint55_linear_0_531" x1="181" y1="326.74" x2="288.397" y2="238.428" gradientUnits="userSpaceOnUse">
<stop offset="0.151042" stop-color="#8D8D8D"/>
<stop offset="0.84375" stop-color="#242424"/>
</linearGradient>
<linearGradient id="paint56_linear_0_531" x1="220.737" y1="195.957" x2="231.282" y2="185.412" gradientUnits="userSpaceOnUse">
<stop offset="0.151042" stop-color="#838383"/>
<stop offset="0.84375" stop-color="#373737"/>
</linearGradient>
<linearGradient id="paint57_linear_0_531" x1="220.737" y1="195.957" x2="231.282" y2="185.412" gradientUnits="userSpaceOnUse">
<stop offset="0.15625" stop-color="#373737"/>
<stop offset="0.848958" stop-color="#838383"/>
</linearGradient>
<linearGradient id="paint58_linear_0_531" x1="84.7363" y1="195.957" x2="95.2817" y2="185.412" gradientUnits="userSpaceOnUse">
<stop offset="0.151042" stop-color="#58B9ED"/>
<stop offset="0.84375" stop-color="#08557E"/>
</linearGradient>
<linearGradient id="paint59_linear_0_531" x1="84.7363" y1="195.957" x2="95.2817" y2="185.412" gradientUnits="userSpaceOnUse">
<stop offset="0.15625" stop-color="#08557E"/>
<stop offset="0.848958" stop-color="#58B9ED"/>
</linearGradient>
<clipPath id="clip0_0_531">
<rect width="35.6299" height="23.7533" fill="white" transform="translate(93.052 87.5657)"/>
</clipPath>
<clipPath id="clip1_0_531">
<rect width="35.6299" height="23.7533" fill="white" transform="matrix(-1 0 0 1 90.0831 87.5657)"/>
</clipPath>
<clipPath id="clip2_0_531">
<rect width="35.6299" height="23.7533" fill="white" transform="translate(228.052 87.5656)"/>
</clipPath>
<clipPath id="clip3_0_531">
<rect width="35.6299" height="23.7533" fill="white" transform="matrix(-1 0 0 1 225.083 87.5656)"/>
</clipPath>
<clipPath id="clip4_0_531">
<rect width="35.6299" height="23.7533" fill="white" transform="translate(364.052 87.5654)"/>
</clipPath>
<clipPath id="clip5_0_531">
<rect width="35.6299" height="23.7533" fill="white" transform="matrix(-1 0 0 1 361.083 87.5654)"/>
</clipPath>
<clipPath id="clip6_0_531">
<rect width="30" height="30" fill="white" transform="matrix(-1 0 0 1 377 267)"/>
</clipPath>
<clipPath id="clip7_0_531">
<rect width="30" height="30" fill="white" transform="translate(74.9999 267)"/>
</clipPath>
</defs>
</svg>
