<svg width="22" height="16" viewBox="0 0 22 16" fill="none" xmlns="http://www.w3.org/2000/svg">
<path d="M18.624 1.32632C17.2218 0.712453 15.7181 0.260157 14.146 0.001087C14.1173 -0.00391483 14.0887 0.00858973 14.074 0.0335579C13.8806 0.361751 13.6664 0.789858 13.5164 1.12637C11.8254 0.884811 10.1431 0.884811 8.48684 1.12637C8.3368 0.782397 8.11482 0.361751 7.92056 0.0335579C7.90582 0.0094097 7.8772 -0.00309486 7.84858 0.001087C6.2773 0.259296 4.77365 0.711592 3.37055 1.32632C3.35839 1.33133 3.34799 1.33965 3.34107 1.35047C0.488974 5.4161 -0.29237 9.3818 0.0909114 13.2983C0.0926301 13.3175 0.103931 13.3358 0.119529 13.3475C2.00126 14.666 3.82408 15.4665 5.613 15.9971C5.64162 16.0054 5.67196 15.9954 5.69018 15.9729C6.11333 15.4215 6.49056 14.8401 6.81398 14.2287C6.83306 14.1929 6.81484 14.1504 6.77583 14.1363C6.17748 13.9197 5.60776 13.6557 5.05969 13.3558C5.01634 13.3317 5.01286 13.2725 5.05278 13.2442C5.16811 13.1617 5.28348 13.0759 5.39361 12.9893C5.41354 12.9735 5.4413 12.9702 5.46472 12.9801C9.06516 14.5486 12.9631 14.5486 16.521 12.9801C16.5444 12.9693 16.5722 12.9727 16.593 12.9884C16.7032 13.0751 16.8185 13.1617 16.9347 13.2442C16.9746 13.2725 16.9719 13.3316 16.9286 13.3558C16.3806 13.6615 15.8108 13.9197 15.2116 14.1354C15.1726 14.1496 15.1553 14.1929 15.1744 14.2287C15.5048 14.8392 15.882 15.4206 16.2973 15.9721C16.3147 15.9954 16.3459 16.0054 16.3745 15.997C18.1721 15.4665 19.9949 14.666 21.8767 13.3474C21.8932 13.3358 21.9036 13.3183 21.9053 13.2991C22.364 8.77121 21.1369 4.83802 18.6525 1.35129C18.6465 1.33965 18.6361 1.33133 18.624 1.32632ZM7.35174 10.9136C6.26776 10.9136 5.37457 9.96402 5.37457 8.79786C5.37457 7.63174 6.2504 6.68217 7.35174 6.68217C8.46166 6.68217 9.34622 7.64006 9.32886 8.79786C9.32886 9.96402 8.45298 10.9136 7.35174 10.9136ZM14.6619 10.9136C13.578 10.9136 12.6848 9.96402 12.6848 8.79786C12.6848 7.63174 13.5606 6.68217 14.6619 6.68217C15.7719 6.68217 16.6564 7.64006 16.6391 8.79786C16.6391 9.96402 15.7719 10.9136 14.6619 10.9136Z" fill="white"/>
</svg>