<svg width="66" height="67" viewBox="0 0 66 67" fill="none" xmlns="http://www.w3.org/2000/svg">
<path d="M47.6216 0.590088H18.2516C8.23872 0.590088 0.121643 8.70716 0.121643 18.7201V48.0901C0.121643 58.103 8.23872 66.2201 18.2516 66.2201H47.6216C57.6346 66.2201 65.7516 58.103 65.7516 48.0901V18.7201C65.7516 8.70716 57.6346 0.590088 47.6216 0.590088Z" fill="url(#paint0_linear_4114_7)"/>
<path d="M41.0992 15H24.9003C19.4325 15 15 19.4325 15 24.9003V41.0992C15 46.567 19.4325 50.9995 24.9003 50.9995H41.0992C46.567 50.9995 50.9995 46.567 50.9995 41.0992V24.9003C50.9995 19.4325 46.567 15 41.0992 15ZM47.8495 39.6779C47.8495 44.1905 44.1905 47.8495 39.6779 47.8495H26.323C21.8104 47.8495 18.1514 44.1905 18.1514 39.6779V26.323C18.1514 21.8104 21.8104 18.1514 26.323 18.1514H39.6779C44.1905 18.1514 47.8495 21.8104 47.8495 26.323V39.6779Z" fill="white"/>
<path d="M39.5657 26.502L39.4802 26.4165L39.408 26.3444C37.7061 24.6492 35.4017 23.698 32.9998 23.698C27.9007 23.7327 23.7942 27.8954 23.8289 32.9944C23.8289 32.9958 23.8289 32.9971 23.8289 32.9998C23.8276 35.4618 24.7974 37.8237 26.5287 39.5737C28.2413 41.3077 30.5805 42.2802 33.0171 42.2735C38.1683 42.1653 42.2561 37.9025 42.1479 32.7513C42.0985 30.4175 41.1767 28.1879 39.5643 26.5007L39.5657 26.502ZM32.9998 39.1021C29.6307 39.1489 26.86 36.4557 26.8133 33.0866C26.7665 29.7175 29.4597 26.9469 32.8288 26.9001C36.1979 26.8534 38.9685 29.5465 39.0153 32.9156C39.0153 32.9437 39.0153 32.9717 39.0153 33.0011C39.0406 36.3462 36.3488 39.0781 33.0038 39.1035C33.0024 39.1035 33.0011 39.1035 32.9984 39.1035L32.9998 39.1021Z" fill="white"/>
<path d="M44.8931 23.2705C44.9025 24.4835 43.9286 25.4747 42.7156 25.4841C42.7143 25.4841 42.713 25.4841 42.7116 25.4841C42.1332 25.4841 41.5788 25.2516 41.1727 24.8402C40.3124 23.9678 40.3231 22.5625 41.1954 21.7035C41.6015 21.3027 42.1466 21.0743 42.7156 21.0649C43.2233 21.0649 43.7162 21.2426 44.1063 21.5686L44.1517 21.614C44.2239 21.6728 44.2907 21.7396 44.3494 21.8117L44.3989 21.8651C44.7208 22.2619 44.8958 22.7575 44.8945 23.2692L44.8931 23.2705Z" fill="white"/>
<defs>
<linearGradient id="paint0_linear_4114_7" x1="9.6361" y1="10.0633" x2="56.0652" y2="56.4924" gradientUnits="userSpaceOnUse">
<stop stop-color="#FAE100"/>
<stop offset="0.15" stop-color="#FCB720"/>
<stop offset="0.3" stop-color="#FF7950"/>
<stop offset="0.5" stop-color="#FF1C74"/>
<stop offset="1" stop-color="#6C1CD1"/>
</linearGradient>
</defs>
</svg>
