<svg width="212" height="53" viewBox="0 0 212 53" fill="none" xmlns="http://www.w3.org/2000/svg">
<path d="M89.6552 40.436C87.0675 40.436 84.7293 39.8748 82.6716 38.7837C80.5828 37.6613 78.9616 36.1025 77.7769 34.1072C76.5922 32.1119 75.9999 29.8672 75.9999 27.4042C75.9999 24.9413 76.5922 22.7278 77.7769 20.7325C78.9616 18.7372 80.5828 17.1784 82.6716 16.056C84.7605 14.9337 87.0675 14.3413 89.6552 14.3413C92.2428 14.3413 94.5811 14.9025 96.6387 16.056C98.7275 17.1784 100.349 18.706 101.533 20.7013C102.718 22.6654 103.31 24.9101 103.31 27.4042C103.31 29.8984 102.718 32.1119 101.533 34.1072C100.349 36.0713 98.7275 37.6301 96.6387 38.7837C94.5499 39.8748 92.2116 40.436 89.6552 40.436ZM89.6552 36.3207C91.3387 36.3207 92.8663 35.9466 94.2069 35.1984C95.5475 34.419 96.6075 33.3589 97.3869 32.0184C98.1663 30.6466 98.5405 29.119 98.5405 27.4354C98.5405 25.7519 98.1663 24.2242 97.3869 22.8837C96.6075 21.5119 95.5475 20.4519 94.2069 19.7037C92.8663 18.9242 91.3387 18.5501 89.6552 18.5501C87.9716 18.5501 86.444 18.9242 85.1034 19.7037C83.7628 20.4519 82.7028 21.5119 81.9234 22.8837C81.144 24.2242 80.7699 25.7519 80.7699 27.4354C80.7699 29.119 81.144 30.6466 81.9234 32.0184C82.7028 33.3589 83.7628 34.419 85.1034 35.1984C86.444 35.9466 87.9405 36.3207 89.6552 36.3207ZM134.269 40.0619L129.093 32.6419C128.875 32.6731 128.563 32.6731 128.127 32.6731H122.422V40.0619H117.714V14.7154H128.127C130.309 14.7154 132.242 15.0895 133.832 15.8066C135.485 16.5237 136.732 17.5837 137.605 18.9242C138.478 20.2648 138.914 21.886 138.914 23.7254C138.914 25.6272 138.446 27.2795 137.511 28.6513C136.607 30.0231 135.266 31.0519 133.52 31.7378L139.35 40.0619H134.269ZM134.175 23.7566C134.175 22.1354 133.645 20.8884 132.585 20.0154C131.525 19.1425 129.966 18.706 127.909 18.706H122.39V28.8072H127.909C129.966 28.8072 131.525 28.3707 132.585 27.4978C133.645 26.6248 134.175 25.3466 134.175 23.7566ZM165.32 40.436C162.764 40.436 160.457 39.8748 158.368 38.7837C156.31 37.6613 154.689 36.1025 153.505 34.1072C152.351 32.1431 151.759 29.8984 151.759 27.4042C151.759 24.9101 152.351 22.6966 153.536 20.7013C154.72 18.7372 156.342 17.1784 158.399 16.056C160.488 14.9337 162.795 14.3413 165.352 14.3413C167.44 14.3413 169.311 14.7154 171.026 15.4325C172.74 16.1495 174.175 17.2095 175.359 18.5813L172.304 21.4495C170.465 19.4854 168.22 18.4878 165.539 18.4878C163.793 18.4878 162.234 18.8619 160.862 19.6413C159.49 20.3895 158.399 21.4495 157.651 22.7901C156.872 24.1307 156.498 25.6895 156.498 27.3731C156.498 29.0878 156.872 30.6154 157.651 31.956C158.43 33.2966 159.49 34.3566 160.862 35.136C162.234 35.8842 163.793 36.2584 165.539 36.2584C168.22 36.2584 170.465 35.2607 172.304 33.2654L175.359 36.1648C174.175 37.5366 172.709 38.5966 170.963 39.3137C169.28 40.0619 167.409 40.436 165.32 40.436ZM200.363 14.3725C202.639 14.3725 204.603 14.809 206.286 15.7131C207.97 16.6172 209.279 17.9266 210.183 19.7037C211.119 21.4495 211.586 23.5384 211.586 26.0325V40.0931H206.879V33.5772H193.691V40.0931H189.046V26.0325C189.046 23.5384 189.513 21.4495 190.418 19.7037C191.353 17.9266 192.662 16.6172 194.377 15.7131C196.092 14.809 198.087 14.3725 200.363 14.3725ZM206.91 29.6178V25.596C206.91 23.2578 206.318 21.4807 205.164 20.296C204.01 19.0801 202.389 18.4878 200.3 18.4878C198.212 18.4878 196.622 19.0801 195.437 20.296C194.283 21.4807 193.691 23.2266 193.691 25.596V29.6178H206.91Z" fill="#FFD15C"/>
<path d="M53 26.5C53 41.1218 41.1529 53 26.5 53C11.8782 53 0 41.1529 0 26.5C0 11.8782 11.8471 0 26.5 0C41.1529 0 53 11.8782 53 26.5Z" fill="#FFD15C"/>
<path d="M13.6865 37.3495C13.9047 37.1936 14.123 36.9754 14.2477 36.6324C14.3724 36.2583 14.31 35.9465 14.2477 35.7595C14.2477 35.7595 14.2477 35.7595 14.2477 35.7283L14.2788 35.4789C14.4036 35.5412 14.5283 35.6348 14.7153 35.7595C14.7465 35.7907 14.8088 35.8218 14.8712 35.853C14.9336 35.9154 15.0271 35.9465 15.0583 36.0089C15.1518 36.0712 15.2765 36.1648 15.4012 36.2271C18.9241 38.4095 21.8547 39.3136 24.1618 39.2201C26.5624 39.0954 28.2459 37.9107 29.1188 36.1336C29.9606 34.4189 29.9918 32.3301 29.3994 30.3659C28.8071 28.4018 27.56 26.5001 25.7206 25.1595C22.603 22.9459 19.7347 19.5477 18.2694 16.6483C17.5212 15.183 17.2406 13.9983 17.3341 13.2189C17.3653 12.8448 17.49 12.6577 17.6147 12.5018C17.7394 12.3771 17.9888 12.2212 18.4565 12.1277C19.423 11.9718 20.5765 11.6289 21.6988 11.2548C22.1353 11.1301 22.603 10.9742 23.0394 10.8495C24.6918 10.3507 26.4377 9.94536 28.2771 9.97654C31.8624 9.97654 36.04 11.5354 40.4671 17.9889C46.1412 26.2818 43.0236 35.5412 36.5077 40.4048C33.2653 42.8365 29.1812 44.1148 25.0036 43.616C21.2 43.2107 17.2718 41.3089 13.6865 37.3495Z" fill="white" stroke="black" stroke-width="6.8423"/>
<path d="M16.9288 12.5952C16.9288 12.5952 27.0612 9.91406 29.2747 9.91406C31.4882 9.91406 40.3424 14.2164 42.93 22.0729C46.6088 33.2029 36.6324 40.5294 35.51 39.8123C46.2347 30.9582 28.6824 14.5594 20.0465 15.7752C18.9553 15.9311 19.5788 16.8664 19.5788 16.8664L19.3294 19.267L17.5212 16.2741L16.9288 12.5952Z" fill="black"/>
<path d="M41.4649 18.7058C44.6761 24.3488 43.9902 21.1064 43.2731 27.5599C44.5825 25.4399 46.6402 27.0299 47.482 27.8405C47.6378 27.9964 47.8873 27.9029 47.8873 27.6846C47.8561 26.7182 47.5755 24.6605 46.0167 22.447C43.8343 19.3917 41.4649 18.7058 41.4649 18.7058Z" fill="black"/>
<path d="M43.2731 27.5599C43.9902 21.1376 44.6449 24.3488 41.4649 18.7058C41.4649 18.7058 43.8343 19.3917 46.0167 22.447C47.6067 24.6605 47.8561 26.7182 47.8873 27.6846C47.8873 27.9029 47.6378 27.9964 47.482 27.8405C46.6402 26.9987 44.5825 25.4087 43.2731 27.5599ZM43.2731 27.5599C43.3978 27.2482 43.5849 26.7805 43.5849 26.7805" stroke="black" stroke-width="0.3844"/>
<path d="M15.7443 26.6869C14.4038 28.9628 11.629 28.8069 11.6914 31.5193C14.1543 37.0063 14.1855 36.6322 14.1855 36.6322C18.7685 34.0446 16.8979 28.3704 16.212 26.7181C16.0873 26.4999 15.8379 26.4999 15.7443 26.6869Z" fill="black"/>
<path d="M5.36257 31.7376C7.98139 32.0806 9.57139 29.8047 11.6914 31.5194C14.4973 36.8506 14.1855 36.6324 14.1855 36.6324C9.35316 38.6588 6.01728 33.6706 5.11316 32.1118C4.98845 31.9247 5.14434 31.7065 5.36257 31.7376Z" fill="black"/>
<path d="M27.4043 28.3393C27.4043 28.3393 30.0543 31.0205 28.6514 31.457C26.9367 30.397 23.8502 31.2076 22.3537 31.7376C21.9796 31.8623 21.6055 31.5193 21.7614 31.1764C22.2602 29.7735 23.5384 27.1546 25.9702 26.8117C27.4043 26.4376 27.4043 28.3393 27.4043 28.3393Z" fill="black"/>
<path d="M29.0256 15.1828C28.7138 14.7776 28.1215 13.624 29.992 13.624C31.8626 13.624 34.6997 15.7129 35.2609 16.4923C35.0738 16.9599 33.8891 17.0846 33.2967 17.0223C32.7044 16.9911 31.6756 16.8664 30.8962 16.4923C30.1167 16.087 29.3373 15.5881 29.0256 15.1828Z" fill="white"/>
</svg>
