<svg width="66" height="67" viewBox="0 0 66 67" fill="none" xmlns="http://www.w3.org/2000/svg">
<path d="M47.6217 0.590088H18.2517C8.23874 0.590088 0.121658 8.70716 0.121658 18.7201V48.0901C0.121658 58.103 8.23874 66.2201 18.2517 66.2201H47.6217C57.6346 66.2201 65.7517 58.103 65.7517 48.0901V18.7201C65.7517 8.70716 57.6346 0.590088 47.6217 0.590088Z" fill="url(#paint0_radial_4114_6)"/>
<path d="M48.248 19.6526C45.4436 18.4249 42.4363 17.5203 39.2919 17.0022C39.2347 16.9922 39.1775 17.0172 39.148 17.0671C38.7612 17.7235 38.3328 18.5797 38.0328 19.2527C34.6509 18.7696 31.2862 18.7696 27.9737 19.2527C27.6736 18.5648 27.2296 17.7235 26.8411 17.0671C26.8116 17.0188 26.7544 16.9938 26.6972 17.0022C23.5546 17.5186 20.5473 18.4232 17.7411 19.6526C17.7168 19.6627 17.696 19.6793 17.6821 19.7009C11.9779 27.8322 10.4153 35.7636 11.1818 43.5966C11.1853 43.6349 11.2079 43.6716 11.2391 43.6949C15.0025 46.3321 18.6482 47.933 22.226 48.9942C22.2832 49.0108 22.3439 48.9909 22.3804 48.9459C23.2267 47.8431 23.9811 46.6803 24.628 45.4575C24.6661 45.3859 24.6297 45.3009 24.5517 45.2726C23.355 44.8395 22.2155 44.3113 21.1194 43.7117C21.0327 43.6634 21.0257 43.5451 21.1056 43.4884C21.3362 43.3235 21.567 43.1519 21.7872 42.9786C21.8271 42.947 21.8826 42.9403 21.9294 42.9603C29.1303 46.0972 36.9262 46.0972 44.042 42.9603C44.0889 42.9386 44.1444 42.9453 44.186 42.9769C44.4063 43.1502 44.637 43.3234 44.8694 43.4883C44.9491 43.545 44.9439 43.6633 44.8572 43.7116C43.7611 44.323 42.6217 44.8394 41.4233 45.2708C41.3452 45.2991 41.3105 45.3858 41.3488 45.4574C42.0095 46.6785 42.764 47.8413 43.5947 48.9442C43.6294 48.9908 43.6918 49.0108 43.749 48.9941C47.3442 47.933 50.9898 46.332 54.7533 43.6949C54.7863 43.6716 54.8071 43.6366 54.8105 43.5983C55.728 34.5424 53.2739 26.676 48.3051 19.7026C48.293 19.6793 48.2722 19.6627 48.248 19.6526ZM25.7035 38.8271C23.5355 38.8271 21.7491 36.928 21.7491 34.5957C21.7491 32.2635 23.5008 30.3643 25.7035 30.3643C27.9233 30.3643 29.6924 32.2801 29.6577 34.5957C29.6577 36.928 27.906 38.8271 25.7035 38.8271ZM40.3238 38.8271C38.1559 38.8271 36.3695 36.928 36.3695 34.5957C36.3695 32.2635 38.1212 30.3643 40.3238 30.3643C42.5437 30.3643 44.3127 32.2801 44.2781 34.5957C44.2781 36.928 42.5438 38.8271 40.3238 38.8271Z" fill="white"/>
<defs>
<radialGradient id="paint0_radial_4114_6" cx="0" cy="0" r="1" gradientUnits="userSpaceOnUse" gradientTransform="translate(56.5117 -13.4599) scale(149.93)">
<stop stop-color="#765AF2"/>
<stop offset="0.7" stop-color="#0C0F2D"/>
</radialGradient>
</defs>
</svg>
