<svg width="96" height="96" viewBox="0 0 96 96" fill="none" xmlns="http://www.w3.org/2000/svg">
<path style="mix-blend-mode:screen" opacity="0.83" d="M95.3417 29.93V64.87C95.3417 81.39 81.9317 94.8 65.4117 94.8H30.4717C13.9517 94.8 0.541672 81.39 0.541672 64.87V29.93C0.541672 13.41 13.9517 0 30.4717 0L65.4117 0C81.9317 0 95.3417 13.41 95.3417 29.93Z" fill="url(#paint0_linear_0_192)"/>
<path style="mix-blend-mode:screen" opacity="0.83" d="M95.8 29.93V64.87C95.8 81.39 82.39 94.8 65.87 94.8H30.93C14.41 94.8 1 81.39 1 64.87V29.93C1 13.41 14.41 0 30.93 0L65.87 0C82.39 0 95.8 13.41 95.8 29.93Z" fill="url(#paint1_linear_0_192)"/>
<path d="M65.4117 0H30.4717C13.9617 0 0.541656 13.43 0.541656 29.93V42.02C12.7117 54.57 29.7517 62.39 48.6217 62.39C67.4917 62.39 83.2817 55.14 95.3517 43.38V29.93C95.3417 13.43 81.9117 0 65.4117 0Z" fill="url(#paint2_linear_0_192)"/>
<path d="M95.3417 29.93V64.87C95.3417 81.39 81.9317 94.8 65.4117 94.8H30.4717C13.9517 94.8 0.541672 81.39 0.541672 64.87V29.93C0.541672 13.41 13.9517 0 30.4717 0L65.4117 0C81.9317 0 95.3417 13.41 95.3417 29.93Z" stroke="#5B5B5B" stroke-miterlimit="10"/>
<path d="M65.4117 8.37012H30.4717C18.5644 8.37012 8.91165 18.0229 8.91165 29.9301V64.8701C8.91165 76.7774 18.5644 86.4301 30.4717 86.4301H65.4117C77.3189 86.4301 86.9716 76.7774 86.9716 64.8701V29.9301C86.9716 18.0229 77.3189 8.37012 65.4117 8.37012Z" fill="url(#paint3_radial_0_192)"/>
<defs>
<linearGradient id="paint0_linear_0_192" x1="47.9417" y1="-2.43" x2="47.9417" y2="96.02" gradientUnits="userSpaceOnUse">
<stop stop-color="#EEEEEE" stop-opacity="0.9025"/>
<stop offset="0.03" stop-color="#AEAEAE" stop-opacity="0.5776"/>
<stop offset="0.05" stop-color="#7B7B7B" stop-opacity="0.36"/>
<stop offset="0.06" stop-color="#565656" stop-opacity="0.2401"/>
<stop offset="0.07" stop-color="#404040" stop-opacity="0.1764"/>
<stop offset="0.08" stop-color="#383838" stop-opacity="0.4"/>
<stop offset="0.26" stop-color="#363636" stop-opacity="0.0676"/>
<stop offset="0.52" stop-color="#363636" stop-opacity="0.2"/>
<stop offset="0.88" stop-color="#363636" stop-opacity="0.0529"/>
<stop offset="0.9" stop-color="#363636" stop-opacity="0.25"/>
<stop offset="0.92" stop-color="#393939" stop-opacity="0.0676"/>
<stop offset="0.93" stop-color="#424242" stop-opacity="0.09"/>
<stop offset="0.94" stop-color="#525252" stop-opacity="0.1296"/>
<stop offset="0.95" stop-color="#686868" stop-opacity="0.1936"/>
<stop offset="0.97" stop-color="#858585" stop-opacity="0.2916"/>
<stop offset="0.98" stop-color="#A8A8A8" stop-opacity="0.4624"/>
<stop offset="0.99" stop-color="#D0D0D0" stop-opacity="0.6889"/>
<stop offset="1" stop-color="white"/>
</linearGradient>
<linearGradient id="paint1_linear_0_192" x1="48.4" y1="-2.43" x2="48.4" y2="96.02" gradientUnits="userSpaceOnUse">
<stop stop-color="#EEEEEE" stop-opacity="0.9025"/>
<stop offset="0.02" stop-color="#AEAEAE" stop-opacity="0.5776"/>
<stop offset="0.03" stop-color="#7B7B7B" stop-opacity="0.36"/>
<stop offset="0.04" stop-color="#404040" stop-opacity="0.1764"/>
<stop offset="0.05" stop-color="#383838" stop-opacity="0.4"/>
<stop offset="0.24" stop-color="#363636" stop-opacity="0.0676"/>
<stop offset="0.52" stop-color="#363636" stop-opacity="0.2"/>
<stop offset="0.95" stop-color="#363636" stop-opacity="0.0529"/>
<stop offset="0.98" stop-color="#424242" stop-opacity="0.09"/>
<stop offset="0.99" stop-color="#858585" stop-opacity="0.2916"/>
<stop offset="1" stop-color="white"/>
</linearGradient>
<linearGradient id="paint2_linear_0_192" x1="47.9417" y1="68.88" x2="47.9417" y2="-26.42" gradientUnits="userSpaceOnUse">
<stop stop-color="white"/>
<stop offset="0.05" stop-color="#E5E5E5" stop-opacity="0.81"/>
<stop offset="0.18" stop-color="#A7A7A7" stop-opacity="0.4225"/>
<stop offset="0.3" stop-color="#767676" stop-opacity="0.2116"/>
<stop offset="0.4" stop-color="#535353" stop-opacity="0.1024"/>
<stop offset="0.47" stop-color="#3E3E3E" stop-opacity="0.0529"/>
<stop offset="0.52" stop-color="#363636" stop-opacity="0.2"/>
<stop offset="0.95" stop-color="#363636" stop-opacity="0.0529"/>
<stop offset="0.98" stop-color="#424242" stop-opacity="0.09"/>
<stop offset="0.99" stop-color="#858585" stop-opacity="0.2916"/>
<stop offset="1" stop-color="white"/>
</linearGradient>
<radialGradient id="paint3_radial_0_192" cx="0" cy="0" r="1" gradientUnits="userSpaceOnUse" gradientTransform="translate(84.0016 160.04) scale(184.02)">
<stop stop-color="#474444"/>
<stop offset="0.25" stop-color="#282626"/>
<stop offset="0.54" stop-color="#0A0A0A"/>
<stop offset="0.7"/>
</radialGradient>
</defs>
</svg>
