<svg width="273" height="53" viewBox="0 0 273 53" fill="none" xmlns="http://www.w3.org/2000/svg">
<path d="M113.477 23.7495C116.122 23.7495 118.186 24.5696 119.67 26.1466C121.154 27.7236 121.863 30.0575 121.863 33.0223C121.863 35.1039 121.412 36.8701 120.573 38.384C119.735 39.898 118.509 41.0334 116.961 41.8534C115.413 42.6735 113.606 43.052 111.478 43.052C110.446 43.052 109.414 42.9258 108.253 42.6735V51H102.77V24.0649H106.962L107.801 26.2727C108.64 25.3896 109.478 24.7588 110.317 24.3803C111.284 23.9388 112.316 23.7495 113.477 23.7495ZM222.299 23.6234C228.04 23.6234 230.878 26.7774 230.878 33.1484V34.3469H217.977C218.235 37.564 219.912 39.141 223.008 39.141C223.976 39.141 224.943 39.0148 225.911 38.8256C226.878 38.6364 227.911 38.2579 229.136 37.8163L230.426 41.1596C227.523 42.4842 224.814 43.115 222.363 43.115C219.331 43.115 216.945 42.2319 215.203 40.5288C213.461 38.8256 212.623 36.4286 212.623 33.3377C212.623 30.2468 213.461 27.9128 215.138 26.2096C216.88 24.4434 219.267 23.6234 222.299 23.6234ZM133.861 23.6234C139.602 23.6234 142.441 26.7774 142.441 33.1484V34.3469H129.539C129.797 37.564 131.475 39.141 134.571 39.141C135.538 39.141 136.506 39.0148 137.474 38.8256C138.441 38.6364 139.473 38.2579 140.699 37.8163L141.989 41.1596C139.086 42.4842 136.377 43.115 133.926 43.115C130.894 43.115 128.507 42.2319 126.766 40.5288C125.024 38.8256 124.185 36.4286 124.185 33.3377C124.185 30.2468 125.024 27.9128 126.701 26.2096C128.443 24.4434 130.829 23.6234 133.861 23.6234ZM180.241 17C184.24 17 187.336 18.1354 189.465 20.3432C191.594 22.551 192.69 25.7681 192.69 29.9314C192.69 34.0946 191.658 37.4378 189.53 39.7087C187.401 41.9796 184.305 43.052 180.305 43.052C176.306 43.052 173.145 41.9165 171.017 39.7087C168.888 37.4378 167.856 34.2208 167.856 29.9314C167.856 25.6419 168.952 22.6141 171.081 20.3432C173.145 18.1354 176.241 17 180.241 17ZM86.3851 17C90.3844 17 93.4807 18.1354 95.6094 20.3432C97.7381 22.551 98.8347 25.7681 98.8347 29.9314C98.8347 34.0946 97.8026 37.4378 95.6739 39.7087C93.5452 41.9796 90.4489 43.052 86.4496 43.052C82.4502 43.052 79.2895 41.9165 77.1608 39.7087C75.0321 37.4378 74 34.2208 74 29.9314C74 25.6419 75.0966 22.6141 77.2253 20.3432C79.225 18.1354 82.3212 17 86.3851 17ZM241.908 23.6234C244.617 23.6234 246.682 24.2542 248.101 25.5789C249.52 26.9035 250.294 28.7959 250.294 31.256V42.7366H245.779L245.134 40.5288C244.359 41.3488 243.456 41.9796 242.489 42.3581C241.521 42.7996 240.425 42.9889 239.328 42.9889C237.328 42.9889 235.78 42.4842 234.619 41.475C233.458 40.4657 232.877 39.141 232.877 37.4378C232.877 35.4824 233.716 33.9685 235.393 32.833C237.07 31.7607 239.457 31.193 242.489 31.193H244.811V30.7514C244.747 28.6067 243.456 27.4712 241.07 27.4712C240.231 27.4712 239.264 27.5974 238.167 27.8497C237.07 28.102 236.103 28.4174 235.2 28.7959L234.039 25.2004C235.329 24.6957 236.619 24.3173 238.038 24.0649C239.457 23.8126 240.683 23.6234 241.908 23.6234ZM205.14 23.6865C207.075 23.6865 208.946 24.128 210.688 25.0111L209.462 28.5436C208.172 27.8497 206.882 27.5343 205.721 27.5343C204.108 27.5343 202.882 28.039 202.044 29.0482C201.205 30.0575 200.754 31.4453 200.754 33.2746C200.754 35.1039 201.205 36.4917 202.108 37.5009C203.011 38.5102 204.301 39.0148 205.914 39.0148C207.269 39.0148 208.623 38.6994 209.913 38.1317L210.817 41.7904C209.913 42.1688 209.01 42.4842 207.978 42.6735C206.946 42.8627 205.979 42.9889 205.076 42.9889C201.915 42.9889 199.464 42.1688 197.786 40.4657C196.109 38.8256 195.271 36.4286 195.271 33.2746C195.271 30.1206 196.109 27.8497 197.851 26.1466C199.528 24.5065 201.979 23.6865 205.14 23.6865ZM157.986 23.6865C159.986 23.6865 161.534 24.2542 162.631 25.3896C163.727 26.525 164.243 28.1651 164.243 30.2468V42.6735H158.76V30.4991C158.76 29.4267 158.567 28.6067 158.115 28.102C157.664 27.5974 156.954 27.3451 155.987 27.3451C155.084 27.3451 154.31 27.5343 153.535 27.9128C152.761 28.2913 152.181 28.859 151.665 29.4898V42.6104H146.182V23.8757H150.762L151.342 26.462C153.019 24.6327 155.277 23.6865 157.986 23.6865ZM266.743 23.6865C268.743 23.6865 270.291 24.2542 271.387 25.3896C272.484 26.525 273 28.1651 273 30.2468V42.6735H267.517V30.4991C267.517 29.4267 267.324 28.6067 266.872 28.102C266.42 27.5974 265.711 27.3451 264.743 27.3451C263.84 27.3451 263.066 27.5343 262.292 27.9128C261.518 28.2913 260.937 28.859 260.421 29.4898V42.6104H254.938V23.8757H259.518L260.099 26.462C261.776 24.6327 264.034 23.6865 266.743 23.6865ZM244.811 34.1577H242.94C241.392 34.1577 240.167 34.41 239.328 34.9147C238.489 35.4193 238.038 36.1763 238.038 37.1225C238.038 37.8794 238.296 38.4471 238.747 38.8887C239.199 39.2672 239.909 39.5195 240.747 39.5195C241.521 39.5195 242.295 39.3302 243.005 39.0148C243.714 38.6994 244.359 38.1948 244.811 37.6271V34.1577ZM112.316 27.5343C111.349 27.5343 110.51 27.7866 109.801 28.2913C109.091 28.7959 108.575 29.5529 108.317 30.436V38.9518C109.027 39.141 109.543 39.2041 109.93 39.2672C110.317 39.3302 110.704 39.3302 111.22 39.3302C112.897 39.3302 114.123 38.8256 115.026 37.7532C115.929 36.6809 116.38 35.167 116.38 33.1484C116.38 29.3636 115.026 27.5343 112.316 27.5343ZM86.3851 21.2894C84.1919 21.2894 82.5147 22.0464 81.4182 23.4972C80.3216 24.9481 79.741 27.0928 79.741 29.9314C79.741 32.7699 80.3216 35.0408 81.4182 36.4917C82.5147 38.0056 84.1919 38.7625 86.3851 38.7625C88.5783 38.7625 90.2554 38.0056 91.352 36.4917C92.4486 34.9777 93.0292 32.7699 93.0292 29.9314C93.0292 27.0928 92.4486 24.9481 91.352 23.4972C90.1909 22.0464 88.5138 21.2894 86.3851 21.2894ZM180.241 21.2894C178.048 21.2894 176.37 22.0464 175.274 23.4972C174.177 24.9481 173.597 27.0928 173.597 29.9314C173.597 32.7699 174.177 35.0408 175.274 36.4917C176.37 37.9425 178.048 38.7625 180.241 38.7625C182.434 38.7625 184.111 38.0056 185.208 36.4917C186.304 34.9777 186.885 32.7699 186.885 29.9314C186.885 27.0928 186.304 24.9481 185.208 23.4972C184.111 22.0464 182.434 21.2894 180.241 21.2894ZM133.926 27.3451C132.7 27.3451 131.733 27.6605 131.088 28.2913C130.378 28.9221 129.926 29.9314 129.733 31.256H137.474C137.28 28.6067 136.119 27.3451 133.926 27.3451ZM222.299 27.3451C221.073 27.3451 220.105 27.6605 219.46 28.2913C218.751 28.9221 218.299 29.9314 218.106 31.256H225.846C225.653 28.6067 224.492 27.3451 222.299 27.3451Z" fill="#3A5AFF"/>
<path d="M53.3559 26.4675V26.3444C53.3559 26.1633 53.5381 25.9823 53.7203 25.9171H53.9026C55.7903 25.7361 57.3136 25.374 58.1664 25.1278C58.2903 25.1278 58.3486 25.0699 58.4725 25.0699C58.7786 24.9468 58.9609 24.6426 59.0192 24.2806V19.8561C59.0192 19.3129 58.5891 18.8857 58.0425 18.8857H57.8603C57.802 18.8857 57.7364 18.9436 57.6781 18.9436C56.7014 19.1826 55.1198 19.5519 52.9259 19.5519H52.8676C52.6854 19.494 52.5031 19.4288 52.4375 19.2478V19.1247C49.0848 7.50942 37.9332 -0.789255 25.0031 0.0579922C11.8982 0.970412 1.22763 11.4488 0.0687331 24.6499C-1.03185 40.0958 11.2276 52.9928 26.5848 52.9928C38.0425 52.9928 47.8603 45.7876 51.5775 35.6713C51.6358 35.6713 51.6358 35.6134 51.6358 35.6134C51.7597 35.4903 51.8763 35.3744 52.0658 35.3744H52.1241C54.8063 35.2513 57.0002 34.7661 58.1008 34.4692C58.1591 34.4692 58.283 34.4113 58.3413 34.4113C58.7058 34.2882 58.9536 33.9261 58.9536 33.5641V29.0237C58.8953 28.5385 58.4652 28.1764 57.9769 28.1764H57.7947C57.7364 28.1764 57.6708 28.2344 57.6125 28.2344C56.7597 28.4733 55.5425 28.7196 53.8297 28.8427H53.7058C53.4652 28.7847 53.2757 28.6037 53.2757 28.3575V28.2996C53.334 27.6913 53.334 27.0902 53.334 26.482L53.3559 26.4675ZM46.5848 25.8592V26.4023C46.5848 26.7644 46.5265 27.0685 46.5265 27.4306V27.6116C46.5265 27.7927 46.3442 27.9737 46.0964 27.9737C46.0381 27.9737 45.9142 27.9158 45.8559 27.9158C45.3093 27.8578 44.7553 27.6768 44.2087 27.5537C36.2859 25.4971 31.7087 26.7064 30.127 27.3147H30.0687C29.8282 27.4378 29.5804 27.742 29.5221 28.0389V32.9485C29.5804 33.3758 30.0104 33.7379 30.4988 33.7379H30.7393C33.1154 33.1296 38.5454 32.1665 44.2743 34.0999L44.5148 34.1579H44.6387C44.8209 34.2158 44.9448 34.3968 44.9448 34.5851V34.643C44.8865 34.701 44.8865 34.8241 44.8209 34.882C41.6504 41.6021 34.7626 46.2076 26.8399 46.2076C15.8632 46.2076 6.90547 37.3006 6.90547 26.4023C6.90547 15.504 15.8049 6.597 26.8399 6.597C34.646 6.597 41.4098 11.0215 44.4565 17.5605C44.4565 17.6185 44.5148 17.6836 44.5148 17.7416V17.8647C44.5148 18.1036 44.3326 18.3498 44.0265 18.3498H43.8442C36.2859 16.4091 31.8326 17.5026 30.1854 18.1109C30.127 18.1109 30.0614 18.1688 30.0031 18.1688C29.697 18.2919 29.5148 18.5309 29.4565 18.835V23.7375C29.5148 24.1647 29.9448 24.5268 30.4332 24.5268H30.4915C30.6154 24.4688 30.7976 24.4688 30.9215 24.4037C33.3632 23.7954 38.662 22.8902 44.2087 24.8309L44.4492 24.8888C45.0614 25.0699 45.6081 25.2509 46.2203 25.374H46.2786C46.4609 25.4319 46.5848 25.5551 46.5848 25.7361V25.8592Z" fill="#3A5AFF"/>
</svg>
