<svg width="272" height="55" viewBox="0 0 272 55" fill="none" xmlns="http://www.w3.org/2000/svg">
<path fill-rule="evenodd" clip-rule="evenodd" d="M86.0082 43L80.8897 34.6779H73.4076V43H69V18.0005H82.276C83.8933 17.9838 85.4928 18.3999 86.879 19.1822C88.2653 19.9645 89.4027 21.0797 90.1669 22.4278C90.9312 23.776 91.2688 25.2906 91.18 26.8052C91.0911 28.3199 90.5579 29.8012 89.6338 31.0495C88.6741 32.381 87.3234 33.413 85.7416 34.0288L91.18 43H86.0082ZM82.2582 22.2447H73.4076V30.5502H82.276C82.8625 30.5502 83.4312 30.4337 83.9644 30.2173C84.4975 30.0009 84.9774 29.6847 85.3684 29.2852C85.9726 28.7027 86.3992 27.9703 86.5591 27.1548C86.7191 26.3558 86.6302 25.5236 86.3103 24.758C85.9726 24.009 85.4217 23.3599 84.693 22.8939C83.9644 22.4278 83.1291 22.1782 82.2582 22.1782V22.2447ZM115.049 18.0005L101.737 43H106.678L115.031 27.3379L123.366 43H128.307L115.049 18.0005ZM156.655 18.0005H151.021L143.45 27.2213L135.914 18.0005H130.263L141.353 31.3325V43H145.76V31.1327L156.655 18.0005ZM164.831 18.0005H173.663C177.182 18.0171 180.541 19.3487 183.012 21.6955C185.5 24.0257 186.904 27.2047 186.922 30.5002C186.904 33.8124 185.5 36.9748 183.012 39.3216C180.524 41.6685 177.165 42.9834 173.646 43H164.813V18.0005H164.831ZM173.663 38.7557C176.009 38.7557 178.249 37.8736 179.902 36.309C181.554 34.7445 182.496 32.6307 182.496 30.4337C182.461 28.2366 181.537 26.1228 179.884 24.5749C178.231 23.027 175.992 22.1282 173.663 22.1116H169.203V38.7557H173.663ZM201.993 18.0005H197.586V43H201.993V18.0005ZM234.748 32.5641C234.766 33.9456 234.5 35.3104 233.931 36.5754C233.38 37.8403 232.545 38.9888 231.478 39.9375C229.932 41.4022 227.959 42.3842 225.809 42.7836C223.658 43.1831 221.437 42.9834 219.411 42.1844C217.385 41.4022 215.661 40.054 214.452 38.3396C213.244 36.6253 212.604 34.6114 212.604 32.5475V18.0005H217.012V32.5475C217.012 34.2119 217.705 35.7931 218.967 36.9582C220.211 38.1233 221.899 38.789 223.658 38.789C225.418 38.789 227.106 38.1233 228.35 36.9582C229.594 35.7931 230.288 34.1952 230.288 32.5475V18.0005H234.731V32.5641H234.748ZM249.784 43V28.0536L258.671 36.3923L267.521 28.0536V43H272V18.0005L258.671 30.5002L245.395 18.0005V43H249.784Z" fill="#A31AFC"/>
<path d="M44.5384 20.6411V39.822L23.4915 52.1396L2.43603 39.822V15.1866L23.5 2.85179L39.6749 12.3263L42.1194 10.9004L23.5 0L0 13.7522V41.2479L23.5 55L47 41.2479V19.2152L44.5384 20.6411Z" fill="url(#paint0_linear_0_918)"/>
<path d="M17.6054 40H14V28.0897H26.0296C27.1645 28.0812 28.2557 27.6283 29.0588 26.8252C29.862 26.0306 30.3072 24.9541 30.3159 23.8348C30.3247 23.2795 30.2112 22.7326 29.9929 22.22C29.7747 21.7074 29.4517 21.246 29.0501 20.8615C28.6573 20.4685 28.1859 20.1524 27.6708 19.9388C27.1558 19.7252 26.597 19.6141 26.0296 19.6226H14V16H26.0383C28.1422 16.0085 30.1675 16.8459 31.6516 18.3069C33.1444 19.7764 33.9824 21.7586 33.9999 23.8348C34.0086 25.424 33.5198 26.9705 32.5944 28.2691C31.7389 29.508 30.5342 30.482 29.1287 31.063C27.7319 31.4988 26.2828 31.7124 24.8249 31.7038H17.6054V40Z" fill="url(#paint1_linear_0_918)"/>
<path d="M34 40H29.4848L26 33.8408C27.377 33.7557 28.7354 33.4723 30.0375 33L34 40Z" fill="url(#paint2_linear_0_918)"/>
<path d="M43 16.7991L45 18L47 16.7991V14.2538L45 13L43 14.2538V16.7991Z" fill="url(#paint3_linear_0_918)"/>
<defs>
<linearGradient id="paint0_linear_0_918" x1="48.4249" y1="17.5046" x2="-1.58828" y2="37.2312" gradientUnits="userSpaceOnUse">
<stop stop-color="#C200FB"/>
<stop offset="0.4897" stop-color="#3772FF"/>
<stop offset="0.4898" stop-color="#3773FE"/>
<stop offset="1" stop-color="#5AC4BE"/>
</linearGradient>
<linearGradient id="paint1_linear_0_918" x1="48.2162" y1="15.3832" x2="-2.62028" y2="36.0443" gradientUnits="userSpaceOnUse">
<stop stop-color="#C200FB"/>
<stop offset="0.4897" stop-color="#3772FF"/>
<stop offset="0.4898" stop-color="#3773FE"/>
<stop offset="1" stop-color="#5AC4BE"/>
</linearGradient>
<linearGradient id="paint2_linear_0_918" x1="54.8136" y1="26.9677" x2="-0.190545" y2="48.6637" gradientUnits="userSpaceOnUse">
<stop stop-color="#C200FB"/>
<stop offset="0.4897" stop-color="#3772FF"/>
<stop offset="0.4898" stop-color="#3773FE"/>
<stop offset="1" stop-color="#5AC4BE"/>
</linearGradient>
<linearGradient id="paint3_linear_0_918" x1="47.1289" y1="14.594" x2="5.23543" y2="30.0769" gradientUnits="userSpaceOnUse">
<stop stop-color="#C200FB"/>
<stop offset="0.4897" stop-color="#3772FF"/>
<stop offset="0.4898" stop-color="#3773FE"/>
<stop offset="1" stop-color="#5AC4BE"/>
</linearGradient>
</defs>
</svg>
