<svg width="200" height="55" viewBox="0 0 200 55" fill="none" xmlns="http://www.w3.org/2000/svg">
<g clip-path="url(#clip0_0_927)">
<mask id="mask0_0_927" style="mask-type:luminance" maskUnits="userSpaceOnUse" x="0" y="0" width="55" height="55">
<path d="M0 0H55V55H0V0Z" fill="white"/>
</mask>
<g mask="url(#mask0_0_927)">
<path d="M27.5 55C42.6878 55 55 42.6878 55 27.5C55 12.3122 42.6878 0 27.5 0C12.3122 0 0 12.3122 0 27.5C0 42.6878 12.3122 55 27.5 55Z" fill="#6966FB"/>
<path d="M27.5001 53.3664C41.7857 53.3664 53.3664 41.7857 53.3664 27.5001C53.3664 13.2145 41.7857 1.63379 27.5001 1.63379C13.2145 1.63379 1.63379 13.2145 1.63379 27.5001C1.63379 41.7857 13.2145 53.3664 27.5001 53.3664Z" fill="black"/>
<path fill-rule="evenodd" clip-rule="evenodd" d="M43.0197 13.5593C43.0197 12.6871 42.3246 11.9802 41.4676 11.9802H18.1307C17.1108 11.9802 16.2185 12.1306 15.4537 12.4316C14.6889 12.756 14.0514 13.1842 13.5416 13.7168C13.0105 14.2726 12.6173 14.8978 12.3625 15.5924C12.1083 16.3059 11.979 17.0579 11.9801 17.8154V21.4555C11.9801 23.1998 13.3697 24.6139 15.084 24.6139H33.7079L24.3959 18.2971H41.4676C42.3246 18.2971 43.0197 17.59 43.0197 16.718V13.5593ZM11.9801 41.9849C11.9801 42.8571 12.6749 43.5644 13.5319 43.5644H36.8693C37.8892 43.5644 38.7814 43.4138 39.5461 43.1128C40.3111 42.7886 40.9484 42.3602 41.4582 41.8276C41.9895 41.2718 42.3824 40.6466 42.6375 39.952C42.8916 39.2385 43.021 38.4865 43.0199 37.729V34.0889C43.0199 32.3446 41.6303 30.9305 39.916 30.9305H21.2919L30.6036 37.2474H13.5321C12.6749 37.2474 11.9801 37.9544 11.9801 38.8267V41.9849Z" fill="#6966FB"/>
</g>
</g>
<path d="M86.426 17.54C88.706 17.54 90.7073 17.9327 92.43 18.718C94.1527 19.5033 95.622 20.6687 96.838 22.214L93.912 25.596C92.8733 24.2787 91.7333 23.316 90.492 22.708C89.276 22.0747 87.8573 21.758 86.236 21.758C85.172 21.758 84.2853 21.8973 83.576 22.176C82.892 22.4547 82.3853 22.822 82.056 23.278C81.752 23.734 81.6 24.2407 81.6 24.798C81.6 25.482 81.866 26.0647 82.398 26.546C82.93 27.002 83.842 27.382 85.134 27.686L89.808 28.75C92.2907 29.3073 94.064 30.1433 95.128 31.258C96.2173 32.3473 96.762 33.766 96.762 35.514C96.762 37.1607 96.3313 38.5793 95.47 39.77C94.6087 40.9353 93.4053 41.8347 91.86 42.468C90.3147 43.076 88.5413 43.38 86.54 43.38C84.792 43.38 83.1833 43.1773 81.714 42.772C80.27 42.3413 78.978 41.7587 77.838 41.024C76.698 40.2893 75.748 39.4407 74.988 38.478L77.952 34.944C78.5347 35.7547 79.2567 36.4767 80.118 37.11C80.9793 37.7433 81.9547 38.25 83.044 38.63C84.1587 38.9847 85.324 39.162 86.54 39.162C87.5787 39.162 88.4527 39.048 89.162 38.82C89.8967 38.5667 90.4413 38.2247 90.796 37.794C91.176 37.338 91.366 36.7933 91.366 36.16C91.366 35.5013 91.138 34.944 90.682 34.488C90.2513 34.0067 89.4407 33.6393 88.25 33.386L83.158 32.246C81.6887 31.8913 80.422 31.4353 79.358 30.878C78.3193 30.2953 77.5213 29.5607 76.964 28.674C76.432 27.762 76.166 26.6853 76.166 25.444C76.166 23.9493 76.5713 22.6067 77.382 21.416C78.1927 20.2253 79.358 19.288 80.878 18.604C82.4233 17.8947 84.2727 17.54 86.426 17.54ZM123.312 43H117.878L115.788 36.882H106.174L104.084 43H98.7255L107.884 17.92H114.154L123.312 43ZM107.352 33.006H114.61L110.962 22.062L107.352 33.006ZM127.032 43V17.92H138.014C141.054 17.92 143.296 18.5153 144.74 19.706C146.184 20.8967 146.906 22.5813 146.906 24.76C146.906 26.1027 146.5 27.2933 145.69 28.332C144.879 29.3707 143.688 30.0293 142.118 30.308V30.346C143.866 30.5993 145.208 31.258 146.146 32.322C147.083 33.386 147.552 34.6527 147.552 36.122C147.552 38.2753 146.766 39.96 145.196 41.176C143.65 42.392 141.383 43 138.394 43H127.032ZM132.124 39.048H137.938C139.356 39.048 140.408 38.7567 141.092 38.174C141.776 37.5913 142.118 36.7807 142.118 35.742C142.118 34.678 141.776 33.8673 141.092 33.31C140.408 32.7527 139.356 32.474 137.938 32.474H132.124V39.048ZM132.124 28.446H137.33C140.091 28.446 141.472 27.3693 141.472 25.216C141.472 23.0627 140.091 21.986 137.33 21.986H132.124V28.446ZM152.563 43V17.92H171.373V22.138H157.807V28.37H168.485V32.398H157.807V38.782H171.905V43H152.563ZM187.668 17.92C190.505 17.92 192.734 18.604 194.356 19.972C195.977 21.34 196.788 23.1767 196.788 25.482C196.788 27.9393 195.977 29.8267 194.356 31.144C192.734 32.436 190.518 33.082 187.706 33.082L187.174 33.386H181.778V43H176.61V17.92H187.668ZM187.06 29.396C188.529 29.396 189.618 29.1047 190.328 28.522C191.062 27.914 191.43 26.9893 191.43 25.748C191.43 24.5067 191.062 23.5947 190.328 23.012C189.618 22.404 188.529 22.1 187.06 22.1H181.778V29.396H187.06ZM190.138 30.498L198.27 43H192.38L185.654 32.018L190.138 30.498Z" fill="#6966FB"/>
<defs>
<clipPath id="clip0_0_927">
<rect width="55" height="55" fill="white"/>
</clipPath>
</defs>
</svg>
