<svg width="182" height="52" viewBox="0 0 182 52" fill="none" xmlns="http://www.w3.org/2000/svg">
<path d="M23.9357 42.8256C16.0336 42.8256 9.63477 36.4268 9.63477 28.5247C9.63477 20.8538 22.548 7.28523 23.0877 6.74558L23.743 6.01318L24.3983 6.74558C24.938 7.28523 38.1596 20.8538 38.1596 28.5247C38.2752 36.4268 31.8379 42.8256 23.9357 42.8256ZM23.8586 8.75002C22.7022 10.0221 20.3509 12.6047 17.9995 15.8041C13.8364 21.3549 11.6007 25.7493 11.6007 28.5247C11.6007 35.3475 17.1514 40.8983 23.9743 40.8983C30.7971 40.8983 36.3479 35.3475 36.3479 28.5247C36.3479 25.7493 34.1122 21.3549 29.8334 15.8041C27.4821 12.7204 25.015 10.0606 23.8586 8.75002Z" fill="url(#paint0_linear_0_909)"/>
<path d="M23.9354 47.4129C13.4892 47.4129 5.04736 38.9711 5.04736 28.5249C5.04736 18.387 19.2327 4.16312 19.888 3.54636C20.312 3.23799 20.8517 3.23799 21.2757 3.54636C21.5841 3.97038 21.5841 4.51004 21.2757 4.93406C21.0444 5.0497 6.97472 19.1194 6.97472 28.5249C6.97472 37.9304 14.5685 45.4856 23.9354 45.4856C33.3409 45.4856 40.8961 37.8918 40.8961 28.5249C40.8961 24.6702 38.4291 19.3507 33.7264 13.1446C30.103 8.3262 26.4795 4.70277 26.4795 4.70277C26.0555 4.3944 26.0555 3.7391 26.4795 3.31508C26.7879 2.89107 27.4432 2.89107 27.8672 3.31508C28.5225 3.97038 42.9391 18.387 42.9391 28.5249C42.862 38.9711 34.4202 47.4129 23.9354 47.4129Z" fill="url(#paint1_linear_0_909)"/>
<path d="M23.9355 51.9999C11.3306 51.9999 0.961426 41.6307 0.961426 29.0258C0.961426 23.7834 3.62118 17.3846 8.74794 9.90647C12.6026 4.47133 16.3417 0.500983 16.5344 0.308248C16.8428 -0.11577 17.4981 -0.11577 17.9221 0.308248C18.3462 0.616624 18.3462 1.27193 17.9221 1.69594C17.9221 1.69594 14.0674 5.62774 10.3284 11.1014C5.43289 18.1555 2.85023 24.3231 2.85023 29.1415C2.85023 40.7827 12.3714 50.1882 23.8969 50.1882C35.4225 50.1882 44.9436 40.5899 44.9436 29.0644C44.9436 24.246 42.3995 18.0784 37.4655 11.0243C33.7264 5.66629 29.8717 1.73449 29.8717 1.61885C29.5634 1.19483 29.5634 0.655173 29.8717 0.231155C30.2957 -0.0772218 30.8354 -0.0772218 31.2594 0.231155C31.7991 0.963549 46.8324 16.5751 46.8324 29.0644C46.9095 41.6307 36.656 51.9999 23.9355 51.9999Z" fill="url(#paint2_linear_0_909)"/>
<path d="M66.8545 33.6515L71.4416 33.2275C71.75 34.7308 72.2896 35.8872 73.1377 36.6582C73.9857 37.3906 75.1807 37.7375 76.5684 37.7375C78.0717 37.7375 79.2281 37.4291 79.999 36.7738C80.7314 36.1185 81.1555 35.3861 81.1555 34.5381C81.1555 33.9984 80.9242 33.4588 80.6158 33.1504C80.3074 32.7264 79.7678 32.418 78.9197 32.1867C78.3801 31.9554 77.108 31.647 75.1807 31.1074C72.6365 30.4521 70.9019 29.7197 69.8612 28.756C68.4735 27.484 67.7411 25.865 67.7411 24.0533C67.7411 22.8969 68.0494 21.7019 68.7047 20.7382C69.36 19.7745 70.3237 18.9265 71.5958 18.3869C72.8678 17.8472 74.3712 17.5388 76.1829 17.5388C79.1896 17.5388 81.3096 18.1941 82.813 19.4662C84.3163 20.7382 85.0487 22.4728 85.1644 24.5929L80.4616 24.8242C80.2303 23.6678 79.8063 22.7812 79.1896 22.2801C78.5343 21.7404 77.5706 21.4321 76.1829 21.4321C74.7952 21.4321 73.7159 21.7404 72.9835 22.2801C72.4438 22.5885 72.2511 23.1281 72.2511 23.7834C72.2511 24.3231 72.4824 24.8628 72.9835 25.1711C73.6388 25.7108 75.0265 26.2505 77.3778 26.7901C79.7292 27.3298 81.3096 27.8694 82.5046 28.4862C83.5839 29.0258 84.4319 29.8739 85.0487 30.8376C85.6655 31.8012 86.0124 33.0733 86.0124 34.5766C86.0124 35.9643 85.704 37.1207 84.9331 38.3157C84.2007 39.4721 83.1214 40.3587 81.7337 40.8598C80.346 41.3995 78.6499 41.7078 76.6069 41.7078C73.6002 41.7078 71.3645 41.0525 69.7841 39.6648C68.1265 38.2386 67.1629 36.3112 66.8545 33.6515Z" fill="url(#paint3_linear_0_909)"/>
<path d="M89.79 41.3223V17.8472H107.098V21.779H94.4928V27.0214H106.25V30.9532H94.4928V37.352H107.522V41.2838H89.79V41.3223Z" fill="url(#paint4_linear_0_909)"/>
<path d="M111.685 41.3223V17.8472H121.63C124.097 17.8472 125.909 18.0784 127.065 18.5025C128.222 18.9265 129.108 19.6589 129.725 20.7382C130.38 21.8175 130.804 23.0896 130.804 24.4773C130.804 26.1733 130.265 27.6767 129.185 28.8716C128.106 30.028 126.641 30.6833 124.598 30.9917C125.678 31.647 126.41 32.2638 127.142 32.9191C127.798 33.6515 128.761 34.9621 129.802 36.7738L132.693 41.3609H127.027L123.596 36.2341C122.44 34.4224 121.553 33.2274 121.129 32.8034C120.705 32.3794 120.165 32.071 119.741 31.8398C119.202 31.6085 118.469 31.6085 117.39 31.6085H116.426V41.3223H111.685ZM116.388 27.7538H119.896C122.131 27.7538 123.519 27.6381 124.174 27.4454C124.714 27.2141 125.138 26.9057 125.446 26.4817C125.755 26.0577 125.87 25.4024 125.87 24.7856C125.87 24.0532 125.639 23.3979 125.215 22.8583C124.791 22.3186 124.251 22.1259 123.403 21.8946C122.979 21.8946 121.9 21.779 119.973 21.779H116.234L116.388 27.7538Z" fill="url(#paint5_linear_0_909)"/>
<path d="M135.16 17.8472H139.863V30.5677C139.863 32.6107 139.979 33.8827 140.094 34.4995C140.325 35.4632 140.749 36.1956 141.598 36.8509C142.33 37.3905 143.409 37.6989 144.681 37.6989C146.069 37.6989 147.033 37.3905 147.688 36.8509C148.343 36.3112 148.767 35.6945 148.96 34.8079C149.076 34.0755 149.191 32.6878 149.191 30.8761V17.8472H153.894V30.1437C153.894 32.9191 153.778 34.9621 153.47 36.1185C153.239 37.2749 152.738 38.2386 152.082 39.1251C151.427 39.8575 150.463 40.5128 149.307 41.0525C148.151 41.5922 146.647 41.7849 144.835 41.7849C142.6 41.7849 140.904 41.5536 139.709 41.0525C138.552 40.5128 137.666 39.8961 136.933 39.0095C136.278 38.1615 135.854 37.3134 135.661 36.4654C135.353 35.0777 135.237 33.1504 135.237 30.4906V17.8472H135.16Z" fill="url(#paint6_linear_0_909)"/>
<path d="M158.79 41.3223V17.8472H165.844L170.122 33.7671L174.285 17.8472H181.301V41.2452H176.907V22.8583L172.32 41.3223H167.732L163.145 22.8583V41.3223H158.79Z" fill="url(#paint7_linear_0_909)"/>
<defs>
<linearGradient id="paint0_linear_0_909" x1="23.8973" y1="42.825" x2="23.8973" y2="6.02714" gradientUnits="userSpaceOnUse">
<stop stop-color="#05AAC5"/>
<stop offset="1" stop-color="#71E0EC"/>
</linearGradient>
<linearGradient id="paint1_linear_0_909" x1="24.0032" y1="47.4159" x2="24.0032" y2="3.07293" gradientUnits="userSpaceOnUse">
<stop stop-color="#05AAC5"/>
<stop offset="1" stop-color="#71E0EC"/>
</linearGradient>
<linearGradient id="paint2_linear_0_909" x1="23.9498" y1="52.0062" x2="23.9498" y2="0.0320561" gradientUnits="userSpaceOnUse">
<stop stop-color="#05AAC5"/>
<stop offset="1" stop-color="#71E0EC"/>
</linearGradient>
<linearGradient id="paint3_linear_0_909" x1="76.393" y1="17.5189" x2="76.393" y2="41.6502" gradientUnits="userSpaceOnUse">
<stop stop-color="#77E3EF"/>
<stop offset="1" stop-color="#05AAC5"/>
</linearGradient>
<linearGradient id="paint4_linear_0_909" x1="98.6559" y1="17.8385" x2="98.6559" y2="41.3292" gradientUnits="userSpaceOnUse">
<stop stop-color="#77E3EF"/>
<stop offset="1" stop-color="#05AAC5"/>
</linearGradient>
<linearGradient id="paint5_linear_0_909" x1="122.2" y1="17.8385" x2="122.2" y2="41.3292" gradientUnits="userSpaceOnUse">
<stop stop-color="#77E3EF"/>
<stop offset="1" stop-color="#05AAC5"/>
</linearGradient>
<linearGradient id="paint6_linear_0_909" x1="144.516" y1="17.8385" x2="144.516" y2="41.7563" gradientUnits="userSpaceOnUse">
<stop stop-color="#77E3EF"/>
<stop offset="1" stop-color="#05AAC5"/>
</linearGradient>
<linearGradient id="paint7_linear_0_909" x1="170.036" y1="17.8385" x2="170.036" y2="41.3292" gradientUnits="userSpaceOnUse">
<stop stop-color="#77E3EF"/>
<stop offset="1" stop-color="#05AAC5"/>
</linearGradient>
</defs>
</svg>
