<svg width="66" height="67" viewBox="0 0 66 67" fill="none" xmlns="http://www.w3.org/2000/svg">
<path d="M47.6216 0.590088H18.2516C8.23872 0.590088 0.121643 8.70716 0.121643 18.7201V48.0901C0.121643 58.103 8.23872 66.2201 18.2516 66.2201H47.6216C57.6346 66.2201 65.7516 58.103 65.7516 48.0901V18.7201C65.7516 8.70716 57.6346 0.590088 47.6216 0.590088Z" fill="url(#paint0_linear_4114_4)"/>
<path d="M28.1261 37.772L27.5306 46.148C28.3826 46.148 28.7516 45.782 29.1941 45.3425L33.1887 41.525L41.4659 47.5865C42.984 48.4325 44.0535 47.987 44.463 46.19L49.8961 20.7321L49.8976 20.7306C50.3791 18.4866 49.0861 17.6091 47.6071 18.1596L15.6713 30.386C13.4918 31.232 13.5248 32.447 15.3008 32.9975L23.4655 35.537L42.4304 23.6706C43.323 23.0796 44.1345 23.4066 43.467 23.9976L28.1261 37.772Z" fill="#EDEDED"/>
<defs>
<linearGradient id="paint0_linear_4114_4" x1="27.0001" y1="66.0002" x2="50.0001" y2="1.00024" gradientUnits="userSpaceOnUse">
<stop stop-color="#0062D5"/>
<stop offset="1" stop-color="#00C8FF"/>
</linearGradient>
</defs>
</svg>
